<?xml version="1.0" standalone="no"?>
<!DOCTYPE svg PUBLIC "-//W3C//DTD SVG 1.1//EN" "http://www.w3.org/Graphics/SVG/1.1/DTD/svg11.dtd" >
<svg xmlns="http://www.w3.org/2000/svg" xmlns:xlink="http://www.w3.org/1999/xlink" version="1.1">
<metadata>
Created by FontForge 20170731 at Mon Nov 20 12:13:03 2023
 By Aleksey,,,
2020, Copyright by Kyiv Type Foundry. All rights reserved.
</metadata>
<defs>
<font id="KTF2101-Regular" horiz-adv-x="1241" >
  <font-face 
    font-family="KTF 2101"
    font-weight="400"
    font-stretch="normal"
    units-per-em="2048"
    panose-1="0 0 0 0 0 0 0 0 0 0"
    ascent="1638"
    descent="-410"
    x-height="1137"
    cap-height="1561"
    bbox="-406 -569 2488 2071"
    underline-thickness="153"
    underline-position="-429"
    unicode-range="U+000D-2792"
  />
<missing-glyph horiz-adv-x="421" 
 />
    <glyph glyph-name=".notdef" horiz-adv-x="421" 
 />
    <glyph glyph-name=".null" 
 />
    <glyph glyph-name="nonmarkingreturn" horiz-adv-x="682" 
 />
    <glyph glyph-name="CR" unicode="&#xd;" horiz-adv-x="421" 
 />
    <glyph glyph-name="space" unicode=" " horiz-adv-x="544" 
 />
    <glyph glyph-name="exclam" unicode="!" horiz-adv-x="575" 
d="M180 -10v260h215v-260h-215zM195 414v1147h194v-1147h-194z" />
    <glyph glyph-name="quotedbl" unicode="&#x22;" horiz-adv-x="876" 
d="M229 1036l-39 418l-2 107h191l-4 -107l-39 -418h-107zM498 1561h190l-4 -107l-39 -418h-106l-39 418z" />
    <glyph glyph-name="numbersign" unicode="#" horiz-adv-x="1466" 
d="M68 408v167h288l76 279h-237v166h286l115 397h178l-115 -397h316l117 397h172l-115 -397h250v-166h-299l-78 -279h250v-167h-299l-121 -418h-176l121 418h-314l-118 -418h-177l119 418h-239zM530 573h318l78 281h-318z" />
    <glyph glyph-name="dollar" unicode="$" horiz-adv-x="1296" 
d="M254 467q20 -162 98 -240.5t236 -95.5v502l-68 12q-218 40 -310.5 124t-92.5 245q0 169 127 274.5t344 122.5v176h155v-178q210 -15 329 -122t126 -290h-178q-35 216 -277 250v-450l84 -15q216 -37 309 -126t93 -259q0 -192 -124.5 -303.5t-359.5 -128.5v-182h-157v182
q-245 15 -376.5 141.5t-143.5 360.5h186zM309 1034q0 -85 51.5 -131.5t176.5 -66.5l51 -9v422q-131 -12 -205 -69.5t-74 -145.5zM745 131q297 21 297 258q0 87 -66 139.5t-216 73.5l-15 2v-473z" />
    <glyph glyph-name="percent" unicode="%" horiz-adv-x="1712" 
d="M444 803q-159 0 -247 106t-88 275q0 168 88 273.5t247 105.5q162 0 250 -105t88 -274q0 -167 -89.5 -274t-248.5 -107zM283 1184q0 -46 8 -84.5t25.5 -71.5t50.5 -51.5t79 -18.5q45 0 77.5 18.5t50.5 51.5t26 71.5t8 84.5q0 223 -164 223q-86 0 -123.5 -61.5
t-37.5 -161.5zM389 -10l746 1571h186l-743 -1569zM930 365q0 168 88 273t248 105q162 0 250 -104.5t88 -273.5q0 -167 -89.5 -274t-248.5 -107t-247.5 106t-88.5 275zM1104 365q0 -98 38 -162t126 -64q45 0 77.5 18.5t50.5 51.5t26 71.5t8 84.5q0 223 -164 223
q-86 0 -124 -62t-38 -161z" />
    <glyph glyph-name="ampersand" unicode="&#x26;" horiz-adv-x="1566" 
d="M145 422q0 150 83 260t257 192l47 21l-24 31q-141 165 -141 331q0 152 107.5 241t289.5 89q183 0 282 -90.5t99 -245.5q0 -125 -71 -216.5t-218 -164.5l-39 -20l350 -418q76 146 101 369h168q-18 -280 -154 -504l246 -281v-26h-223l-142 166q-102 -101 -215.5 -146
t-263.5 -45q-243 0 -391 120t-148 337zM344 426q0 -130 96 -205.5t258 -75.5q223 0 357 140l-412 485l-108 -57q-191 -102 -191 -287zM561 1243q-1 -52 26.5 -103t104.5 -143l23 -26l67 33q97 49 141 106t46 133q1 86 -53 134t-150 48q-95 0 -149 -49.5t-56 -132.5z" />
    <glyph glyph-name="quotesingle" unicode="'" horiz-adv-x="567" 
d="M229 1036l-39 418l-2 107h191l-4 -107l-39 -418h-107z" />
    <glyph glyph-name="parenleft" unicode="(" horiz-adv-x="565" 
d="M311 -250q-84 180 -128 434.5t-44 530.5t44 531t128 433h197q-184 -406 -184 -964q0 -554 184 -965h-197z" />
    <glyph glyph-name="parenright" unicode=")" horiz-adv-x="565" 
d="M57 -250q185 413 185 965q0 556 -185 964h197q84 -178 128 -433t44 -531t-44 -530.5t-128 -434.5h-197z" />
    <glyph glyph-name="asterisk" unicode="*" horiz-adv-x="827" 
d="M346 846l23 287l-232 -162l-76 129l246 117l-246 116l76 129l232 -162l-23 287h135l-22 -287l231 162l76 -129l-246 -116l246 -117l-76 -129l-231 162l22 -287h-135z" />
    <glyph glyph-name="plus" unicode="+" 
d="M109 528v162h432v457h159v-457h433v-162h-433v-467h-159v467h-432z" />
    <glyph glyph-name="comma" unicode="," horiz-adv-x="571" 
d="M115 -274l78 276v248h198v-254l-137 -270h-139z" />
    <glyph glyph-name="hyphen" unicode="-" horiz-adv-x="759" 
d="M109 528v201h542v-201h-542z" />
    <glyph glyph-name="period" unicode="." horiz-adv-x="575" 
d="M180 -10v260h215v-260h-215z" />
    <glyph glyph-name="slash" unicode="/" horiz-adv-x="919" 
d="M0 -12l729 1573h191l-727 -1571z" />
    <glyph glyph-name="zero" unicode="0" horiz-adv-x="1361" 
d="M682 -37q-143 0 -255 66t-180 180t-103 258t-35 309q0 132 21.5 251t67 222t112 177.5t161.5 117.5t209 43h2q115 0 210 -43.5t161 -119t111.5 -178.5t67 -221t21.5 -249q0 -133 -21.5 -252t-67 -222.5t-112 -178t-161.5 -117.5t-209 -43zM319 776q0 -302 96.5 -465.5
t266.5 -163.5q169 0 265.5 163.5t96.5 465.5q0 301 -96.5 464t-265.5 163t-266 -163t-97 -464z" />
    <glyph glyph-name="one" unicode="1" horiz-adv-x="686" 
d="M68 1337q93 41 169.5 100t122.5 124h177v-1571h-191v1290h-10q-123 -102 -268 -154v211z" />
    <glyph glyph-name="two" unicode="2" 
d="M90 1044q26 294 189 426q145 117 350 117q232 0 368 -121.5t136 -335.5q0 -158 -75.5 -264.5t-246.5 -195.5l-123 -64q-184 -96 -271 -191.5t-106 -224.5h838v-200h-1055q-1 196 47 337.5t145.5 242t258.5 182.5l139 71q132 67 184 136t52 165q0 129 -76 204t-201 75
q-151 0 -238.5 -92t-111.5 -267h-203z" />
    <glyph glyph-name="three" unicode="3" horiz-adv-x="1300" 
d="M668 -37q-524 0 -574 547h205q10 -178 103.5 -270.5t261.5 -92.5q152 0 236.5 83t84.5 221q0 98 -52 171t-145 105q-59 23 -180 23h-100v184h92q127 0 184 24q146 55 146 203q0 111 -74.5 177.5t-200.5 66.5q-150 0 -236 -80t-95 -223h-203q17 226 157 355.5t373 129.5
q120 0 214.5 -32t153 -86.5t88.5 -124.5t30 -150q0 -124 -66.5 -215.5t-200.5 -128.5q159 -36 240.5 -145t81.5 -273q0 -200 -143.5 -334.5t-380.5 -134.5z" />
    <glyph glyph-name="four" unicode="4" horiz-adv-x="1257" 
d="M803 -10l4 432h-731v184l651 955h277v-957h178v-182h-178v-432h-201zM297 604h510v383q0 211 10 381h-14q-120 -211 -254 -403z" />
    <glyph glyph-name="five" unicode="5" horiz-adv-x="1247" 
d="M584 -35q-206 0 -342.5 126t-145.5 339h215q5 -124 85 -203.5t208 -79.5q68 0 124.5 23t96 62.5t67 92.5t40 112t12.5 122q0 174 -81 272.5t-230 98.5q-119 0 -201.5 -65.5t-107.5 -170.5h-179l70 867h852v-197h-690l-33 -383q116 131 318 131q115 0 209 -44.5
t154.5 -119.5t93 -172t32.5 -205q0 -268 -159.5 -437t-407.5 -169z" />
    <glyph glyph-name="six" unicode="6" horiz-adv-x="1277" 
d="M664 -35q-145 0 -253.5 58.5t-173.5 163t-96.5 239t-31.5 297.5q0 147 21 275t67.5 237.5t115 187.5t168.5 122t224 44q196 0 315.5 -116.5t132.5 -325.5h-190q-22 131 -87.5 193.5t-189.5 62.5t-213 -81.5t-132 -214t-46 -300.5h12q117 235 383 235q96 0 184 -36.5
t155 -102.5t107 -166t40 -219q0 -245 -145.5 -399t-366.5 -154zM350 510q0 -162 86.5 -265.5t227.5 -103.5q133 0 221 104.5t88 266.5q0 84 -26 153t-69.5 112t-97 66t-110.5 23q-133 0 -226.5 -94t-93.5 -262z" />
    <glyph glyph-name="seven" unicode="7" horiz-adv-x="1134" 
d="M365 -16q21 446 147 804.5t328 579.5h-768v193h999v-187q-117 -134 -201.5 -268.5t-150 -301t-102.5 -369.5t-48 -451h-204z" />
    <glyph glyph-name="eight" unicode="8" horiz-adv-x="1312" 
d="M657 -37q-155 0 -278 51.5t-196.5 154.5t-73.5 243q0 146 77.5 253.5t231.5 151.5q-120 46 -187 137.5t-67 210.5q0 130 69 228t179.5 146t244.5 48q133 0 243.5 -48t179.5 -146t69 -228q0 -119 -67 -210.5t-187 -137.5q154 -44 231.5 -151.5t77.5 -253.5
q0 -140 -75 -243.5t-197.5 -154.5t-274.5 -51zM313 424q0 -131 101 -212t243 -81q141 0 242.5 81.5t101.5 211.5q0 141 -94.5 217t-251.5 76q-155 0 -248.5 -76t-93.5 -217zM367 1153q0 -67 25.5 -118t68 -79.5t92 -42.5t104.5 -14q54 0 103.5 14t92 42.5t68 79.5t25.5 118
q0 123 -83 189.5t-206 66.5q-127 0 -208.5 -65t-81.5 -191z" />
    <glyph glyph-name="nine" unicode="9" horiz-adv-x="1277" 
d="M614 1587q145 0 253.5 -58.5t173.5 -163t96.5 -239t31.5 -297.5q0 -147 -21 -275t-67.5 -237.5t-115 -187.5t-168.5 -122t-224 -44q-196 0 -315.5 116.5t-132.5 326.5h190q22 -131 87.5 -193.5t189.5 -62.5t213 81.5t132 213.5t46 300h-12q-117 -235 -383 -235
q-96 0 -184 36.5t-155 102.5t-107 166t-40 219q0 245 145.5 399t366.5 154zM305 1040q0 -84 26 -153t69.5 -112t97 -66t110.5 -23q133 0 226.5 94t93.5 262q0 162 -86.5 265.5t-227.5 103.5q-133 0 -221 -104.5t-88 -266.5z" />
    <glyph glyph-name="colon" unicode=":" horiz-adv-x="575" 
d="M180 -10v260h215v-260h-215zM180 674v260h215v-260h-215z" />
    <glyph glyph-name="semicolon" unicode=";" horiz-adv-x="575" 
d="M115 -274l78 276v248h198v-254l-137 -270h-139zM180 674v260h215v-260h-215z" />
    <glyph glyph-name="less" unicode="&#x3c;" horiz-adv-x="1118" 
d="M1030 41l-942 432v176l942 428v-192l-737 -322l737 -332v-190z" />
    <glyph glyph-name="equal" unicode="=" 
d="M109 315v174h1024v-174h-1024zM109 723v174h1024v-174h-1024z" />
    <glyph glyph-name="greater" unicode="&#x3e;" horiz-adv-x="1118" 
d="M88 41v190l737 332l-737 322v192l942 -428v-176z" />
    <glyph glyph-name="question" unicode="?" horiz-adv-x="1138" 
d="M473 430q-1 61 7 114t26.5 97.5t36 77t49 69t51 56t55.5 53.5q45 43 64 62.5t48 57t40.5 73.5t11.5 79q0 110 -72 169t-196 59q-163 0 -244.5 -92t-101.5 -261h-191q9 252 144 394.5t395 142.5q211 0 343 -107t132 -296q0 -57 -12.5 -107.5t-29 -85t-48 -73t-52.5 -59
t-61 -56.5q-41 -38 -61.5 -58t-52.5 -58.5t-47 -70.5t-26.5 -79.5t-10.5 -100.5h-197zM471 -10v260h215v-260h-215z" />
    <glyph glyph-name="at" unicode="@" horiz-adv-x="1875" 
d="M109 561q0 197 65.5 367.5t181.5 292t282.5 191t360.5 69.5q227 0 401.5 -88t270.5 -250t96 -375q0 -159 -57.5 -293.5t-155.5 -212.5t-213 -78q-74 0 -119 34t-67 108h-10q-87 -146 -266 -146q-149 0 -242.5 103.5t-93.5 273.5q0 133 50 248.5t147.5 189.5t220.5 74
q186 0 245 -145h11l18 125h147q-26 -187 -28 -203q-60 -411 -60 -422q0 -90 80 -90q61 0 112.5 63.5t80 163.5t28.5 209q0 248 -160.5 394.5t-428.5 146.5q-208 0 -371 -91t-254.5 -258.5t-91.5 -383.5q0 -157 53 -280.5t150 -203.5t231.5 -122t300.5 -42q312 0 590 142
l76 -152q-172 -86 -332.5 -127t-337.5 -41q-155 0 -293 34.5t-251 102.5t-195 164.5t-127 226.5t-45 281zM715 555q0 -105 52 -166t146 -61q93 0 155.5 69.5t76.5 175.5l12 101q15 117 -32.5 180.5t-147.5 63.5q-121 0 -191.5 -100t-70.5 -263z" />
    <glyph glyph-name="A" unicode="A" horiz-adv-x="1449" 
d="M23 -10l571 1571h262l571 -1571h-210l-168 465h-648l-168 -465h-210zM469 645h512l-195 539q-36 99 -55 166h-12q-19 -67 -55 -166z" />
    <glyph glyph-name="B" unicode="B" horiz-adv-x="1431" 
d="M150 -10v1571h538q135 0 205 -6.5t137 -28.5q114 -39 180 -131t66 -215q0 -127 -69 -220.5t-183 -121.5q135 -32 217 -131t82 -250q0 -159 -74 -268.5t-209 -159.5q-108 -39 -356 -39h-534zM356 176h322q149 0 229 19q199 47 199 249q0 210 -186 254q-86 21 -201 21h-363
v-543zM356 905h295q149 0 223 17q189 44 189 227q0 167 -156 209q-66 18 -256 18h-295v-471z" />
    <glyph glyph-name="C" unicode="C" horiz-adv-x="1615" 
d="M852 -37q-343 0 -543 215q-95 99 -147.5 249.5t-52.5 340.5q0 202 60.5 361t165 257.5t237.5 149.5t286 51q133 0 233 -28t195 -95q96 -68 160.5 -178t85.5 -254h-215q-27 166 -146 273q-63 57 -139 78.5t-176 21.5q-110 -1 -199 -34.5t-150 -91.5t-101.5 -139
t-59 -173.5t-18.5 -198.5q0 -130 31.5 -240.5t93.5 -197t165.5 -136t237.5 -49.5q208 0 328.5 112.5t148.5 299.5h213q-15 -147 -75.5 -262t-154.5 -186.5t-211.5 -108.5t-252.5 -37z" />
    <glyph glyph-name="D" unicode="D" horiz-adv-x="1570" 
d="M150 -10v1571h466q267 0 428 -62q201 -81 309.5 -264.5t108.5 -460.5q0 -287 -123 -473.5t-348 -263.5q-149 -47 -375 -47h-466zM356 176h310q266 0 422.5 150t156.5 432q0 246 -101.5 398t-279.5 196q-90 22 -260 22h-248v-1198z" />
    <glyph glyph-name="E" unicode="E" horiz-adv-x="1228" 
d="M150 -10v1571h987v-197h-781v-451h760v-190l-760 2v-539h801v-196h-1007z" />
    <glyph glyph-name="F" unicode="F" horiz-adv-x="1193" 
d="M150 -10v1571h987v-197h-781v-512h719v-190h-719v-672h-206z" />
    <glyph glyph-name="G" unicode="G" horiz-adv-x="1669" 
d="M109 768q0 163 38.5 298t107.5 230.5t165.5 161.5t211.5 97.5t247 31.5q265 0 430 -118.5t204 -356.5h-213q-28 146 -140.5 219.5t-285.5 73.5q-115 0 -208 -33.5t-155.5 -91.5t-104 -139.5t-60 -174t-18.5 -198.5q0 -129 31 -240t92.5 -198t163 -137t233.5 -50
q228 0 362 123t144 344l2 31h-510v190h694v-841h-170v211h-14q-87 -127 -212 -182.5t-288 -55.5q-157 0 -291 50t-236.5 147t-161 253t-58.5 355z" />
    <glyph glyph-name="H" unicode="H" horiz-adv-x="1531" 
d="M150 -10v1571h206v-648h820v648h206v-1571h-206v733h-820v-733h-206z" />
    <glyph glyph-name="I" unicode="I" horiz-adv-x="505" 
d="M150 -10v1571h206v-1571h-206z" />
    <glyph glyph-name="J" unicode="J" horiz-adv-x="1136" 
d="M506 -37q-237 0 -360.5 161t-125.5 433h207q13 -405 287 -405q78 0 131 27t82 80t41 119.5t12 158.5v1024h207v-1020q0 -578 -481 -578z" />
    <glyph glyph-name="K" unicode="K" horiz-adv-x="1318" 
d="M150 -10v1571h206v-783l650 783h233v-23l-539 -635l615 -885v-28h-230l-530 770l-199 -238v-532h-206z" />
    <glyph glyph-name="L" unicode="L" horiz-adv-x="1118" 
d="M150 -10v1571h206v-1373h736v-198h-942z" />
    <glyph glyph-name="M" unicode="M" horiz-adv-x="1923" 
d="M150 -10v1571h311l416 -1065q63 -166 81 -226h15q16 61 94 258l403 1033h304v-1571h-199v1325h-8l-518 -1325h-175l-518 1325h-8v-1325h-198z" />
    <glyph glyph-name="N" unicode="N" horiz-adv-x="1581" 
d="M150 -10v1571h239l840 -1274h12q-14 158 -14 471v803h205v-1571h-236l-844 1278h-12q14 -264 14 -615v-663h-204z" />
    <glyph glyph-name="O" unicode="O" horiz-adv-x="1712" 
d="M856 -37q-157 0 -291 50t-236.5 147t-161 253t-58.5 355q0 202 58.5 361t161 257.5t236.5 149.5t291 51q126 0 237 -31.5t205 -97.5t162 -161.5t106 -230.5t38 -298q0 -160 -38 -292.5t-106 -226.5t-162 -159t-205 -96t-237 -31zM328 768q0 -102 18.5 -192.5t59.5 -169
t101 -135t148.5 -89t196.5 -32.5q136 0 240.5 48.5t167 134.5t93.5 195.5t31 239.5q0 105 -18 197t-58.5 173t-101 139t-150 91t-200.5 33t-200.5 -33t-150 -91t-101 -139t-58.5 -173t-18 -197z" />
    <glyph glyph-name="P" unicode="P" horiz-adv-x="1341" 
d="M150 -10v1571h520q212 0 327 -43q125 -50 196 -164.5t71 -272.5q0 -161 -70.5 -274.5t-192.5 -161.5q-118 -45 -352 -45h-293v-610h-206zM356 782h301q135 0 209 21q87 24 135 92.5t48 181.5q0 226 -189 279q-70 20 -182 20h-322v-594z" />
    <glyph glyph-name="Q" unicode="Q" horiz-adv-x="1730" 
d="M109 768q0 202 58.5 361t161 257.5t236.5 149.5t291 51q126 0 237 -31.5t205 -97.5t162 -161.5t106 -230.5t38 -298q0 -201 -58.5 -355.5t-163.5 -254.5h234v-168h-541q-108 -27 -219 -27q-157 0 -291 50t-236.5 147t-161 253t-58.5 355zM328 768q0 -102 18.5 -192.5
t59.5 -169t101 -135t148.5 -89t196.5 -32.5q136 0 240.5 48.5t167 134.5t93.5 195.5t31 239.5q0 105 -18 197t-58.5 173t-101 139t-150 91t-200.5 33t-200.5 -33t-150 -91t-101 -139t-58.5 -173t-18 -197z" />
    <glyph glyph-name="R" unicode="R" horiz-adv-x="1396" 
d="M150 -10v1571h536q240 0 350 -37q127 -44 195.5 -151t68.5 -261q0 -184 -102.5 -296t-284.5 -140l402 -660v-26h-228l-397 669h-334v-669h-206zM356 838h338q137 0 219 20q89 21 139 81.5t50 160.5q0 213 -187 258q-68 18 -219 18h-340v-538z" />
    <glyph glyph-name="S" unicode="S" horiz-adv-x="1443" 
d="M735 -39q-313 0 -481.5 141.5t-185.5 423.5h211q26 -204 137.5 -294.5t341.5 -90.5q201 0 305 76.5t104 222.5q0 98 -74.5 154.5t-244.5 85.5l-270 47q-244 43 -348.5 139.5t-104.5 278.5q0 204 167.5 326t448.5 122q275 0 432.5 -121t169.5 -346h-202q-20 141 -124 215
t-288 74q-178 0 -283.5 -69t-105.5 -179q0 -93 58 -143t198 -76l330 -61q242 -44 346 -145t104 -291q0 -234 -166 -362t-475 -128z" />
    <glyph glyph-name="T" unicode="T" horiz-adv-x="1251" 
d="M522 -10v1374h-465v197h1137v-197h-465v-1374h-207z" />
    <glyph glyph-name="U" unicode="U" horiz-adv-x="1495" 
d="M741 -39q-113 0 -203.5 18.5t-151 47.5t-105.5 72.5t-69.5 86.5t-39 98t-18.5 97.5t-4 93.5v1081h206v-1060q0 -58 6 -101.5t29 -93t62 -81.5t110.5 -53.5t169.5 -21.5q96 0 167.5 12t114.5 39t69.5 54t37.5 74.5t14 80.5t3 91v1060h207v-1081q-1 -54 -7 -101t-23 -101
t-44.5 -97t-74 -84.5t-108 -69t-150.5 -44.5t-198 -17z" />
    <glyph glyph-name="V" unicode="V" horiz-adv-x="1472" 
d="M616 -10l-589 1548v23h219l360 -971q100 -270 123 -369h14q35 128 125 369l361 971h217v-23l-588 -1548h-242z" />
    <glyph glyph-name="W" unicode="W" horiz-adv-x="2017" 
d="M449 -10l-406 1571h201l231 -883q73 -282 98 -457h13q19 172 80 422l227 918h229l242 -975q66 -265 82 -367h14q28 218 109 535l207 807h198l-399 -1571h-246l-244 989q-52 214 -71 387h-10q-17 -161 -82 -424l-240 -952h-233z" />
    <glyph glyph-name="X" unicode="X" horiz-adv-x="1316" 
d="M16 -10v30l525 789l-484 725v27h234l377 -603l379 603h221v-25l-486 -727l518 -793v-26h-227l-414 665l-417 -665h-226z" />
    <glyph glyph-name="Y" unicode="Y" horiz-adv-x="1308" 
d="M6 1538v23h232l323 -639q29 -56 58 -115.5t38 -77.5h11q79 168 108 225l305 607h222v-23l-545 -1016v-532h-207v532z" />
    <glyph glyph-name="Z" unicode="Z" horiz-adv-x="1251" 
d="M47 -10v182l895 1202h-829v187h1091v-183l-897 -1202h889v-186h-1149z" />
    <glyph glyph-name="bracketleft" unicode="[" horiz-adv-x="575" 
d="M168 -250v1929h360v-190h-182v-1548h182v-191h-360z" />
    <glyph glyph-name="backslash" unicode="\" horiz-adv-x="919" 
d="M920 -12l-193 2l-727 1571h190z" />
    <glyph glyph-name="bracketright" unicode="]" horiz-adv-x="575" 
d="M408 -250h-361v191h182v1548h-182v190h361v-1929z" />
    <glyph glyph-name="asciicircum" unicode="^" horiz-adv-x="1146" 
d="M102 715l398 846h145l399 -846h-178l-299 631l-293 -631h-172z" />
    <glyph glyph-name="underscore" unicode="_" horiz-adv-x="1189" 
d="M109 -260v180h972v-180h-972z" />
    <glyph glyph-name="grave" unicode="`" horiz-adv-x="503" 
d="M322 1235l-261 326h232l149 -326h-120z" />
    <glyph glyph-name="a" unicode="a" horiz-adv-x="1157" 
d="M90 317q0 81 29.5 142t87 101t129.5 65t170 41q202 33 358 53l-2 41q-5 156 -139 209q-54 22 -127 22q-254 0 -295 -209h-188q9 79 42 146.5t90 120.5t146 83.5t201 30.5q216 0 334 -101t118 -304v-768h-180v151h-8q-57 -90 -153.5 -134t-206.5 -44q-77 0 -148.5 22
t-129.5 64.5t-93 111.5t-35 156zM295 317q0 -86 61.5 -140t169.5 -54q100 0 196.5 60t129.5 161q16 61 14 133l-2 94q-143 -21 -346 -65q-128 -26 -175.5 -73.5t-47.5 -115.5z" />
    <glyph glyph-name="b" unicode="b" horiz-adv-x="1253" 
d="M653 -37q-118 0 -204 44t-123 124h-11v-141h-184v1571h195v-543h12q40 69 122.5 107t192.5 38q122 0 222 -49t165 -132t100.5 -191t35.5 -228t-35.5 -228t-100.5 -191t-165 -132t-222 -49zM307 563q0 -110 12 -176q23 -124 101.5 -188t204.5 -64q161 0 254.5 118.5
t93.5 309.5t-93.5 309.5t-254.5 118.5q-126 0 -204.5 -64t-101.5 -188q-12 -66 -12 -176z" />
    <glyph glyph-name="c" unicode="c" horiz-adv-x="1185" 
d="M1116 397q-28 -209 -158.5 -321.5t-341.5 -112.5q-163 0 -286 78t-187.5 213.5t-64.5 308.5q0 269 151 434.5t398 165.5q69 0 125 -10q147 -29 237.5 -132t110.5 -269h-191q-37 189 -207 233q-27 6 -81 6q-164 0 -254.5 -118t-90.5 -310t92.5 -310t258.5 -118
q125 0 200 69t97 193h192z" />
    <glyph glyph-name="d" unicode="d" horiz-adv-x="1253" 
d="M1122 -10h-184v141h-10q-37 -80 -123.5 -124t-204.5 -44q-122 0 -222 48.5t-165 132t-100 191t-35 228.5t35 228.5t100 191t165 132t222 48.5q110 0 193.5 -38.5t124.5 -108.5h10v545h194v-1571zM281 563q0 -191 93.5 -309.5t254.5 -118.5q126 0 204 64t101 188
q12 66 12 176t-12 176q-23 124 -101 188t-204 64q-161 0 -254.5 -118.5t-93.5 -309.5z" />
    <glyph glyph-name="e" unicode="e" horiz-adv-x="1222" 
d="M1143 397q-27 -209 -164 -321.5t-352 -112.5q-248 0 -398.5 169t-150.5 431q0 178 73 320t201 213q119 67 271 67q88 0 127 -6q94 -17 190 -84q97 -70 152.5 -205t52.5 -331h-871q-3 -17 0 -43q6 -70 27 -132q39 -105 125.5 -165t210.5 -60q189 0 268 135q32 51 49 125
h189zM285 702h663q-12 124 -82 203t-184 92q-23 2 -53 2q-127 0 -215 -69t-121 -185q-4 -20 -4 -26z" />
    <glyph glyph-name="f" unicode="f" horiz-adv-x="718" 
d="M211 -10v981h-174v166h174v137q0 75 21.5 132.5t54.5 91t79 54.5t88.5 28t90.5 7q55 0 121 -12v-168q-58 4 -80 4q-93 0 -138 -30.5t-45 -108.5v-135h279v-166h-279v-981h-192z" />
    <glyph glyph-name="g" unicode="g" horiz-adv-x="1228" 
d="M1100 68q0 -463 -504 -463q-433 0 -475 338h194q10 -84 84.5 -127t200.5 -43q83 0 140 16t99.5 56t62.5 110.5t20 175.5v55h-11q-32 -82 -118.5 -127t-206.5 -45q-118 0 -215.5 46.5t-160.5 126t-97.5 183t-34.5 218.5q0 116 34.5 219.5t97.5 183t160.5 126t215.5 46.5
q116 0 199.5 -43t117.5 -119h12v136h185v-1069zM281 588q0 -183 88.5 -296.5t246.5 -113.5q248 0 295 242q13 68 13 168q0 96 -13 168q-48 245 -295 245q-158 0 -246.5 -113.5t-88.5 -299.5z" />
    <glyph glyph-name="h" unicode="h" horiz-adv-x="1181" 
d="M131 -10v1571h195v-603h10q119 205 354 205q119 0 210.5 -55.5t137.5 -167.5q31 -76 31 -215v-735h-195v721q0 112 -20 163q-20 49 -68 80t-118 31q-147 0 -242 -113q-70 -82 -85 -145t-15 -209v-528h-195z" />
    <glyph glyph-name="i" unicode="i" horiz-adv-x="468" 
d="M137 -10v1147h195v-1147h-195zM131 1280v236h207v-236h-207z" />
    <glyph glyph-name="j" unicode="j" horiz-adv-x="454" 
d="M131 -369v1506h193v-1506h-193zM123 1280v236h207v-236h-207z" />
    <glyph glyph-name="k" unicode="k" horiz-adv-x="1077" 
d="M131 -10v1571h191v-924l473 500h223v-29l-412 -418l451 -674v-26h-207l-381 594l-147 -148v-446h-191z" />
    <glyph glyph-name="l" unicode="l" horiz-adv-x="458" 
d="M131 -10v1571h197v-1571h-197z" />
    <glyph glyph-name="m" unicode="m" horiz-adv-x="1898" 
d="M129 -10v1147h186v-195h11q115 221 354 221q152 0 258 -92q51 -48 92 -147q120 239 381 239q152 0 258 -92q48 -45 88 -133q29 -76 29 -213v-735h-195v721q0 112 -20 159q-20 52 -65.5 83.5t-114.5 31.5q-146 0 -238 -113q-29 -35 -47.5 -66.5t-29 -56.5t-15 -66.5
t-5.5 -70.5t-1 -94v-528h-195v721q0 112 -20 159q-20 52 -66 83.5t-115 31.5q-145 0 -237 -113q-29 -35 -47.5 -66.5t-29 -56.5t-15 -66.5t-5.5 -70.5t-1 -94v-528h-195z" />
    <glyph glyph-name="n" unicode="n" horiz-adv-x="1179" 
d="M129 -10v1147h186v-195h11q118 221 362 221q119 0 210.5 -55.5t137.5 -167.5q31 -76 31 -215v-735h-195v721q0 112 -20 163q-20 49 -68 80t-118 31q-147 0 -242 -113q-70 -82 -85 -145t-15 -209v-528h-195z" />
    <glyph glyph-name="o" unicode="o" horiz-adv-x="1249" 
d="M625 -37q-164 0 -289 78t-191.5 214t-66.5 308t66.5 308t191.5 214t289 78t289 -78.5t191 -214t66 -307.5t-66 -307.5t-191 -214t-289 -78.5zM283 563q0 -193 88.5 -310.5t253.5 -117.5t253.5 117.5t88.5 310.5q0 192 -88.5 310t-253.5 118t-253.5 -118t-88.5 -310z" />
    <glyph glyph-name="p" unicode="p" horiz-adv-x="1251" 
d="M129 1137h184v-142h11q37 80 123 124t204 44q122 0 222 -49t165 -132t100.5 -191t35.5 -228t-35.5 -228t-100.5 -191t-165 -132t-222 -49q-110 0 -192.5 38.5t-122.5 107.5h-12v-478h-195v1506zM305 563q0 -110 12 -176q23 -124 101.5 -188t204.5 -64q161 0 254.5 118.5
t93.5 309.5t-93.5 309.5t-254.5 118.5q-126 0 -204.5 -64t-101.5 -188q-12 -66 -12 -176z" />
    <glyph glyph-name="q" unicode="q" horiz-adv-x="1251" 
d="M1122 -369h-194v478h-13q-40 -69 -122.5 -107.5t-192.5 -38.5q-122 0 -222 48.5t-165 132t-100 191t-35 228.5t35 228.5t100 191t165 132t222 48.5q118 0 204.5 -44t123.5 -124h10v142h184v-1506zM281 563q0 -191 93.5 -309.5t254.5 -118.5q126 0 204 64t101 188
q12 66 12 176t-12 176q-23 124 -101 188t-204 64q-161 0 -254.5 -118.5t-93.5 -309.5z" />
    <glyph glyph-name="r" unicode="r" horiz-adv-x="819" 
d="M129 -10v1147h190v-230h11q43 88 105.5 146t125.5 81t131 23q61 0 96 -12v-184q-33 10 -92 10q-175 0 -288 -152q-23 -32 -37 -57q-4 -12 -11 -19q-21 -44 -28.5 -90t-7.5 -121v-542h-195z" />
    <glyph glyph-name="s" unicode="s" horiz-adv-x="1150" 
d="M1063 348q0 -176 -124 -280.5t-349 -104.5q-217 0 -348 101t-152 294h191q44 -221 309 -221q132 0 206 52t74 139q0 132 -188 149l-205 21q-187 19 -275.5 93t-88.5 206q0 163 132 264.5t347 101.5q202 0 324 -97.5t139 -283.5h-183q-35 209 -288 209
q-126 0 -201.5 -49.5t-75.5 -128.5q0 -54 42 -83t138 -38l215 -22q186 -20 273.5 -100t87.5 -222z" />
    <glyph glyph-name="t" unicode="t" horiz-adv-x="694" 
d="M197 199v772h-150v166h150v276h192v-276h248v-166h-248v-723q0 -76 44.5 -102.5t131.5 -26.5q36 0 72 4v-148q-78 -16 -158 -16q-282 0 -282 240z" />
    <glyph glyph-name="u" unicode="u" horiz-adv-x="1179" 
d="M1051 1137v-1147h-187v194h-10q-118 -221 -362 -221q-119 0 -211 55.5t-138 167.5q-30 74 -30 215v736h194v-721q0 -110 21 -164q20 -49 68 -80t118 -31q147 0 242 113q70 82 85 145t15 209v529h195z" />
    <glyph glyph-name="v" unicode="v" horiz-adv-x="1105" 
d="M446 -10l-413 1147h203l221 -650q38 -111 75 -245q9 -24 15 -45h12q9 32 14 45q33 120 76 245l221 650h203l-414 -1147h-213z" />
    <glyph glyph-name="w" unicode="w" horiz-adv-x="1689" 
d="M371 -10l-328 1147h197l151 -543q48 -169 98 -410h17q24 158 76 357l157 596h217l146 -559q54 -211 90 -394h16q25 126 58 244l196 709h185l-326 -1147h-225l-187 702q-31 127 -53 254h-14q-18 -106 -80 -346l-162 -610h-229z" />
    <glyph glyph-name="x" unicode="x" horiz-adv-x="1120" 
d="M12 -10l426 592l-397 555h233l283 -437l281 437h223l-387 -541l434 -606h-234l-319 489l-319 -489h-224z" />
    <glyph glyph-name="y" unicode="y" horiz-adv-x="1110" 
d="M35 1116v21h201l337 -861l301 861h195v-23l-549 -1483h-190v23l139 389z" />
    <glyph glyph-name="z" unicode="z" horiz-adv-x="997" 
d="M51 -10v153l647 832h-616v162h840v-170l-635 -815h659v-162h-895z" />
    <glyph glyph-name="braceleft" unicode="{" horiz-adv-x="739" 
d="M68 795q112 19 160 89.5t48 215.5v155q0 240 68.5 332t251.5 92h76v-168q-134 0 -178.5 -57t-44.5 -221v-103q0 -184 -42 -285t-149 -130q107 -28 149 -129.5t42 -286.5v-102q0 -167 45.5 -223t177.5 -56v-168h-74q-186 0 -254 93t-68 331v156q0 145 -48 215.5t-160 89.5
v160z" />
    <glyph glyph-name="bar" unicode="|" horiz-adv-x="475" 
d="M150 -10v1571h176v-1571h-176z" />
    <glyph glyph-name="braceright" unicode="}" horiz-adv-x="739" 
d="M672 635q-112 -19 -160.5 -89.5t-48.5 -215.5v-156q0 -238 -68 -331t-254 -93h-73v168q132 0 177.5 56t45.5 223v102q0 185 41.5 286.5t148.5 129.5q-107 29 -148.5 129.5t-41.5 285.5v103q0 164 -44.5 221t-178.5 57v168h75q183 0 251.5 -92t68.5 -332v-155
q0 -145 48.5 -215.5t160.5 -89.5v-160z" />
    <glyph glyph-name="asciitilde" unicode="~" horiz-adv-x="1161" 
d="M784 391q-79 0 -215 70q-44 21 -66.5 30.5t-56.5 19t-63 9.5q-33 0 -62.5 -14t-45.5 -28t-44 -44l-26 -28l-113 98q76 110 137 158.5t146 48.5q79 0 215 -70q44 -21 66.5 -30.5t57 -19t64.5 -9.5q17 0 32.5 3t30 10.5t24.5 13t25 20t21 20.5t22.5 24t20.5 23l115 -106
q-52 -70 -89 -109t-87 -64.5t-109 -25.5z" />
    <glyph glyph-name="uni00A0" unicode="&#xa0;" horiz-adv-x="544" 
 />
    <glyph glyph-name="exclamdown" unicode="&#xa1;" horiz-adv-x="561" 
d="M180 -369v1102h201v-1102h-201zM180 883v254h201v-254h-201z" />
    <glyph glyph-name="cent" unicode="&#xa2;" horiz-adv-x="1185" 
d="M565 -37v223q-223 19 -355 184t-132 414q0 251 131.5 413t353.5 185v205h146v-207l43 -6q147 -29 237.5 -132t110.5 -269h-191q-37 183 -200 231l2 -839q173 42 213 253h192q-25 -185 -130 -295t-275 -133v-227h-146zM276 784q0 -172 75.5 -286.5t213.5 -137.5l-2 848
q-138 -21 -212.5 -136t-74.5 -288z" />
    <glyph glyph-name="sterling" unicode="&#xa3;" horiz-adv-x="1363" 
d="M92 582v176h197q-90 175 -90 348q0 213 146 347t396 134q244 0 384 -137.5t149 -368.5h-197q-12 151 -99 236.5t-237 85.5q-163 0 -251.5 -88t-88.5 -228q0 -153 95 -329h540v-176h-458q30 -70 30 -150q0 -144 -98 -239h723v-201l-1108 -2v166q150 55 222.5 121t72.5 153
q0 79 -41 152h-287z" />
    <glyph glyph-name="currency" unicode="&#xa4;" horiz-adv-x="1161" 
d="M252 379q-68 99 -68 237q0 139 68 238l-152 137l103 101l139 -144q95 76 240 76q142 0 237 -76l139 144l103 -101l-152 -137q68 -99 68 -238q0 -138 -68 -237l152 -137l-103 -101l-139 144q-95 -76 -237 -76q-145 0 -240 76l-139 -144l-103 101zM344 616
q0 -111 62.5 -187.5t175.5 -76.5q112 0 173.5 76.5t61.5 187.5t-62 188t-175 77q-112 0 -174 -77t-62 -188z" />
    <glyph glyph-name="yen" unicode="&#xa5;" horiz-adv-x="1308" 
d="M6 1538v23h232l323 -639q29 -56 58 -115.5t38 -77.5h11q79 168 108 225l305 607h222v-23l-369 -688h207v-162h-295l-88 -166h383v-157h-383v-375h-207v375h-383v157h383l-88 166h-295v162h207z" />
    <glyph glyph-name="brokenbar" unicode="&#xa6;" horiz-adv-x="475" 
d="M150 942v619h176v-619h-176zM150 -10v618h176v-618h-176z" />
    <glyph glyph-name="section" unicode="&#xa7;" horiz-adv-x="1292" 
d="M618 -395q-209 0 -336.5 113t-134.5 313h205q3 -122 72.5 -185t202.5 -63q97 0 165 53.5t68 132.5q0 38 -20.5 72t-48 58t-78 50t-87.5 41.5t-98 38.5q-148 68 -199 99q-175 107 -210 267q-10 44 -10 93q0 109 54 193.5t152 130.5q-94 103 -94 229q0 152 122 251t302 99
q196 0 317.5 -115t122.5 -311h-188q-3 122 -65.5 185t-174.5 63q-100 0 -164.5 -48t-64.5 -124t59 -127t238 -135q58 -28 90.5 -44t78.5 -39.5t70.5 -38.5t58.5 -37t51 -39t39 -40.5t32.5 -45.5t21 -49.5t14 -57t3.5 -64.5q0 -232 -197 -321q72 -97 72 -215
q0 -158 -121 -270.5t-320 -112.5zM303 711q0 -81 56 -144t182 -121l331 -155q69 55 95 97.5t26 98.5q0 29 -6 53.5t-14 43t-27.5 38t-35.5 32.5t-50 32.5t-59 32.5t-73 37l-28 14l-274 137q-123 -67 -123 -196z" />
    <glyph glyph-name="dieresis" unicode="&#xa8;" horiz-adv-x="649" 
d="M393 1280v236h189v-236h-189zM68 1280v236h188v-236h-188z" />
    <glyph glyph-name="copyright" unicode="&#xa9;" horiz-adv-x="1812" 
d="M1296 641q-22 -166 -125.5 -255t-271.5 -89q-194 0 -311 133.5t-117 343.5q0 214 120 345.5t316 131.5q52 0 101 -8q117 -24 189 -105.5t87 -213.5h-151q-26 147 -164 186q-23 4 -66 4q-130 0 -202 -94t-72 -246q0 -153 73 -247.5t205 -94.5q100 0 160 55.5t78 153.5h151
zM109 774q0 169 63.5 320.5t170.5 258.5t254 169.5t308 62.5q162 0 309 -62.5t255 -169.5t171.5 -258.5t63.5 -320.5q0 -170 -63.5 -321.5t-171.5 -259t-255 -170t-309 -62.5q-161 0 -308 62.5t-254 170t-170.5 259t-63.5 321.5zM242 774q0 -130 49 -251.5t134 -214
t211 -148.5t271 -56t271 56t211.5 148.5t134.5 214t49 251.5t-49 251t-134.5 213.5t-211.5 148t-271 55.5t-271 -55.5t-211 -148t-134 -213.5t-49 -251z" />
    <glyph glyph-name="ordfeminine" unicode="&#xaa;" horiz-adv-x="811" 
d="M68 1204q1 133 60 231.5t157 133.5q53 18 112 18q146 0 209 -110h10v94h121v-733h-116v106h-7q-62 -123 -217 -123q-56 0 -112 19q-99 35 -157.5 133t-59.5 231zM207 1204q0 -114 53 -186t156 -72q74 0 124 42t62 116q8 39 8 100q0 62 -8 101q-12 73 -62 115t-124 42
q-103 0 -156 -73t-53 -185z" />
    <glyph glyph-name="guillemotleft" unicode="&#xab;" horiz-adv-x="1003" 
d="M362 61l-266 502l266 500h199l-274 -500l274 -502h-199zM449 563l266 500h198l-274 -500l274 -502h-198z" />
    <glyph glyph-name="logicalnot" unicode="&#xac;" horiz-adv-x="1189" 
d="M922 201v415h-813v177h972v-592h-159z" />
    <glyph glyph-name="registered" unicode="&#xae;" horiz-adv-x="1812" 
d="M596 305v942h336q127 0 198 -26q73 -30 115.5 -97t42.5 -155q0 -103 -58 -174t-153 -90l215 -363v-37h-151l-215 387h-185v-387h-145zM109 776q0 169 63.5 320.5t170.5 258.5t254 169.5t308 62.5q162 0 309 -62.5t255 -169.5t171.5 -258.5t63.5 -320.5
q0 -170 -63.5 -321.5t-171.5 -259t-255 -170t-309 -62.5q-161 0 -308 62.5t-254 170t-170.5 259t-63.5 321.5zM242 776q0 -130 49 -251.5t134 -214t211 -148.5t271 -56t271 56t211.5 148.5t134.5 214t49 251.5t-49 251t-134.5 213.5t-211.5 148t-271 55.5t-271 -55.5
t-211 -148t-134 -213.5t-49 -251zM741 834l140 -3q132 -2 196 25.5t64 106.5q0 76 -51.5 109.5t-151.5 33.5h-197v-272z" />
    <glyph glyph-name="macron" unicode="&#xaf;" horiz-adv-x="737" 
d="M68 1280v168h602v-168h-602z" />
    <glyph glyph-name="degree" unicode="&#xb0;" horiz-adv-x="792" 
d="M397 973q-127 0 -213 89t-86 216q0 131 88 220t211 89q125 0 211 -89.5t86 -215.5q0 -131 -87 -220t-210 -89zM240 1280q0 -62 45 -106t112 -44q66 0 111 44.5t45 107.5q0 61 -44.5 104.5t-111.5 43.5t-112 -44t-45 -106z" />
    <glyph glyph-name="plusminus" unicode="&#xb1;" horiz-adv-x="1120" 
d="M150 -10v162h821v-162h-821zM150 582v161h335v320h150v-320h336v-161h-336v-320h-150v320h-335z" />
    <glyph glyph-name="uni00B2" unicode="&#xb2;" horiz-adv-x="727" 
d="M90 1284q3 132 77 214.5t208 82.5q115 0 183.5 -64t68.5 -176q0 -85 -37.5 -143.5t-126.5 -110.5l-53 -30q-75 -44 -111 -75.5t-53 -70.5h389v-147h-543q-3 153 52 249t180 163l67 36q61 33 84 61t23 66q0 48 -31 76.5t-90 28.5q-78 0 -115 -38t-43 -122h-129z" />
    <glyph glyph-name="uni00B3" unicode="&#xb3;" horiz-adv-x="765" 
d="M229 1040q4 -85 43 -123t117 -38q64 0 100.5 34.5t36.5 90.5q0 58 -44 94.5t-120 36.5h-59v133h55q70 0 107 21t37 71q0 40 -32.5 65t-92.5 25q-143 0 -146 -139h-135q2 129 75 199.5t210 70.5q115 0 182.5 -56.5t67.5 -152.5q0 -115 -101 -166q60 -26 93.5 -83.5
t33.5 -133.5q0 -117 -76 -181.5t-198 -64.5q-139 0 -214 77.5t-75 219.5h135z" />
    <glyph glyph-name="acute" unicode="&#xb4;" horiz-adv-x="503" 
d="M182 1235h-121l150 326h231z" />
    <glyph glyph-name="paragraph" unicode="&#xb6;" horiz-adv-x="1116" 
d="M489 610q-130 5 -226.5 69t-145.5 168.5t-49 235.5q0 147 66.5 257t177.5 165.5t249 55.5h72v-1807h-144v856zM760 -246v1807h289v-156l-146 2v-1653h-143z" />
    <glyph glyph-name="periodcentered" unicode="&#xb7;" horiz-adv-x="575" 
d="M180 420v260h215v-260h-215z" />
    <glyph glyph-name="cedilla" unicode="&#xb8;" horiz-adv-x="557" 
d="M109 -276q61 -37 129 -37q77 0 77 53q0 28 -27.5 51t-97.5 47l-73 27l121 145h141l-88 -88q78 -21 118 -70t40 -108q0 -81 -57 -131.5t-144 -50.5q-71 0 -139 41v121z" />
    <glyph glyph-name="uni00B9" unicode="&#xb9;" horiz-adv-x="497" 
d="M219 1200q0 98 2 141h-10q-57 -47 -143 -71v162q112 42 161 129h119v-797h-129v436z" />
    <glyph glyph-name="ordmasculine" unicode="&#xba;" horiz-adv-x="827" 
d="M414 825q-158 0 -252 105t-94 274v2q0 170 94 275.5t252 105.5t252 -105.5t94 -275.5v-2q0 -169 -94 -274t-252 -105zM207 1206q0 -119 54.5 -187.5t152.5 -68.5t152.5 68.5t54.5 187.5t-55 188.5t-152 69.5t-152 -69.5t-55 -188.5z" />
    <glyph glyph-name="guillemotright" unicode="&#xbb;" horiz-adv-x="1003" 
d="M641 61h-199l275 502l-275 500h199l266 -500zM90 61l275 502l-275 500h199l266 -500l-266 -502h-199z" />
    <glyph glyph-name="onequarter" unicode="&#xbc;" horiz-adv-x="1478" 
d="M1141 -10l2 192h-381v119l342 485h164v-469h135v-135h-135v-192h-127zM68 1270v162q112 42 161 129h119v-797h-129v436q0 98 2 141h-10q-57 -47 -143 -71zM193 -10l745 1571h162l-744 -1569zM928 317h217v158q0 88 4 154h-8q-65 -112 -105 -166z" />
    <glyph glyph-name="onehalf" unicode="&#xbd;" horiz-adv-x="1488" 
d="M172 -10l746 1571h161l-743 -1569zM68 1270v162q112 42 161 129h119v-797h-129v436q0 98 2 141h-10q-57 -47 -143 -71zM850 510q3 132 77 214.5t208 82.5q115 0 183 -64t68 -176q0 -85 -37 -143.5t-126 -110.5l-54 -30q-74 -43 -110 -74.5t-53 -71.5h389v-147h-543
q-3 153 51.5 248.5t179.5 162.5l68 37q61 33 83.5 61t22.5 66q0 49 -30.5 77t-89.5 28q-78 0 -115 -38t-43 -122h-129z" />
    <glyph glyph-name="threequarters" unicode="&#xbe;" horiz-adv-x="1603" 
d="M227 1040q4 -85 43 -123t117 -38q64 0 100.5 34.5t36.5 90.5q0 58 -44 94.5t-120 36.5h-59v133h55q70 0 107 21t37 71q0 40 -32.5 65t-92.5 25q-143 0 -146 -139h-135q2 129 75 199.5t210 70.5q115 0 182.5 -56.5t67.5 -152.5q0 -115 -101 -166q60 -26 93.5 -83.5
t33.5 -133.5q0 -117 -76 -181.5t-198 -64.5q-139 0 -214 77.5t-75 219.5h135zM299 -10l745 1571h162l-743 -1569zM887 182v119l342 485h164v-469h135v-135h-135v-192h-127l2 192h-381zM1053 317h217v158q0 88 4 154h-8q-65 -112 -105 -166z" />
    <glyph glyph-name="questiondown" unicode="&#xbf;" horiz-adv-x="1138" 
d="M666 737q1 -54 -6 -101.5t-16.5 -83.5t-29.5 -73t-36 -60.5t-45.5 -55t-47 -48t-51.5 -47.5q-42 -39 -62 -59.5t-47 -54.5t-38 -67t-11 -71q0 -109 76.5 -168t202.5 -59q163 0 238 91t88 261h200q-9 -252 -143.5 -394t-394.5 -142q-211 0 -343 107t-132 296
q0 53 12.5 101t28.5 80.5t47.5 70t51.5 56.5t58 53q32 29 45 41t40.5 40t40 46t31 48t27 56.5t14.5 62.5t5 74h197zM453 877v260h215v-260h-215z" />
    <glyph glyph-name="Agrave" unicode="&#xc0;" horiz-adv-x="1449" 
d="M23 -10l571 1571h262l571 -1571h-210l-168 465h-648l-168 -465h-210zM410 1985h231l150 -326h-121zM469 645h512l-195 539q-36 99 -55 166h-12q-19 -67 -55 -166z" />
    <glyph glyph-name="Aacute" unicode="&#xc1;" horiz-adv-x="1449" 
d="M23 -10l571 1571h262l571 -1571h-210l-168 465h-648l-168 -465h-210zM469 645h512l-195 539q-36 99 -55 166h-12q-19 -67 -55 -166zM659 1659l150 326h231l-260 -326h-121z" />
    <glyph glyph-name="Acircumflex" unicode="&#xc2;" horiz-adv-x="1449" 
d="M23 -10l571 1571h262l571 -1571h-210l-168 465h-648l-168 -465h-210zM449 1659l196 326h160l196 -326h-133l-141 180l-145 -180h-133zM469 645h512l-195 539q-36 99 -55 166h-12q-19 -67 -55 -166z" />
    <glyph glyph-name="Atilde" unicode="&#xc3;" horiz-adv-x="1449" 
d="M23 -10l571 1571h262l571 -1571h-210l-168 465h-648l-168 -465h-210zM416 1671q-3 108 50.5 177t147.5 69q57 0 134 -53q57 -37 94 -37q41 0 68 26t24 64h100q3 -109 -48 -179.5t-134 -70.5q-61 0 -137 49q-4 2 -16.5 8.5t-17.5 9t-16 7.5t-18.5 7t-18 3.5t-20.5 1.5
q-42 0 -68.5 -25t-23.5 -57h-100zM469 645h512l-195 539q-36 99 -55 166h-12q-19 -67 -55 -166z" />
    <glyph glyph-name="Adieresis" unicode="&#xc4;" horiz-adv-x="1449" 
d="M23 -10l571 1571h262l571 -1571h-210l-168 465h-648l-168 -465h-210zM467 1704v235h188v-235h-188zM469 645h512l-195 539q-36 99 -55 166h-12q-19 -67 -55 -166zM793 1704v235h188v-235h-188z" />
    <glyph glyph-name="Aring" unicode="&#xc5;" horiz-adv-x="1449" 
d="M23 -10l571 1571h262l571 -1571h-210l-168 465h-648l-168 -465h-210zM469 645h512l-195 539q-36 99 -55 166h-12q-19 -67 -55 -166zM520 1860q0 87 62 149t147 62q80 0 140.5 -62t60.5 -149q0 -91 -60 -155.5t-141 -64.5q-85 0 -147 64t-62 156zM639 1858
q0 -31 25.5 -54.5t62.5 -23.5q36 0 62 23.5t26 54.5q0 30 -26 53.5t-62 23.5q-38 0 -63 -23t-25 -54z" />
    <glyph glyph-name="AE" unicode="&#xc6;" horiz-adv-x="1998" 
d="M23 -10v35l765 1536h1119v-191h-783l62 -457h700v-184h-672l72 -549h641v-190h-811l-67 473h-584l-232 -473h-210zM553 645h471l-100 739h-11z" />
    <glyph glyph-name="Ccedilla" unicode="&#xc7;" horiz-adv-x="1615" 
d="M729 -276q61 -37 129 -37q78 0 78 53q0 28 -27.5 51t-97.5 47l-74 27l82 98q-320 10 -510 215q-95 99 -147.5 249.5t-52.5 340.5q0 202 60.5 361t165 257.5t237.5 149.5t286 51q133 0 233 -28t195 -95q96 -68 160.5 -178t85.5 -254h-215q-27 166 -146 273
q-63 57 -139 78.5t-176 21.5q-110 -1 -199 -34.5t-150 -91.5t-101.5 -139t-59 -173.5t-18.5 -198.5q0 -130 31.5 -240.5t93.5 -197t165.5 -136t237.5 -49.5q208 0 328.5 112.5t148.5 299.5h213q-14 -132 -64.5 -239t-129.5 -178.5t-178.5 -114.5t-215.5 -56l-47 -47
q78 -21 118 -70t40 -108q0 -81 -57 -131.5t-144 -50.5q-71 0 -139 41v121z" />
    <glyph glyph-name="Egrave" unicode="&#xc8;" horiz-adv-x="1228" 
d="M150 -10v1571h987v-197h-781v-451h760v-190l-760 2v-539h801v-196h-1007zM336 1985h231l150 -326h-121z" />
    <glyph glyph-name="Eacute" unicode="&#xc9;" horiz-adv-x="1228" 
d="M150 -10v1571h987v-197h-781v-451h760v-190l-760 2v-539h801v-196h-1007zM586 1659l149 326h232l-260 -326h-121z" />
    <glyph glyph-name="Ecircumflex" unicode="&#xca;" horiz-adv-x="1228" 
d="M150 -10v1571h987v-197h-781v-451h760v-190l-760 2v-539h801v-196h-1007zM375 1659l196 326h160l197 -326h-133l-142 180l-145 -180h-133z" />
    <glyph glyph-name="Edieresis" unicode="&#xcb;" horiz-adv-x="1228" 
d="M150 -10v1571h987v-197h-781v-451h760v-190l-760 2v-539h801v-196h-1007zM393 1704v235h189v-235h-189zM719 1704v235h188v-235h-188z" />
    <glyph glyph-name="Igrave" unicode="&#xcc;" horiz-adv-x="505" 
d="M150 -10v1571h206v-1571h-206zM-61 1985h231l149 -326h-120z" />
    <glyph glyph-name="Iacute" unicode="&#xcd;" horiz-adv-x="505" 
d="M150 -10v1571h206v-1571h-206zM188 1659l150 326h231l-260 -326h-121z" />
    <glyph glyph-name="Icircumflex" unicode="&#xce;" horiz-adv-x="505" 
d="M150 -10v1571h206v-1571h-206zM-23 1659l197 326h160l196 -326h-133l-141 180l-145 -180h-134z" />
    <glyph glyph-name="Idieresis" unicode="&#xcf;" horiz-adv-x="505" 
d="M319 1704v235h168v-235h-168zM18 1704v235h168v-235h-168zM150 -10v1571h206v-1571h-206z" />
    <glyph glyph-name="Eth" unicode="&#xd0;" horiz-adv-x="1570" 
d="M2 727v182h148v652h466q267 0 428 -62q201 -81 309.5 -264.5t108.5 -460.5q0 -287 -123 -473.5t-348 -263.5q-149 -47 -375 -47h-466v737h-148zM354 176h316q266 0 422.5 150t156.5 432q0 246 -101.5 398t-279.5 196q-90 22 -260 22h-254v-465h443v-182h-443v-551z" />
    <glyph glyph-name="Ntilde" unicode="&#xd1;" horiz-adv-x="1581" 
d="M150 -10v1571h239l840 -1274h12q-14 158 -14 471v803h205v-1571h-236l-844 1278h-12q14 -264 14 -615v-663h-204zM481 1671q-3 108 51 177t148 69q56 0 133 -53q57 -37 94 -37q41 0 68 26t24 64h101q3 -109 -48 -179.5t-134 -70.5q-62 0 -138 49q-3 2 -19 10.5t-22 11
t-18.5 7.5t-23.5 6.5t-23 1.5q-42 0 -68.5 -25t-23.5 -57h-101z" />
    <glyph glyph-name="Ograve" unicode="&#xd2;" horiz-adv-x="1712" 
d="M856 -37q-157 0 -291 50t-236.5 147t-161 253t-58.5 355q0 202 58.5 361t161 257.5t236.5 149.5t291 51q126 0 237 -31.5t205 -97.5t162 -161.5t106 -230.5t38 -298q0 -160 -38 -292.5t-106 -226.5t-162 -159t-205 -96t-237 -31zM328 768q0 -102 18.5 -192.5t59.5 -169
t101 -135t148.5 -89t196.5 -32.5q136 0 240.5 48.5t167 134.5t93.5 195.5t31 239.5q0 105 -18 197t-58.5 173t-101 139t-150 91t-200.5 33t-200.5 -33t-150 -91t-101 -139t-58.5 -173t-18 -197zM541 1985h231l150 -326h-121z" />
    <glyph glyph-name="Oacute" unicode="&#xd3;" horiz-adv-x="1712" 
d="M856 -37q-157 0 -291 50t-236.5 147t-161 253t-58.5 355q0 202 58.5 361t161 257.5t236.5 149.5t291 51q126 0 237 -31.5t205 -97.5t162 -161.5t106 -230.5t38 -298q0 -160 -38 -292.5t-106 -226.5t-162 -159t-205 -96t-237 -31zM328 768q0 -102 18.5 -192.5t59.5 -169
t101 -135t148.5 -89t196.5 -32.5q136 0 240.5 48.5t167 134.5t93.5 195.5t31 239.5q0 105 -18 197t-58.5 173t-101 139t-150 91t-200.5 33t-200.5 -33t-150 -91t-101 -139t-58.5 -173t-18 -197zM791 1659l149 326h231l-260 -326h-120z" />
    <glyph glyph-name="Ocircumflex" unicode="&#xd4;" horiz-adv-x="1712" 
d="M856 -37q-157 0 -291 50t-236.5 147t-161 253t-58.5 355q0 202 58.5 361t161 257.5t236.5 149.5t291 51q126 0 237 -31.5t205 -97.5t162 -161.5t106 -230.5t38 -298q0 -160 -38 -292.5t-106 -226.5t-162 -159t-205 -96t-237 -31zM328 768q0 -102 18.5 -192.5t59.5 -169
t101 -135t148.5 -89t196.5 -32.5q136 0 240.5 48.5t167 134.5t93.5 195.5t31 239.5q0 105 -18 197t-58.5 173t-101 139t-150 91t-200.5 33t-200.5 -33t-150 -91t-101 -139t-58.5 -173t-18 -197zM580 1659l196 326h160l197 -326h-134l-141 180l-145 -180h-133z" />
    <glyph glyph-name="Otilde" unicode="&#xd5;" horiz-adv-x="1712" 
d="M856 -37q-157 0 -291 50t-236.5 147t-161 253t-58.5 355q0 202 58.5 361t161 257.5t236.5 149.5t291 51q126 0 237 -31.5t205 -97.5t162 -161.5t106 -230.5t38 -298q0 -160 -38 -292.5t-106 -226.5t-162 -159t-205 -96t-237 -31zM328 768q0 -102 18.5 -192.5t59.5 -169
t101 -135t148.5 -89t196.5 -32.5q136 0 240.5 48.5t167 134.5t93.5 195.5t31 239.5q0 105 -18 197t-58.5 173t-101 139t-150 91t-200.5 33t-200.5 -33t-150 -91t-101 -139t-58.5 -173t-18 -197zM547 1671q-3 108 50.5 177t147.5 69q57 0 134 -53q57 -37 94 -37q41 0 68 26
t24 64h100q3 -109 -48 -179.5t-134 -70.5q-61 0 -137 49q-4 2 -16.5 8.5t-17.5 9t-16 7.5t-18.5 7t-18 3.5t-20.5 1.5q-42 0 -68.5 -25t-23.5 -57h-100z" />
    <glyph glyph-name="Odieresis" unicode="&#xd6;" horiz-adv-x="1712" 
d="M856 -37q-157 0 -291 50t-236.5 147t-161 253t-58.5 355q0 202 58.5 361t161 257.5t236.5 149.5t291 51q126 0 237 -31.5t205 -97.5t162 -161.5t106 -230.5t38 -298q0 -160 -38 -292.5t-106 -226.5t-162 -159t-205 -96t-237 -31zM328 768q0 -102 18.5 -192.5t59.5 -169
t101 -135t148.5 -89t196.5 -32.5q136 0 240.5 48.5t167 134.5t93.5 195.5t31 239.5q0 105 -18 197t-58.5 173t-101 139t-150 91t-200.5 33t-200.5 -33t-150 -91t-101 -139t-58.5 -173t-18 -197zM598 1704v235h188v-235h-188zM924 1704v235h188v-235h-188z" />
    <glyph glyph-name="multiply" unicode="&#xd7;" 
d="M291 158l-117 116l336 330l-336 330l117 117l330 -336l329 336l117 -117l-336 -330l336 -330l-117 -116l-329 336z" />
    <glyph glyph-name="Oslash" unicode="&#xd8;" horiz-adv-x="1728" 
d="M307 190q-190 209 -190 578q0 202 58.5 361t161 257.5t236.5 149.5t291 51q241 0 430 -121l125 166l133 -100l-133 -174q92 -99 142.5 -249.5t50.5 -340.5q0 -160 -38 -292.5t-106 -226.5t-162 -159t-205 -96t-237 -31q-243 0 -432 121l-127 -166l-127 100zM328 768
q0 -235 110 -412l736 955q-130 94 -310 94q-112 0 -202.5 -33.5t-152 -91.5t-103 -139.5t-60 -174t-18.5 -198.5zM553 238q130 -93 307 -93q110 0 200.5 32.5t153 89t105 135.5t62.5 170.5t20 195.5q0 239 -113 424z" />
    <glyph glyph-name="Ugrave" unicode="&#xd9;" horiz-adv-x="1495" 
d="M741 -39q-113 0 -203.5 18.5t-151 47.5t-105.5 72.5t-69.5 86.5t-39 98t-18.5 97.5t-4 93.5v1081h206v-1060q0 -58 6 -101.5t29 -93t62 -81.5t110.5 -53.5t169.5 -21.5q96 0 167.5 12t114.5 39t69.5 54t37.5 74.5t14 80.5t3 91v1060h207v-1081q-1 -54 -7 -101t-23 -101
t-44.5 -97t-74 -84.5t-108 -69t-150.5 -44.5t-198 -17zM479 1985h232l149 -326h-121z" />
    <glyph glyph-name="Uacute" unicode="&#xda;" horiz-adv-x="1495" 
d="M741 -39q-113 0 -203.5 18.5t-151 47.5t-105.5 72.5t-69.5 86.5t-39 98t-18.5 97.5t-4 93.5v1081h206v-1060q0 -58 6 -101.5t29 -93t62 -81.5t110.5 -53.5t169.5 -21.5q96 0 167.5 12t114.5 39t69.5 54t37.5 74.5t14 80.5t3 91v1060h207v-1081q-1 -54 -7 -101t-23 -101
t-44.5 -97t-74 -84.5t-108 -69t-150.5 -44.5t-198 -17zM643 1659l150 326h231l-260 -326h-121z" />
    <glyph glyph-name="Ucircumflex" unicode="&#xdb;" horiz-adv-x="1495" 
d="M741 -39q-113 0 -203.5 18.5t-151 47.5t-105.5 72.5t-69.5 86.5t-39 98t-18.5 97.5t-4 93.5v1081h206v-1060q0 -58 6 -101.5t29 -93t62 -81.5t110.5 -53.5t169.5 -21.5q96 0 167.5 12t114.5 39t69.5 54t37.5 74.5t14 80.5t3 91v1060h207v-1081q-1 -54 -7 -101t-23 -101
t-44.5 -97t-74 -84.5t-108 -69t-150.5 -44.5t-198 -17zM471 1659l197 326h159l197 -326h-133l-141 180l-146 -180h-133z" />
    <glyph glyph-name="Udieresis" unicode="&#xdc;" horiz-adv-x="1495" 
d="M741 -39q-113 0 -203.5 18.5t-151 47.5t-105.5 72.5t-69.5 86.5t-39 98t-18.5 97.5t-4 93.5v1081h206v-1060q0 -58 6 -101.5t29 -93t62 -81.5t110.5 -53.5t169.5 -21.5q96 0 167.5 12t114.5 39t69.5 54t37.5 74.5t14 80.5t3 91v1060h207v-1081q-1 -54 -7 -101t-23 -101
t-44.5 -97t-74 -84.5t-108 -69t-150.5 -44.5t-198 -17zM489 1704v235h189v-235h-189zM815 1704v235h189v-235h-189z" />
    <glyph glyph-name="Yacute" unicode="&#xdd;" horiz-adv-x="1308" 
d="M6 1538v23h232l323 -639q29 -56 58 -115.5t38 -77.5h11q79 168 108 225l305 607h222v-23l-545 -1016v-532h-207v532zM575 1659l150 326h231l-260 -326h-121z" />
    <glyph glyph-name="Thorn" unicode="&#xde;" horiz-adv-x="1349" 
d="M150 -10v1571h206v-269h318q215 0 330 -43q126 -50 197 -165t71 -275q0 -167 -70 -283t-194 -164q-118 -45 -355 -45h-295l-2 -327h-206zM358 500h304q140 0 210 20q185 51 185 285q0 229 -191 282q-74 21 -184 21h-324v-608z" />
    <glyph glyph-name="germandbls" unicode="&#xdf;" horiz-adv-x="1216" 
d="M131 1165q0 92 25.5 166.5t79 133t145 90.5t215.5 32q184 0 287.5 -86t103.5 -237q0 -110 -51.5 -183.5t-138.5 -107.5q72 -23 131 -63t107.5 -99.5t76 -146.5t27.5 -193q0 -232 -135 -364t-371 -132q-76 0 -184 19v166q85 -10 133 -10q368 0 368 335q0 186 -122 289.5
t-343 102.5v155q157 0 236.5 51.5t79.5 165.5q0 79 -59 124.5t-156 45.5q-144 0 -206.5 -72.5t-62.5 -226.5v-1130h-186v1175z" />
    <glyph glyph-name="agrave" unicode="&#xe0;" horiz-adv-x="1157" 
d="M90 317q0 81 29.5 142t87 101t129.5 65t170 41q202 33 358 53l-2 41q-5 156 -139 209q-54 22 -127 22q-254 0 -295 -209h-188q9 79 42 146.5t90 120.5t146 83.5t201 30.5q216 0 334 -101t118 -304v-768h-180v151h-8q-57 -90 -153.5 -134t-206.5 -44q-77 0 -148.5 22
t-129.5 64.5t-93 111.5t-35 156zM266 1561h232l149 -326h-121zM295 317q0 -86 61.5 -140t169.5 -54q100 0 196.5 60t129.5 161q16 61 14 133l-2 94q-143 -21 -346 -65q-128 -26 -175.5 -73.5t-47.5 -115.5z" />
    <glyph glyph-name="aacute" unicode="&#xe1;" horiz-adv-x="1157" 
d="M90 317q0 81 29.5 142t87 101t129.5 65t170 41q202 33 358 53l-2 41q-5 156 -139 209q-54 22 -127 22q-254 0 -295 -209h-188q9 79 42 146.5t90 120.5t146 83.5t201 30.5q216 0 334 -101t118 -304v-768h-180v151h-8q-57 -90 -153.5 -134t-206.5 -44q-77 0 -148.5 22
t-129.5 64.5t-93 111.5t-35 156zM295 317q0 -86 61.5 -140t169.5 -54q100 0 196.5 60t129.5 161q16 61 14 133l-2 94q-143 -21 -346 -65q-128 -26 -175.5 -73.5t-47.5 -115.5zM516 1235l150 326h231l-260 -326h-121z" />
    <glyph glyph-name="acircumflex" unicode="&#xe2;" horiz-adv-x="1157" 
d="M90 317q0 81 29.5 142t87 101t129.5 65t170 41q202 33 358 53l-2 41q-5 156 -139 209q-54 22 -127 22q-254 0 -295 -209h-188q9 79 42 146.5t90 120.5t146 83.5t201 30.5q216 0 334 -101t118 -304v-768h-180v151h-8q-57 -90 -153.5 -134t-206.5 -44q-77 0 -148.5 22
t-129.5 64.5t-93 111.5t-35 156zM295 317q0 -86 61.5 -140t169.5 -54q100 0 196.5 60t129.5 161q16 61 14 133l-2 94q-143 -21 -346 -65q-128 -26 -175.5 -73.5t-47.5 -115.5zM305 1235l197 326h160l196 -326h-133l-141 180l-146 -180h-133z" />
    <glyph glyph-name="atilde" unicode="&#xe3;" horiz-adv-x="1157" 
d="M90 317q0 81 29.5 142t87 101t129.5 65t170 41q202 33 358 53l-2 41q-5 156 -139 209q-54 22 -127 22q-254 0 -295 -209h-188q9 79 42 146.5t90 120.5t146 83.5t201 30.5q216 0 334 -101t118 -304v-768h-180v151h-8q-57 -90 -153.5 -134t-206.5 -44q-77 0 -148.5 22
t-129.5 64.5t-93 111.5t-35 156zM272 1247q-3 108 51 177t148 69q56 0 133 -53q57 -37 94 -37q42 0 69 26t24 64h100q3 -109 -48 -179.5t-134 -70.5q-62 0 -138 49q-3 2 -19 10.5t-22 11t-18.5 7.5t-23.5 6.5t-23 1.5q-42 0 -68.5 -25t-23.5 -57h-101zM295 317
q0 -86 61.5 -140t169.5 -54q100 0 196.5 60t129.5 161q16 61 14 133l-2 94q-143 -21 -346 -65q-128 -26 -175.5 -73.5t-47.5 -115.5z" />
    <glyph glyph-name="adieresis" unicode="&#xe4;" horiz-adv-x="1157" 
d="M90 317q0 81 29.5 142t87 101t129.5 65t170 41q202 33 358 53l-2 41q-5 156 -139 209q-54 22 -127 22q-254 0 -295 -209h-188q9 79 42 146.5t90 120.5t146 83.5t201 30.5q216 0 334 -101t118 -304v-768h-180v151h-8q-57 -90 -153.5 -134t-206.5 -44q-77 0 -148.5 22
t-129.5 64.5t-93 111.5t-35 156zM295 317q0 -86 61.5 -140t169.5 -54q100 0 196.5 60t129.5 161q16 61 14 133l-2 94q-143 -21 -346 -65q-128 -26 -175.5 -73.5t-47.5 -115.5zM324 1280v236h188v-236h-188zM649 1280v236h189v-236h-189z" />
    <glyph glyph-name="aring" unicode="&#xe5;" horiz-adv-x="1157" 
d="M90 317q0 81 29.5 142t87 101t129.5 65t170 41q202 33 358 53l-2 41q-5 156 -139 209q-54 22 -127 22q-254 0 -295 -209h-188q9 79 42 146.5t90 120.5t146 83.5t201 30.5q216 0 334 -101t118 -304v-768h-180v151h-8q-57 -90 -153.5 -134t-206.5 -44q-77 0 -148.5 22
t-129.5 64.5t-93 111.5t-35 156zM295 317q0 -86 61.5 -140t169.5 -54q100 0 196.5 60t129.5 161q16 61 14 133l-2 94q-143 -21 -346 -65q-128 -26 -175.5 -73.5t-47.5 -115.5zM377 1436q0 87 62 149t147 62q80 0 140 -62t60 -149q0 -91 -59.5 -155t-140.5 -64
q-86 0 -147.5 64t-61.5 155zM496 1434q0 -31 25.5 -54.5t62.5 -23.5q36 0 62 23.5t26 54.5q0 30 -26 53.5t-62 23.5q-38 0 -63 -23t-25 -54z" />
    <glyph glyph-name="ae" unicode="&#xe6;" horiz-adv-x="1966" 
d="M90 301q0 74 19 130.5t52 94t87 64.5t113 43t141 29q27 4 54.5 8t55.5 8t41 6q6 1 133 23q47 8 61.5 19.5t14.5 31.5v22q0 99 -66 155t-198 56q-142 0 -210.5 -49.5t-92.5 -159.5h-176q19 190 142.5 285.5t342.5 95.5q145 0 237.5 -46.5t143.5 -143.5q150 190 404 190
q239 0 369 -164t126 -462h-842q2 -84 24.5 -157t64.5 -131t109 -91t153 -33q127 0 211.5 74t99.5 190h184q-21 -193 -152.5 -310.5t-342.5 -117.5q-156 0 -270.5 66.5t-168.5 187.5h-10q-75 -123 -183 -186.5t-284 -63.5q-170 0 -278.5 91t-108.5 245zM283 309
q0 -83 64.5 -132.5t172.5 -49.5q151 0 247.5 90.5t96.5 231.5v135q-6 -5 -13 -9t-12.5 -7t-15.5 -6t-15 -5t-17.5 -5t-16 -3.5t-18.5 -4t-17 -3.5l-237 -45q-219 -42 -219 -187zM1053 696h651q-20 148 -103 226.5t-204 78.5q-138 0 -228 -77.5t-116 -227.5z" />
    <glyph glyph-name="ccedilla" unicode="&#xe7;" horiz-adv-x="1185" 
d="M1116 397q-24 -187 -132.5 -296.5t-283.5 -133.5l-45 -45q78 -21 118 -70t40 -108q0 -81 -57 -131.5t-144 -50.5q-71 0 -139 41v121q61 -37 129 -37q78 0 78 53q0 28 -27.5 51t-97.5 47l-74 27l84 100q-223 19 -355 184t-132 414q0 269 151 434.5t398 165.5q69 0 125 -10
q147 -29 237.5 -132t110.5 -269h-191q-37 189 -207 233q-27 6 -81 6q-164 0 -254.5 -118t-90.5 -310t92.5 -310t258.5 -118q125 0 200 69t97 193h192z" />
    <glyph glyph-name="egrave" unicode="&#xe8;" horiz-adv-x="1222" 
d="M1143 397q-27 -209 -164 -321.5t-352 -112.5q-248 0 -398.5 169t-150.5 431q0 178 73 320t201 213q119 67 271 67q88 0 127 -6q94 -17 190 -84q97 -70 152.5 -205t52.5 -331h-871q-3 -17 0 -43q6 -70 27 -132q39 -105 125.5 -165t210.5 -60q189 0 268 135q32 51 49 125
h189zM285 702h663q-12 124 -82 203t-184 92q-23 2 -53 2q-127 0 -215 -69t-121 -185q-4 -20 -4 -26zM311 1561h232l149 -326h-121z" />
    <glyph glyph-name="eacute" unicode="&#xe9;" horiz-adv-x="1222" 
d="M1143 397q-27 -209 -164 -321.5t-352 -112.5q-248 0 -398.5 169t-150.5 431q0 178 73 320t201 213q119 67 271 67q88 0 127 -6q94 -17 190 -84q97 -70 152.5 -205t52.5 -331h-871q-3 -17 0 -43q6 -70 27 -132q39 -105 125.5 -165t210.5 -60q189 0 268 135q32 51 49 125
h189zM285 702h663q-12 124 -82 203t-184 92q-23 2 -53 2q-127 0 -215 -69t-121 -185q-4 -20 -4 -26zM561 1235l150 326h231l-260 -326h-121z" />
    <glyph glyph-name="ecircumflex" unicode="&#xea;" horiz-adv-x="1222" 
d="M1143 397q-27 -209 -164 -321.5t-352 -112.5q-248 0 -398.5 169t-150.5 431q0 178 73 320t201 213q119 67 271 67q88 0 127 -6q94 -17 190 -84q97 -70 152.5 -205t52.5 -331h-871q-3 -17 0 -43q6 -70 27 -132q39 -105 125.5 -165t210.5 -60q189 0 268 135q32 51 49 125
h189zM285 702h663q-12 124 -82 203t-184 92q-23 2 -53 2q-127 0 -215 -69t-121 -185q-4 -20 -4 -26zM350 1235l197 326h160l196 -326h-133l-141 180l-146 -180h-133z" />
    <glyph glyph-name="edieresis" unicode="&#xeb;" horiz-adv-x="1222" 
d="M1143 397q-27 -209 -164 -321.5t-352 -112.5q-248 0 -398.5 169t-150.5 431q0 178 73 320t201 213q119 67 271 67q88 0 127 -6q94 -17 190 -84q97 -70 152.5 -205t52.5 -331h-871q-3 -17 0 -43q6 -70 27 -132q39 -105 125.5 -165t210.5 -60q189 0 268 135q32 51 49 125
h189zM285 702h663q-12 124 -82 203t-184 92q-23 2 -53 2q-127 0 -215 -69t-121 -185q-4 -20 -4 -26zM369 1280v236h188v-236h-188zM694 1280v236h189v-236h-189z" />
    <glyph glyph-name="igrave" unicode="&#xec;" horiz-adv-x="456" 
d="M131 -10v1147h195v-1147h-195zM-86 1561h231l150 -326h-121z" />
    <glyph glyph-name="iacute" unicode="&#xed;" horiz-adv-x="456" 
d="M131 -10v1147h195v-1147h-195zM164 1235l149 326h232l-260 -326h-121z" />
    <glyph glyph-name="icircumflex" unicode="&#xee;" horiz-adv-x="456" 
d="M131 -10v1147h195v-1147h-195zM-47 1235l197 326h159l197 -326h-133l-142 180l-145 -180h-133z" />
    <glyph glyph-name="idieresis" unicode="&#xef;" horiz-adv-x="509" 
d="M158 -10v1147h194v-1147h-194zM10 1280v236h178v-236h-178zM322 1280v236h178v-236h-178z" />
    <glyph glyph-name="eth" unicode="&#xf0;" horiz-adv-x="1226" 
d="M336 1573l176 -45l143 188l103 -78l-121 -157q256 -117 379 -336t123 -561q0 -298 -133.5 -459.5t-384.5 -161.5q-250 0 -396.5 158t-146.5 420q0 259 141.5 416t374.5 157q117 0 205.5 -41t134.5 -125h6q-32 121 -147.5 236t-257.5 157l-144 -190l-104 76l119 159
l-58 17q-32 8 -57 16zM276 539q0 -192 90.5 -305t247.5 -113q164 0 250 103.5t86 314.5q0 204 -86 310.5t-250 106.5q-159 0 -248.5 -112t-89.5 -305z" />
    <glyph glyph-name="ntilde" unicode="&#xf1;" horiz-adv-x="1179" 
d="M129 -10v1147h186v-195h11q118 221 362 221q119 0 210.5 -55.5t137.5 -167.5q31 -76 31 -215v-735h-195v721q0 112 -20 163q-20 49 -68 80t-118 31q-147 0 -242 -113q-70 -82 -85 -145t-15 -209v-528h-195zM291 1247q-3 108 50.5 177t147.5 69q57 0 134 -53
q57 -37 94 -37q41 0 68 26t24 64h100q3 -109 -48 -179.5t-134 -70.5q-61 0 -137 49q-4 2 -16.5 8.5t-17.5 9t-16 7.5t-18.5 7t-18 3.5t-20.5 1.5q-42 0 -68.5 -25t-23.5 -57h-100z" />
    <glyph glyph-name="ograve" unicode="&#xf2;" horiz-adv-x="1249" 
d="M625 -37q-164 0 -289 78t-191.5 214t-66.5 308t66.5 308t191.5 214t289 78t289 -78.5t191 -214t66 -307.5t-66 -307.5t-191 -214t-289 -78.5zM283 563q0 -193 88.5 -310.5t253.5 -117.5t253.5 117.5t88.5 310.5q0 192 -88.5 310t-253.5 118t-253.5 -118t-88.5 -310z
M309 1561h232l149 -326h-121z" />
    <glyph glyph-name="oacute" unicode="&#xf3;" horiz-adv-x="1249" 
d="M625 -37q-164 0 -289 78t-191.5 214t-66.5 308t66.5 308t191.5 214t289 78t289 -78.5t191 -214t66 -307.5t-66 -307.5t-191 -214t-289 -78.5zM283 563q0 -193 88.5 -310.5t253.5 -117.5t253.5 117.5t88.5 310.5q0 192 -88.5 310t-253.5 118t-253.5 -118t-88.5 -310z
M559 1235l150 326h231l-260 -326h-121z" />
    <glyph glyph-name="ocircumflex" unicode="&#xf4;" horiz-adv-x="1249" 
d="M625 -37q-164 0 -289 78t-191.5 214t-66.5 308t66.5 308t191.5 214t289 78t289 -78.5t191 -214t66 -307.5t-66 -307.5t-191 -214t-289 -78.5zM283 563q0 -193 88.5 -310.5t253.5 -117.5t253.5 117.5t88.5 310.5q0 192 -88.5 310t-253.5 118t-253.5 -118t-88.5 -310z
M348 1235l197 326h160l196 -326h-133l-141 180l-146 -180h-133z" />
    <glyph glyph-name="otilde" unicode="&#xf5;" horiz-adv-x="1249" 
d="M625 -37q-164 0 -289 78t-191.5 214t-66.5 308t66.5 308t191.5 214t289 78t289 -78.5t191 -214t66 -307.5t-66 -307.5t-191 -214t-289 -78.5zM283 563q0 -193 88.5 -310.5t253.5 -117.5t253.5 117.5t88.5 310.5q0 192 -88.5 310t-253.5 118t-253.5 -118t-88.5 -310z
M315 1247q-3 108 51 177t148 69q56 0 133 -53q57 -37 94 -37q42 0 69 26t24 64h100q3 -109 -48 -179.5t-134 -70.5q-62 0 -138 49q-3 2 -19 10.5t-22 11t-18.5 7.5t-23.5 6.5t-23 1.5q-42 0 -68.5 -25t-23.5 -57h-101z" />
    <glyph glyph-name="odieresis" unicode="&#xf6;" horiz-adv-x="1249" 
d="M625 -37q-164 0 -289 78t-191.5 214t-66.5 308t66.5 308t191.5 214t289 78t289 -78.5t191 -214t66 -307.5t-66 -307.5t-191 -214t-289 -78.5zM283 563q0 -193 88.5 -310.5t253.5 -117.5t253.5 117.5t88.5 310.5q0 192 -88.5 310t-253.5 118t-253.5 -118t-88.5 -310z
M367 1280v236h188v-236h-188zM692 1280v236h189v-236h-189z" />
    <glyph glyph-name="divide" unicode="&#xf7;" 
d="M520 70v260h201v-260h-201zM109 516v176h1024v-176h-1024zM520 879v260h201v-260h-201z" />
    <glyph glyph-name="oslash" unicode="&#xf8;" horiz-adv-x="1261" 
d="M215 154q-131 159 -131 409q0 172 66.5 308t191.5 214t289 78q169 0 311 -92l107 135l116 -92l-116 -145q129 -164 129 -406q0 -172 -66.5 -308t-191.5 -214t-289 -78q-175 0 -309 90l-105 -135l-123 88zM287 563q0 -148 53 -254l491 621q-79 63 -200 63
q-165 0 -254.5 -119t-89.5 -311zM434 193q79 -62 197 -62q165 0 254.5 119.5t89.5 312.5q0 144 -51 246z" />
    <glyph glyph-name="ugrave" unicode="&#xf9;" horiz-adv-x="1179" 
d="M1051 1137v-1147h-187v194h-10q-118 -221 -362 -221q-119 0 -211 55.5t-138 167.5q-30 74 -30 215v736h194v-721q0 -110 21 -164q20 -49 68 -80t118 -31q147 0 242 113q70 82 85 145t15 209v529h195zM260 1561h232l149 -326h-121z" />
    <glyph glyph-name="uacute" unicode="&#xfa;" horiz-adv-x="1218" 
d="M1051 1137v-1147h-187v194h-10q-118 -221 -362 -221q-119 0 -211 55.5t-138 167.5q-30 74 -30 215v736h194v-721q0 -110 21 -164q20 -49 68 -80t118 -31q147 0 242 113q70 82 85 145t15 209v529h195zM520 1235l150 326h231l-260 -326h-121z" />
    <glyph glyph-name="ucircumflex" unicode="&#xfb;" horiz-adv-x="1179" 
d="M1051 1137v-1147h-187v194h-10q-118 -221 -362 -221q-119 0 -211 55.5t-138 167.5q-30 74 -30 215v736h194v-721q0 -110 21 -164q20 -49 68 -80t118 -31q147 0 242 113q70 82 85 145t15 209v529h195zM299 1235l197 326h159l197 -326h-133l-141 180l-146 -180h-133z" />
    <glyph glyph-name="udieresis" unicode="&#xfc;" horiz-adv-x="1179" 
d="M1051 1137v-1147h-187v194h-10q-118 -221 -362 -221q-119 0 -211 55.5t-138 167.5q-30 74 -30 215v736h194v-721q0 -110 21 -164q20 -49 68 -80t118 -31q147 0 242 113q70 82 85 145t15 209v529h195zM317 1280v236h189v-236h-189zM643 1280v236h188v-236h-188z" />
    <glyph glyph-name="yacute" unicode="&#xfd;" horiz-adv-x="1110" 
d="M35 1116v21h201l337 -861l301 861h195v-23l-549 -1483h-190v23l139 389zM483 1235l150 326h231l-260 -326h-121z" />
    <glyph glyph-name="thorn" unicode="&#xfe;" horiz-adv-x="1253" 
d="M131 1561h193v-553h8q38 74 122.5 114.5t198.5 40.5q122 0 222 -49t165 -132t100.5 -191t35.5 -228t-35.5 -228t-100.5 -191t-165 -132t-222 -49q-110 0 -192.5 38.5t-122.5 107.5h-12v-478h-195v1930zM307 563q0 -110 12 -176q23 -124 101.5 -188t204.5 -64
q161 0 254.5 118.5t93.5 309.5t-93.5 309.5t-254.5 118.5q-126 0 -204.5 -64t-101.5 -188q-12 -66 -12 -176z" />
    <glyph glyph-name="ydieresis" unicode="&#xff;" horiz-adv-x="1110" 
d="M35 1116v21h201l337 -861l301 861h195v-23l-549 -1483h-190v23l139 389zM291 1280v236h188v-236h-188zM616 1280v236h189v-236h-189z" />
    <glyph glyph-name="Amacron" unicode="&#x100;" horiz-adv-x="1449" 
d="M23 -10l571 1571h262l571 -1571h-210l-168 465h-648l-168 -465h-210zM424 1704v168h602v-168h-602zM469 645h512l-195 539q-36 99 -55 166h-12q-19 -67 -55 -166z" />
    <glyph glyph-name="amacron" unicode="&#x101;" horiz-adv-x="1157" 
d="M90 317q0 81 29.5 142t87 101t129.5 65t170 41q202 33 358 53l-2 41q-5 156 -139 209q-54 22 -127 22q-254 0 -295 -209h-188q9 79 42 146.5t90 120.5t146 83.5t201 30.5q216 0 334 -101t118 -304v-768h-180v151h-8q-57 -90 -153.5 -134t-206.5 -44q-77 0 -148.5 22
t-129.5 64.5t-93 111.5t-35 156zM281 1280v168h602v-168h-602zM295 317q0 -86 61.5 -140t169.5 -54q100 0 196.5 60t129.5 161q16 61 14 133l-2 94q-143 -21 -346 -65q-128 -26 -175.5 -73.5t-47.5 -115.5z" />
    <glyph glyph-name="Abreve" unicode="&#x102;" horiz-adv-x="1449" 
d="M23 -10l571 1571h262l571 -1571h-210l-168 465h-648l-168 -465h-210zM416 1944h162q17 -152 145 -152q130 0 147 152h162q-13 -137 -95.5 -208t-211.5 -71q-130 0 -213 71t-96 208zM469 645h512l-195 539q-36 99 -55 166h-12q-19 -67 -55 -166z" />
    <glyph glyph-name="abreve" unicode="&#x103;" horiz-adv-x="1157" 
d="M90 317q0 81 29.5 142t87 101t129.5 65t170 41q202 33 358 53l-2 41q-5 156 -139 209q-54 22 -127 22q-254 0 -295 -209h-188q9 79 42 146.5t90 120.5t146 83.5t201 30.5q216 0 334 -101t118 -304v-768h-180v151h-8q-57 -90 -153.5 -134t-206.5 -44q-77 0 -148.5 22
t-129.5 64.5t-93 111.5t-35 156zM272 1520h162q17 -152 146 -152q130 0 147 152h162q-13 -137 -95.5 -208t-211.5 -71q-130 0 -213.5 71t-96.5 208zM295 317q0 -86 61.5 -140t169.5 -54q100 0 196.5 60t129.5 161q16 61 14 133l-2 94q-143 -21 -346 -65
q-128 -26 -175.5 -73.5t-47.5 -115.5z" />
    <glyph glyph-name="Aogonek" unicode="&#x104;" horiz-adv-x="1449" 
d="M23 -10l571 1571h262l565 -1551l15 -6l-11 -8l2 -6h-12l-74 -53q-86 -59 -86 -119q0 -36 22.5 -56t61.5 -20t80 18v-112q-64 -37 -123 -37q-78 0 -134 52t-56 138q0 109 106 197l-163 457h-648l-168 -465h-210zM469 645h512l-195 539q-36 99 -55 166h-12
q-19 -67 -55 -166z" />
    <glyph glyph-name="aogonek" unicode="&#x105;" horiz-adv-x="1157" 
d="M90 317q0 81 29.5 142t87 101t129.5 65t170 41q202 33 358 53l-2 41q-5 156 -139 209q-54 22 -127 22q-254 0 -295 -209h-188q9 79 42 146.5t90 120.5t146 83.5t201 30.5q216 0 334 -101t118 -304v-768h-2l-75 -53q-86 -59 -86 -119q0 -36 22.5 -56t61.5 -20t79 18v-112
q-64 -37 -122 -37q-79 0 -135 52t-56 138q0 124 133 215v125h-8q-57 -90 -153.5 -134t-206.5 -44q-77 0 -148.5 22t-129.5 64.5t-93 111.5t-35 156zM295 317q0 -86 61.5 -140t169.5 -54q100 0 196.5 60t129.5 161q16 61 14 133l-2 94q-143 -21 -346 -65
q-128 -26 -175.5 -73.5t-47.5 -115.5z" />
    <glyph glyph-name="Cacute" unicode="&#x106;" horiz-adv-x="1615" 
d="M852 -37q-343 0 -543 215q-95 99 -147.5 249.5t-52.5 340.5q0 202 60.5 361t165 257.5t237.5 149.5t286 51q133 0 233 -28t195 -95q96 -68 160.5 -178t85.5 -254h-215q-27 166 -146 273q-63 57 -139 78.5t-176 21.5q-110 -1 -199 -34.5t-150 -91.5t-101.5 -139
t-59 -173.5t-18.5 -198.5q0 -130 31.5 -240.5t93.5 -197t165.5 -136t237.5 -49.5q208 0 328.5 112.5t148.5 299.5h213q-15 -147 -75.5 -262t-154.5 -186.5t-211.5 -108.5t-252.5 -37zM797 1659l149 326h232l-260 -326h-121z" />
    <glyph glyph-name="cacute" unicode="&#x107;" horiz-adv-x="1185" 
d="M1116 397q-28 -209 -158.5 -321.5t-341.5 -112.5q-163 0 -286 78t-187.5 213.5t-64.5 308.5q0 269 151 434.5t398 165.5q69 0 125 -10q147 -29 237.5 -132t110.5 -269h-191q-37 189 -207 233q-27 6 -81 6q-164 0 -254.5 -118t-90.5 -310t92.5 -310t258.5 -118
q125 0 200 69t97 193h192zM551 1235l149 326h232l-260 -326h-121z" />
    <glyph glyph-name="Ccircumflex" unicode="&#x108;" horiz-adv-x="1615" 
d="M852 -37q-343 0 -543 215q-95 99 -147.5 249.5t-52.5 340.5q0 202 60.5 361t165 257.5t237.5 149.5t286 51q133 0 233 -28t195 -95q96 -68 160.5 -178t85.5 -254h-215q-27 166 -146 273q-63 57 -139 78.5t-176 21.5q-110 -1 -199 -34.5t-150 -91.5t-101.5 -139
t-59 -173.5t-18.5 -198.5q0 -130 31.5 -240.5t93.5 -197t165.5 -136t237.5 -49.5q208 0 328.5 112.5t148.5 299.5h213q-15 -147 -75.5 -262t-154.5 -186.5t-211.5 -108.5t-252.5 -37zM586 1659l196 326h160l197 -326h-133l-142 180l-145 -180h-133z" />
    <glyph glyph-name="ccircumflex" unicode="&#x109;" horiz-adv-x="1185" 
d="M1116 397q-28 -209 -158.5 -321.5t-341.5 -112.5q-163 0 -286 78t-187.5 213.5t-64.5 308.5q0 269 151 434.5t398 165.5q69 0 125 -10q147 -29 237.5 -132t110.5 -269h-191q-37 189 -207 233q-27 6 -81 6q-164 0 -254.5 -118t-90.5 -310t92.5 -310t258.5 -118
q125 0 200 69t97 193h192zM340 1235l197 326h159l197 -326h-133l-142 180l-145 -180h-133z" />
    <glyph glyph-name="Cdot" unicode="&#x10a;" horiz-adv-x="1615" 
d="M852 -37q-343 0 -543 215q-95 99 -147.5 249.5t-52.5 340.5q0 202 60.5 361t165 257.5t237.5 149.5t286 51q133 0 233 -28t195 -95q96 -68 160.5 -178t85.5 -254h-215q-27 166 -146 273q-63 57 -139 78.5t-176 21.5q-110 -1 -199 -34.5t-150 -91.5t-101.5 -139
t-59 -173.5t-18.5 -198.5q0 -130 31.5 -240.5t93.5 -197t165.5 -136t237.5 -49.5q208 0 328.5 112.5t148.5 299.5h213q-15 -147 -75.5 -262t-154.5 -186.5t-211.5 -108.5t-252.5 -37zM758 1704v235h207v-235h-207z" />
    <glyph glyph-name="cdotaccent" unicode="&#x10b;" horiz-adv-x="1185" 
d="M1116 397q-28 -209 -158.5 -321.5t-341.5 -112.5q-163 0 -286 78t-187.5 213.5t-64.5 308.5q0 269 151 434.5t398 165.5q69 0 125 -10q147 -29 237.5 -132t110.5 -269h-191q-37 189 -207 233q-27 6 -81 6q-164 0 -254.5 -118t-90.5 -310t92.5 -310t258.5 -118
q125 0 200 69t97 193h192zM512 1280v236h207v-236h-207z" />
    <glyph glyph-name="Ccaron" unicode="&#x10c;" horiz-adv-x="1615" 
d="M852 -37q-343 0 -543 215q-95 99 -147.5 249.5t-52.5 340.5q0 202 60.5 361t165 257.5t237.5 149.5t286 51q133 0 233 -28t195 -95q96 -68 160.5 -178t85.5 -254h-215q-27 166 -146 273q-63 57 -139 78.5t-176 21.5q-110 -1 -199 -34.5t-150 -91.5t-101.5 -139
t-59 -173.5t-18.5 -198.5q0 -130 31.5 -240.5t93.5 -197t165.5 -136t237.5 -49.5q208 0 328.5 112.5t148.5 299.5h213q-15 -147 -75.5 -262t-154.5 -186.5t-211.5 -108.5t-252.5 -37zM586 1985h133l145 -181l142 181h133l-197 -326h-160z" />
    <glyph glyph-name="ccaron" unicode="&#x10d;" horiz-adv-x="1185" 
d="M1116 397q-28 -209 -158.5 -321.5t-341.5 -112.5q-163 0 -286 78t-187.5 213.5t-64.5 308.5q0 269 151 434.5t398 165.5q69 0 125 -10q147 -29 237.5 -132t110.5 -269h-191q-37 189 -207 233q-27 6 -81 6q-164 0 -254.5 -118t-90.5 -310t92.5 -310t258.5 -118
q125 0 200 69t97 193h192zM340 1561h133l145 -181l142 181h133l-197 -326h-159z" />
    <glyph glyph-name="Dcaron" unicode="&#x10e;" horiz-adv-x="1570" 
d="M150 -10v1571h466q267 0 428 -62q201 -81 309.5 -264.5t108.5 -460.5q0 -287 -123 -473.5t-348 -263.5q-149 -47 -375 -47h-466zM356 176h310q266 0 422.5 150t156.5 432q0 246 -101.5 398t-279.5 196q-90 22 -260 22h-248v-1198zM508 1985h133l145 -181l142 181h133
l-197 -326h-159z" />
    <glyph glyph-name="dcaron" unicode="&#x10f;" horiz-adv-x="1509" 
d="M1122 -10h-184v141h-10q-37 -80 -123.5 -124t-204.5 -44q-122 0 -222 48.5t-165 132t-100 191t-35 228.5t35 228.5t100 191t165 132t222 48.5q110 0 193.5 -38.5t124.5 -108.5h10v545h194v-1571zM281 563q0 -191 93.5 -309.5t254.5 -118.5q126 0 204 64t101 188
q12 66 12 176t-12 176q-23 124 -101 188t-204 64q-161 0 -254.5 -118.5t-93.5 -309.5zM1235 1130l65 220v211h154v-218l-119 -213h-100z" />
    <glyph glyph-name="Dcroat" unicode="&#x110;" horiz-adv-x="1570" 
d="M2 727v182h148v652h466q267 0 428 -62q201 -81 309.5 -264.5t108.5 -460.5q0 -287 -123 -473.5t-348 -263.5q-149 -47 -375 -47h-466v737h-148zM354 176h316q266 0 422.5 150t156.5 432q0 246 -101.5 398t-279.5 196q-90 22 -260 22h-254v-465h443v-182h-443v-551z" />
    <glyph glyph-name="dcroat" unicode="&#x111;" horiz-adv-x="1253" 
d="M1122 -10h-184v141h-10q-37 -80 -123.5 -124t-204.5 -44q-122 0 -222 48.5t-165 132t-100 191t-35 228.5t35 228.5t100 191t165 132t222 48.5q110 0 193.5 -38.5t124.5 -108.5h10v239h-277v138h277v168h194v-168h121v-138h-121v-1265zM281 563q0 -191 93.5 -309.5
t254.5 -118.5q126 0 204 64t101 188q12 66 12 176t-12 176q-23 124 -101 188t-204 64q-161 0 -254.5 -118.5t-93.5 -309.5z" />
    <glyph glyph-name="Emacron" unicode="&#x112;" horiz-adv-x="1228" 
d="M150 -10v1571h987v-197h-781v-451h760v-190l-760 2v-539h801v-196h-1007zM350 1704v168h602v-168h-602z" />
    <glyph glyph-name="emacron" unicode="&#x113;" horiz-adv-x="1222" 
d="M1143 397q-27 -209 -164 -321.5t-352 -112.5q-248 0 -398.5 169t-150.5 431q0 178 73 320t201 213q119 67 271 67q88 0 127 -6q94 -17 190 -84q97 -70 152.5 -205t52.5 -331h-871q-3 -17 0 -43q6 -70 27 -132q39 -105 125.5 -165t210.5 -60q189 0 268 135q32 51 49 125
h189zM285 702h663q-12 124 -82 203t-184 92q-23 2 -53 2q-127 0 -215 -69t-121 -185q-4 -20 -4 -26zM326 1280v168h602v-168h-602z" />
    <glyph glyph-name="Ebreve" unicode="&#x114;" horiz-adv-x="1228" 
d="M150 -10v1571h987v-197h-781v-451h760v-190l-760 2v-539h801v-196h-1007zM342 1944h162q17 -152 145 -152q131 0 148 152h161q-13 -137 -95.5 -208t-211.5 -71q-130 0 -213 71t-96 208z" />
    <glyph glyph-name="ebreve" unicode="&#x115;" horiz-adv-x="1222" 
d="M1143 397q-27 -209 -164 -321.5t-352 -112.5q-248 0 -398.5 169t-150.5 431q0 178 73 320t201 213q119 67 271 67q88 0 127 -6q94 -17 190 -84q97 -70 152.5 -205t52.5 -331h-871q-3 -17 0 -43q6 -70 27 -132q39 -105 125.5 -165t210.5 -60q189 0 268 135q32 51 49 125
h189zM285 702h663q-12 124 -82 203t-184 92q-23 2 -53 2q-127 0 -215 -69t-121 -185q-4 -20 -4 -26zM317 1520h162q17 -152 146 -152q130 0 147 152h162q-13 -137 -95.5 -208t-211.5 -71q-130 0 -213.5 71t-96.5 208z" />
    <glyph glyph-name="Edot" unicode="&#x116;" horiz-adv-x="1228" 
d="M150 -10v1571h987v-197h-781v-451h760v-190l-760 2v-539h801v-196h-1007zM547 1704v235h207v-235h-207z" />
    <glyph glyph-name="edotaccent" unicode="&#x117;" horiz-adv-x="1222" 
d="M1143 397q-27 -209 -164 -321.5t-352 -112.5q-248 0 -398.5 169t-150.5 431q0 178 73 320t201 213q119 67 271 67q88 0 127 -6q94 -17 190 -84q97 -70 152.5 -205t52.5 -331h-871q-3 -17 0 -43q6 -70 27 -132q39 -105 125.5 -165t210.5 -60q189 0 268 135q32 51 49 125
h189zM285 702h663q-12 124 -82 203t-184 92q-23 2 -53 2q-127 0 -215 -69t-121 -185q-4 -20 -4 -26zM522 1280v236h207v-236h-207z" />
    <glyph glyph-name="Eogonek" unicode="&#x118;" horiz-adv-x="1228" 
d="M150 -10v1571h987v-197h-781v-451h760v-190l-760 2v-539h801v-178l12 -4l-12 -8v-6h-8l-74 -53q-86 -59 -86 -119q0 -36 22.5 -56t61.5 -20t80 18v-112q-64 -37 -123 -37q-78 0 -134 52t-56 138q0 103 96 189h-786z" />
    <glyph glyph-name="eogonek" unicode="&#x119;" horiz-adv-x="1230" 
d="M78 561q0 126 36 235t103.5 191t172.5 129t235 47q249 0 388.5 -164.5t135.5 -461.5h-873q2 -84 26 -157t66.5 -130.5t110 -91t150.5 -33.5q131 0 219.5 73.5t114.5 190.5h190q-7 -43 -22 -83t-30.5 -69.5t-44.5 -62t-47.5 -51.5t-57.5 -48t-56.5 -41.5t-60.5 -41.5
l-64 -43q-104 -69 -104 -131q0 -36 22.5 -56t61.5 -20q36 0 79 16v-110q-64 -37 -122 -37q-79 0 -135 52t-56 138q0 90 70 160q-161 11 -278 95t-173.5 214t-56.5 291zM287 696h663q-20 148 -105.5 226.5t-211.5 78.5q-137 0 -228 -77.5t-118 -227.5z" />
    <glyph glyph-name="Ecaron" unicode="&#x11a;" horiz-adv-x="1228" 
d="M150 -10v1571h987v-197h-781v-451h760v-190l-760 2v-539h801v-196h-1007zM375 1985h133l145 -181l142 181h133l-197 -326h-160z" />
    <glyph glyph-name="ecaron" unicode="&#x11b;" horiz-adv-x="1222" 
d="M1143 397q-27 -209 -164 -321.5t-352 -112.5q-248 0 -398.5 169t-150.5 431q0 178 73 320t201 213q119 67 271 67q88 0 127 -6q94 -17 190 -84q97 -70 152.5 -205t52.5 -331h-871q-3 -17 0 -43q6 -70 27 -132q39 -105 125.5 -165t210.5 -60q189 0 268 135q32 51 49 125
h189zM285 702h663q-12 124 -82 203t-184 92q-23 2 -53 2q-127 0 -215 -69t-121 -185q-4 -20 -4 -26zM350 1561h133l146 -181l141 181h133l-196 -326h-160z" />
    <glyph glyph-name="Gbreve" unicode="&#x11e;" horiz-adv-x="1669" 
d="M109 768q0 163 38.5 298t107.5 230.5t165.5 161.5t211.5 97.5t247 31.5q265 0 430 -118.5t204 -356.5h-213q-28 146 -140.5 219.5t-285.5 73.5q-115 0 -208 -33.5t-155.5 -91.5t-104 -139.5t-60 -174t-18.5 -198.5q0 -129 31 -240t92.5 -198t163 -137t233.5 -50
q228 0 362 123t144 344l2 31h-510v190h694v-841h-170v211h-14q-87 -127 -212 -182.5t-288 -55.5q-157 0 -291 50t-236.5 147t-161 253t-58.5 355zM569 1944h162q17 -152 146 -152q130 0 147 152h162q-13 -137 -95.5 -208t-211.5 -71q-130 0 -213.5 71t-96.5 208z" />
    <glyph glyph-name="gbreve" unicode="&#x11f;" horiz-adv-x="1228" 
d="M1100 68q0 -463 -504 -463q-433 0 -475 338h194q10 -84 84.5 -127t200.5 -43q83 0 140 16t99.5 56t62.5 110.5t20 175.5v55h-11q-32 -82 -118.5 -127t-206.5 -45q-118 0 -215.5 46.5t-160.5 126t-97.5 183t-34.5 218.5q0 116 34.5 219.5t97.5 183t160.5 126t215.5 46.5
q116 0 199.5 -43t117.5 -119h12v136h185v-1069zM281 588q0 -183 88.5 -296.5t246.5 -113.5q248 0 295 242q13 68 13 168q0 96 -13 168q-48 245 -295 245q-158 0 -246.5 -113.5t-88.5 -299.5zM303 1520h162q17 -152 145 -152q131 0 148 152h162q-13 -137 -96 -208t-212 -71
q-130 0 -213 71t-96 208z" />
    <glyph glyph-name="Gdot" unicode="&#x120;" horiz-adv-x="1669" 
d="M109 768q0 163 38.5 298t107.5 230.5t165.5 161.5t211.5 97.5t247 31.5q265 0 430 -118.5t204 -356.5h-213q-28 146 -140.5 219.5t-285.5 73.5q-115 0 -208 -33.5t-155.5 -91.5t-104 -139.5t-60 -174t-18.5 -198.5q0 -129 31 -240t92.5 -198t163 -137t233.5 -50
q228 0 362 123t144 344l2 31h-510v190h694v-841h-170v211h-14q-87 -127 -212 -182.5t-288 -55.5q-157 0 -291 50t-236.5 147t-161 253t-58.5 355zM774 1704v235h207v-235h-207z" />
    <glyph glyph-name="gdotaccent" unicode="&#x121;" horiz-adv-x="1228" 
d="M1100 68q0 -463 -504 -463q-433 0 -475 338h194q10 -84 84.5 -127t200.5 -43q83 0 140 16t99.5 56t62.5 110.5t20 175.5v55h-11q-32 -82 -118.5 -127t-206.5 -45q-118 0 -215.5 46.5t-160.5 126t-97.5 183t-34.5 218.5q0 116 34.5 219.5t97.5 183t160.5 126t215.5 46.5
q116 0 199.5 -43t117.5 -119h12v136h185v-1069zM281 588q0 -183 88.5 -296.5t246.5 -113.5q248 0 295 242q13 68 13 168q0 96 -13 168q-48 245 -295 245q-158 0 -246.5 -113.5t-88.5 -299.5zM508 1280v236h207v-236h-207z" />
    <glyph glyph-name="uni0122" unicode="&#x122;" horiz-adv-x="1669" 
d="M109 768q0 163 38.5 298t107.5 230.5t165.5 161.5t211.5 97.5t247 31.5q265 0 430 -118.5t204 -356.5h-213q-28 146 -140.5 219.5t-285.5 73.5q-115 0 -208 -33.5t-155.5 -91.5t-104 -139.5t-60 -174t-18.5 -198.5q0 -129 31 -240t92.5 -198t163 -137t233.5 -50
q228 0 362 123t144 344l2 31h-510v190h694v-841h-170v211h-14q-87 -127 -212 -182.5t-288 -55.5q-157 0 -291 50t-236.5 147t-161 253t-58.5 355zM672 -569l65 219v211h154v-217l-119 -213h-100z" />
    <glyph glyph-name="uni0123" unicode="&#x123;" horiz-adv-x="1228" 
d="M1100 68q0 -463 -504 -463q-433 0 -475 338h194q10 -84 84.5 -127t200.5 -43q83 0 140 16t99.5 56t62.5 110.5t20 175.5v55h-11q-32 -82 -118.5 -127t-206.5 -45q-118 0 -215.5 46.5t-160.5 126t-97.5 183t-34.5 218.5q0 116 34.5 219.5t97.5 183t160.5 126t215.5 46.5
q116 0 199.5 -43t117.5 -119h12v136h185v-1069zM281 588q0 -183 88.5 -296.5t246.5 -113.5q248 0 295 242q13 68 13 168q0 96 -13 168q-48 245 -295 245q-158 0 -246.5 -113.5t-88.5 -299.5zM528 1262v217l119 213h101l-66 -219v-211h-154z" />
    <glyph glyph-name="Hbar" unicode="&#x126;" horiz-adv-x="1654" 
d="M211 -10v1155h-164v164h164v252h207v-252h819v252h207v-252h164v-164h-164v-1155h-207v733h-819v-733h-207zM418 913h819v232h-819v-232z" />
    <glyph glyph-name="hbar" unicode="&#x127;" horiz-adv-x="1230" 
d="M57 1255v138h123v168h195v-168h274v-138h-274v-297h10q119 205 354 205q119 0 210.5 -55.5t137.5 -167.5q31 -76 31 -215v-735h-194v721q0 109 -21 163q-20 49 -68 80t-118 31q-147 0 -242 -113q-70 -82 -85 -145t-15 -209v-528h-195v1265h-123z" />
    <glyph glyph-name="Itilde" unicode="&#x128;" horiz-adv-x="505" 
d="M150 -10v1571h206v-1571h-206zM-55 1671q-3 108 50.5 177t147.5 69q56 0 133 -53q57 -37 95 -37q41 0 68 26t24 64h100q3 -109 -48 -179.5t-134 -70.5q-61 0 -137 49q-4 2 -16.5 8.5t-17.5 9t-16 7.5t-18.5 7t-18 3.5t-20.5 1.5q-42 0 -68.5 -25t-23.5 -57h-100z" />
    <glyph glyph-name="itilde" unicode="&#x129;" horiz-adv-x="456" 
d="M131 -10v1147h195v-1147h-195zM-80 1247q-3 108 51 177t148 69q56 0 133 -53q57 -37 94 -37q41 0 68 26t24 64h101q3 -109 -48.5 -179.5t-134.5 -70.5q-61 0 -137 49q-3 2 -19 10.5t-22 11t-18.5 7.5t-23.5 6.5t-23 1.5q-42 0 -69 -25t-24 -57h-100z" />
    <glyph glyph-name="Imacron" unicode="&#x12a;" horiz-adv-x="505" 
d="M150 -10v1571h206v-1571h-206zM-47 1704v168h602v-168h-602z" />
    <glyph glyph-name="imacron" unicode="&#x12b;" horiz-adv-x="456" 
d="M131 -10v1147h195v-1147h-195zM-72 1280v168h602v-168h-602z" />
    <glyph glyph-name="Ibreve" unicode="&#x12c;" horiz-adv-x="505" 
d="M150 -10v1571h206v-1571h-206zM-55 1944h161q17 -152 146 -152q130 0 147 152h162q-13 -137 -95.5 -208t-211.5 -71q-130 0 -213 71t-96 208z" />
    <glyph glyph-name="ibreve" unicode="&#x12d;" horiz-adv-x="456" 
d="M131 -10v1147h195v-1147h-195zM-80 1520h162q17 -152 145 -152q131 0 148 152h162q-13 -137 -96 -208t-212 -71q-130 0 -213 71t-96 208z" />
    <glyph glyph-name="Iogonek" unicode="&#x12e;" horiz-adv-x="505" 
d="M43 -199q0 108 107 197v1563h206v-1551l17 -6l-17 -12v-2h-4l-73 -53q-86 -59 -86 -119q0 -36 22 -56t61 -20t80 18v-112q-64 -37 -123 -37q-78 0 -134 52t-56 138z" />
    <glyph glyph-name="iogonek" unicode="&#x12f;" horiz-adv-x="479" 
d="M35 -199q0 109 115 203v1133h190v-1145l-59 -49q-53 -43 -75 -71t-22 -54q0 -36 22.5 -56t61.5 -20q40 0 80 18v-112q-64 -37 -123 -37q-78 0 -134 52t-56 138zM141 1280v236h207v-236h-207z" />
    <glyph glyph-name="Idot" unicode="&#x130;" horiz-adv-x="505" 
d="M150 -10v1571h206v-1571h-206zM150 1704v235h206v-235h-206z" />
    <glyph glyph-name="dotlessi" unicode="&#x131;" horiz-adv-x="456" 
d="M131 -10v1147h195v-1147h-195z" />
    <glyph glyph-name="uni0136" unicode="&#x136;" horiz-adv-x="1318" 
d="M150 -10v1571h206v-783l650 783h233v-23l-539 -635l615 -885v-28h-230l-530 770l-199 -238v-532h-206zM567 -569l66 219v211h153v-217l-118 -213h-101z" />
    <glyph glyph-name="uni0137" unicode="&#x137;" horiz-adv-x="1077" 
d="M131 -10v1571h191v-924l473 500h223v-29l-412 -418l451 -674v-26h-207l-381 594l-147 -148v-446h-191zM428 -569l66 219v211h153v-217l-119 -213h-100z" />
    <glyph glyph-name="Lacute" unicode="&#x139;" horiz-adv-x="1118" 
d="M150 -10v1571h206v-1373h736v-198h-942zM184 1659l150 326h231l-260 -326h-121z" />
    <glyph glyph-name="lacute" unicode="&#x13a;" horiz-adv-x="458" 
d="M131 -10v1571h197v-1571h-197zM164 1659l149 326h232l-260 -326h-121z" />
    <glyph glyph-name="uni013B" unicode="&#x13b;" horiz-adv-x="1118" 
d="M150 -10v1571h206v-1373h736v-198h-942zM416 -569l65 219v211h154v-217l-119 -213h-100z" />
    <glyph glyph-name="uni013C" unicode="&#x13c;" horiz-adv-x="458" 
d="M131 -10v1571h197v-1571h-197zM86 -569l66 219v211h153v-217l-119 -213h-100z" />
    <glyph glyph-name="Lcaron" unicode="&#x13d;" horiz-adv-x="1118" 
d="M150 -10v1571h206v-1373h736v-198h-942zM510 1130l65 220v211h154v-218l-119 -213h-100z" />
    <glyph glyph-name="lcaron" unicode="&#x13e;" horiz-adv-x="708" 
d="M131 -10v1571h197v-1571h-197zM434 1130l66 220v211h153v-218l-118 -213h-101z" />
    <glyph glyph-name="Ldot" unicode="&#x13f;" horiz-adv-x="1118" 
d="M150 -10v1571h206v-1373h736v-198h-942zM621 684v260h215v-260h-215z" />
    <glyph glyph-name="ldot" unicode="&#x140;" horiz-adv-x="768" 
d="M131 -10v1571h197v-1571h-197zM485 686v260h215v-260h-215z" />
    <glyph glyph-name="Lslash" unicode="&#x141;" horiz-adv-x="1118" 
d="M150 -10v446l-146 -65v198l146 66v926h206v-834l531 238v-199l-531 -238v-340h736v-198h-942z" />
    <glyph glyph-name="lslash" unicode="&#x142;" horiz-adv-x="460" 
d="M131 -10v819l-141 -74v172l141 76v578h197v-474l143 76v-174l-143 -76v-923h-197z" />
    <glyph glyph-name="Nacute" unicode="&#x143;" horiz-adv-x="1581" 
d="M150 -10v1571h239l840 -1274h12q-14 158 -14 471v803h205v-1571h-236l-844 1278h-12q14 -264 14 -615v-663h-204zM725 1659l149 326h232l-260 -326h-121z" />
    <glyph glyph-name="nacute" unicode="&#x144;" horiz-adv-x="1185" 
d="M129 -10v1147h186v-195h11q118 221 362 221q119 0 210.5 -55.5t137.5 -167.5q31 -76 31 -215v-735h-195v721q0 112 -20 163q-20 49 -68 80t-118 31q-147 0 -242 -113q-70 -82 -85 -145t-15 -209v-528h-195zM504 1235l149 326h232l-260 -326h-121z" />
    <glyph glyph-name="uni0145" unicode="&#x145;" horiz-adv-x="1581" 
d="M150 -10v1571h239l840 -1274h12q-14 158 -14 471v803h205v-1571h-236l-844 1278h-12q14 -264 14 -615v-663h-204zM647 -569l66 219v211h153v-217l-118 -213h-101z" />
    <glyph glyph-name="uni0146" unicode="&#x146;" horiz-adv-x="1179" 
d="M129 -10v1147h186v-195h11q118 221 362 221q119 0 210.5 -55.5t137.5 -167.5q31 -76 31 -215v-735h-195v721q0 112 -20 163q-20 49 -68 80t-118 31q-147 0 -242 -113q-70 -82 -85 -145t-15 -209v-528h-195zM455 -569l65 219v211h154v-217l-119 -213h-100z" />
    <glyph glyph-name="Ncaron" unicode="&#x147;" horiz-adv-x="1581" 
d="M150 -10v1571h239l840 -1274h12q-14 158 -14 471v803h205v-1571h-236l-844 1278h-12q14 -264 14 -615v-663h-204zM514 1985h133l146 -181l141 181h133l-197 -326h-159z" />
    <glyph glyph-name="ncaron" unicode="&#x148;" horiz-adv-x="1179" 
d="M129 -10v1147h186v-195h11q118 221 362 221q119 0 210.5 -55.5t137.5 -167.5q31 -76 31 -215v-735h-195v721q0 112 -20 163q-20 49 -68 80t-118 31q-147 0 -242 -113q-70 -82 -85 -145t-15 -209v-528h-195zM324 1561h133l145 -181l141 181h134l-197 -326h-160z" />
    <glyph glyph-name="Eng" unicode="&#x14a;" horiz-adv-x="1581" 
d="M1087 -217q79 0 114.5 41t35.5 129v18l-885 1297h-12q14 -264 14 -615v-663h-204v1571h239l840 -1280h12q-14 201 -14 477v803h205v-1604q0 -87 -23 -153t-64.5 -104.5t-93 -57.5t-112.5 -19q-116 0 -185 10v154q46 -4 133 -4z" />
    <glyph glyph-name="eng" unicode="&#x14b;" horiz-adv-x="1179" 
d="M129 -10v1147h186v-195h11q118 221 362 221q119 0 210.5 -55.5t137.5 -167.5q31 -76 31 -215v-768q0 -87 -23 -153t-64.5 -104.5t-93 -57.5t-112.5 -19q-74 0 -143 10v154q46 -4 92 -4q79 0 114 40.5t35 129.5v758q0 112 -20 163q-20 49 -68 80t-118 31q-147 0 -242 -113
q-70 -82 -85 -145t-15 -209v-528h-195z" />
    <glyph glyph-name="Omacron" unicode="&#x14c;" horiz-adv-x="1712" 
d="M856 -37q-157 0 -291 50t-236.5 147t-161 253t-58.5 355q0 202 58.5 361t161 257.5t236.5 149.5t291 51q126 0 237 -31.5t205 -97.5t162 -161.5t106 -230.5t38 -298q0 -160 -38 -292.5t-106 -226.5t-162 -159t-205 -96t-237 -31zM328 768q0 -102 18.5 -192.5t59.5 -169
t101 -135t148.5 -89t196.5 -32.5q136 0 240.5 48.5t167 134.5t93.5 195.5t31 239.5q0 105 -18 197t-58.5 173t-101 139t-150 91t-200.5 33t-200.5 -33t-150 -91t-101 -139t-58.5 -173t-18 -197zM555 1704v168h602v-168h-602z" />
    <glyph glyph-name="omacron" unicode="&#x14d;" horiz-adv-x="1249" 
d="M625 -37q-164 0 -289 78t-191.5 214t-66.5 308t66.5 308t191.5 214t289 78t289 -78.5t191 -214t66 -307.5t-66 -307.5t-191 -214t-289 -78.5zM283 563q0 -193 88.5 -310.5t253.5 -117.5t253.5 117.5t88.5 310.5q0 192 -88.5 310t-253.5 118t-253.5 -118t-88.5 -310z
M324 1280v168h602v-168h-602z" />
    <glyph glyph-name="Obreve" unicode="&#x14e;" horiz-adv-x="1712" 
d="M856 -37q-157 0 -291 50t-236.5 147t-161 253t-58.5 355q0 202 58.5 361t161 257.5t236.5 149.5t291 51q126 0 237 -31.5t205 -97.5t162 -161.5t106 -230.5t38 -298q0 -160 -38 -292.5t-106 -226.5t-162 -159t-205 -96t-237 -31zM328 768q0 -102 18.5 -192.5t59.5 -169
t101 -135t148.5 -89t196.5 -32.5q136 0 240.5 48.5t167 134.5t93.5 195.5t31 239.5q0 105 -18 197t-58.5 173t-101 139t-150 91t-200.5 33t-200.5 -33t-150 -91t-101 -139t-58.5 -173t-18 -197zM547 1944h162q17 -152 145 -152q130 0 147 152h162q-13 -137 -95.5 -208
t-211.5 -71q-130 0 -213 71t-96 208z" />
    <glyph glyph-name="obreve" unicode="&#x14f;" horiz-adv-x="1249" 
d="M625 -37q-164 0 -289 78t-191.5 214t-66.5 308t66.5 308t191.5 214t289 78t289 -78.5t191 -214t66 -307.5t-66 -307.5t-191 -214t-289 -78.5zM283 563q0 -193 88.5 -310.5t253.5 -117.5t253.5 117.5t88.5 310.5q0 192 -88.5 310t-253.5 118t-253.5 -118t-88.5 -310z
M315 1520h162q17 -152 146 -152q130 0 147 152h162q-13 -137 -95.5 -208t-211.5 -71q-130 0 -213.5 71t-96.5 208z" />
    <glyph glyph-name="Ohungarumlaut" unicode="&#x150;" horiz-adv-x="1712" 
d="M856 -37q-157 0 -291 50t-236.5 147t-161 253t-58.5 355q0 202 58.5 361t161 257.5t236.5 149.5t291 51q126 0 237 -31.5t205 -97.5t162 -161.5t106 -230.5t38 -298q0 -160 -38 -292.5t-106 -226.5t-162 -159t-205 -96t-237 -31zM328 768q0 -102 18.5 -192.5t59.5 -169
t101 -135t148.5 -89t196.5 -32.5q136 0 240.5 48.5t167 134.5t93.5 195.5t31 239.5q0 105 -18 197t-58.5 173t-101 139t-150 91t-200.5 33t-200.5 -33t-150 -91t-101 -139t-58.5 -173t-18 -197zM662 1659l149 326h217l-254 -326h-112zM938 1659l149 326h218l-254 -326h-113z
" />
    <glyph glyph-name="ohungarumlaut" unicode="&#x151;" horiz-adv-x="1249" 
d="M625 -37q-164 0 -289 78t-191.5 214t-66.5 308t66.5 308t191.5 214t289 78t289 -78.5t191 -214t66 -307.5t-66 -307.5t-191 -214t-289 -78.5zM283 563q0 -193 88.5 -310.5t253.5 -117.5t253.5 117.5t88.5 310.5q0 192 -88.5 310t-253.5 118t-253.5 -118t-88.5 -310z
M430 1235l150 326h217l-254 -326h-113zM707 1235l149 326h217l-254 -326h-112z" />
    <glyph glyph-name="OE" unicode="&#x152;" 
 />
    <glyph glyph-name="oe" unicode="&#x153;" 
 />
    <glyph glyph-name="Racute" unicode="&#x154;" horiz-adv-x="1396" 
d="M150 -10v1571h536q240 0 350 -37q127 -44 195.5 -151t68.5 -261q0 -184 -102.5 -296t-284.5 -140l402 -660v-26h-228l-397 669h-334v-669h-206zM356 838h338q137 0 219 20q89 21 139 81.5t50 160.5q0 213 -187 258q-68 18 -219 18h-340v-538zM604 1659l150 326h231
l-260 -326h-121z" />
    <glyph glyph-name="racute" unicode="&#x155;" horiz-adv-x="819" 
d="M129 -10v1147h190v-230h11q43 88 105.5 146t125.5 81t131 23q61 0 96 -12v-184q-33 10 -92 10q-175 0 -288 -152q-23 -32 -37 -57q-4 -12 -11 -19q-21 -44 -28.5 -90t-7.5 -121v-542h-195zM381 1235l149 326h232l-260 -326h-121z" />
    <glyph glyph-name="uni0156" unicode="&#x156;" horiz-adv-x="1396" 
d="M150 -10v1571h536q240 0 350 -37q127 -44 195.5 -151t68.5 -261q0 -184 -102.5 -296t-284.5 -140l402 -660v-26h-228l-397 669h-334v-669h-206zM356 838h338q137 0 219 20q89 21 139 81.5t50 160.5q0 213 -187 258q-68 18 -219 18h-340v-538zM551 -569l65 219v211h154
v-217l-119 -213h-100z" />
    <glyph glyph-name="uni0157" unicode="&#x157;" horiz-adv-x="819" 
d="M129 -10v1147h190v-230h11q43 88 105.5 146t125.5 81t131 23q61 0 96 -12v-184q-33 10 -92 10q-175 0 -288 -152q-23 -32 -37 -57q-4 -12 -11 -19q-21 -44 -28.5 -90t-7.5 -121v-542h-195zM84 -569l66 219v211h153v-217l-119 -213h-100z" />
    <glyph glyph-name="Rcaron" unicode="&#x158;" horiz-adv-x="1396" 
d="M150 -10v1571h536q240 0 350 -37q127 -44 195.5 -151t68.5 -261q0 -184 -102.5 -296t-284.5 -140l402 -660v-26h-228l-397 669h-334v-669h-206zM356 838h338q137 0 219 20q89 21 139 81.5t50 160.5q0 213 -187 258q-68 18 -219 18h-340v-538zM393 1985h133l146 -181
l141 181h133l-196 -326h-160z" />
    <glyph glyph-name="rcaron" unicode="&#x159;" horiz-adv-x="819" 
d="M129 -10v1147h190v-230h11q43 88 105.5 146t125.5 81t131 23q61 0 96 -12v-184q-33 10 -92 10q-175 0 -288 -152q-23 -32 -37 -57q-4 -12 -11 -19q-21 -44 -28.5 -90t-7.5 -121v-542h-195zM170 1561h133l146 -181l141 181h133l-197 -326h-159z" />
    <glyph glyph-name="Sacute" unicode="&#x15a;" horiz-adv-x="1443" 
d="M735 -39q-313 0 -481.5 141.5t-185.5 423.5h211q26 -204 137.5 -294.5t341.5 -90.5q201 0 305 76.5t104 222.5q0 98 -74.5 154.5t-244.5 85.5l-270 47q-244 43 -348.5 139.5t-104.5 278.5q0 204 167.5 326t448.5 122q275 0 432.5 -121t169.5 -346h-202q-20 141 -124 215
t-288 74q-178 0 -283.5 -69t-105.5 -179q0 -93 58 -143t198 -76l330 -61q242 -44 346 -145t104 -291q0 -234 -166 -362t-475 -128zM657 1659l150 326h231l-260 -326h-121z" />
    <glyph glyph-name="sacute" unicode="&#x15b;" horiz-adv-x="1150" 
d="M1063 348q0 -176 -124 -280.5t-349 -104.5q-217 0 -348 101t-152 294h191q44 -221 309 -221q132 0 206 52t74 139q0 132 -188 149l-205 21q-187 19 -275.5 93t-88.5 206q0 163 132 264.5t347 101.5q202 0 324 -97.5t139 -283.5h-183q-35 209 -288 209
q-126 0 -201.5 -49.5t-75.5 -128.5q0 -54 42 -83t138 -38l215 -22q186 -20 273.5 -100t87.5 -222zM514 1235l150 326h231l-260 -326h-121z" />
    <glyph glyph-name="Scircumflex" unicode="&#x15c;" horiz-adv-x="1443" 
d="M735 -39q-313 0 -481.5 141.5t-185.5 423.5h211q26 -204 137.5 -294.5t341.5 -90.5q201 0 305 76.5t104 222.5q0 98 -74.5 154.5t-244.5 85.5l-270 47q-244 43 -348.5 139.5t-104.5 278.5q0 204 167.5 326t448.5 122q275 0 432.5 -121t169.5 -346h-202q-20 141 -124 215
t-288 74q-178 0 -283.5 -69t-105.5 -179q0 -93 58 -143t198 -76l330 -61q242 -44 346 -145t104 -291q0 -234 -166 -362t-475 -128zM446 1659l197 326h160l196 -326h-133l-141 180l-145 -180h-134z" />
    <glyph glyph-name="scircumflex" unicode="&#x15d;" horiz-adv-x="1150" 
d="M1063 348q0 -176 -124 -280.5t-349 -104.5q-217 0 -348 101t-152 294h191q44 -221 309 -221q132 0 206 52t74 139q0 132 -188 149l-205 21q-187 19 -275.5 93t-88.5 206q0 163 132 264.5t347 101.5q202 0 324 -97.5t139 -283.5h-183q-35 209 -288 209
q-126 0 -201.5 -49.5t-75.5 -128.5q0 -54 42 -83t138 -38l215 -22q186 -20 273.5 -100t87.5 -222zM303 1235l197 326h159l197 -326h-133l-141 180l-146 -180h-133z" />
    <glyph glyph-name="Scedilla" unicode="&#x15e;" horiz-adv-x="1443" 
d="M594 -276q61 -37 129 -37q78 0 78 53q0 28 -27.5 51t-97.5 47l-74 27l80 98q-287 11 -442 152.5t-172 410.5h211q26 -204 137.5 -294.5t341.5 -90.5q201 0 305 76.5t104 222.5q0 98 -74.5 154.5t-244.5 85.5l-270 47q-244 43 -348.5 139.5t-104.5 278.5q0 204 167.5 326
t448.5 122q275 0 432.5 -121t169.5 -346h-202q-20 141 -124 215t-288 74q-178 0 -283.5 -69t-105.5 -179q0 -93 58 -143t198 -76l330 -61q242 -44 346 -145t104 -291q0 -219 -144 -345t-415 -143l-41 -41q78 -21 118 -70t40 -108q0 -81 -57 -131.5t-144 -50.5q-71 0 -139 41
v121z" />
    <glyph glyph-name="scedilla" unicode="&#x15f;" horiz-adv-x="1150" 
d="M1063 348q0 -164 -107.5 -266t-304.5 -117l-43 -43q78 -21 118 -70t40 -108q0 -81 -57 -131.5t-144 -50.5q-71 0 -139 41v121q61 -37 129 -37q78 0 78 53q0 28 -27.5 51t-97.5 47l-74 27l84 100q-186 18 -297 117.5t-131 275.5h191q44 -221 309 -221q132 0 206 52t74 139
q0 132 -188 149l-205 21q-187 19 -275.5 93t-88.5 206q0 163 132 264.5t347 101.5q202 0 324 -97.5t139 -283.5h-183q-35 209 -288 209q-126 0 -201.5 -49.5t-75.5 -128.5q0 -54 42 -83t138 -38l215 -22q186 -20 273.5 -100t87.5 -222z" />
    <glyph glyph-name="Scaron" unicode="&#x160;" horiz-adv-x="1443" 
d="M735 -39q-313 0 -481.5 141.5t-185.5 423.5h211q26 -204 137.5 -294.5t341.5 -90.5q201 0 305 76.5t104 222.5q0 98 -74.5 154.5t-244.5 85.5l-270 47q-244 43 -348.5 139.5t-104.5 278.5q0 204 167.5 326t448.5 122q275 0 432.5 -121t169.5 -346h-202q-20 141 -124 215
t-288 74q-178 0 -283.5 -69t-105.5 -179q0 -93 58 -143t198 -76l330 -61q242 -44 346 -145t104 -291q0 -234 -166 -362t-475 -128zM446 1985h134l145 -181l141 181h133l-196 -326h-160z" />
    <glyph glyph-name="scaron" unicode="&#x161;" horiz-adv-x="1150" 
d="M1063 348q0 -176 -124 -280.5t-349 -104.5q-217 0 -348 101t-152 294h191q44 -221 309 -221q132 0 206 52t74 139q0 132 -188 149l-205 21q-187 19 -275.5 93t-88.5 206q0 163 132 264.5t347 101.5q202 0 324 -97.5t139 -283.5h-183q-35 209 -288 209
q-126 0 -201.5 -49.5t-75.5 -128.5q0 -54 42 -83t138 -38l215 -22q186 -20 273.5 -100t87.5 -222zM303 1561h133l146 -181l141 181h133l-197 -326h-159z" />
    <glyph glyph-name="uni0162" unicode="&#x162;" horiz-adv-x="1251" 
d="M522 -10v1374h-465v197h1137v-197h-465v-1354h4l-4 -4v-16h-16l-68 -68q78 -21 118 -70t40 -108q0 -81 -57 -131.5t-144 -50.5q-71 0 -139 41v121q61 -37 129 -37q78 0 78 53q0 28 -27.5 51t-97.5 47l-74 27l104 125h-53z" />
    <glyph glyph-name="uni0163" unicode="&#x163;" horiz-adv-x="694" 
d="M197 199v772h-150v166h150v276h192v-276h248v-166h-248v-723q0 -76 44.5 -102.5t131.5 -26.5q36 0 72 4v-148q-78 -16 -158 -16h-12l-37 -37q78 -21 118 -70t40 -108q0 -81 -57 -131.5t-144 -50.5q-71 0 -139 41v121q61 -37 129 -37q78 0 78 53q0 28 -27.5 51t-97.5 47
l-74 27l92 110q-151 51 -151 224z" />
    <glyph glyph-name="Tcaron" unicode="&#x164;" horiz-adv-x="1251" 
d="M522 -10v1374h-465v197h1137v-197h-465v-1374h-207zM350 1985h133l146 -181l141 181h133l-196 -326h-160z" />
    <glyph glyph-name="tcaron" unicode="&#x165;" horiz-adv-x="694" 
d="M197 199v772h-150v166h150v276h192v-276h248v-166h-248v-723q0 -76 44.5 -102.5t131.5 -26.5q36 0 72 4v-148q-78 -16 -158 -16q-282 0 -282 240zM502 1233l65 219v211h154v-217l-119 -213h-100z" />
    <glyph glyph-name="Tbar" unicode="&#x166;" horiz-adv-x="1251" 
d="M522 -10v721h-321v163h321v490h-465v197h1137v-197h-465v-490h324v-163h-324v-721h-207z" />
    <glyph glyph-name="tbar" unicode="&#x167;" 
 />
    <glyph glyph-name="Utilde" unicode="&#x168;" horiz-adv-x="1495" 
d="M741 -39q-113 0 -203.5 18.5t-151 47.5t-105.5 72.5t-69.5 86.5t-39 98t-18.5 97.5t-4 93.5v1081h206v-1060q0 -58 6 -101.5t29 -93t62 -81.5t110.5 -53.5t169.5 -21.5q96 0 167.5 12t114.5 39t69.5 54t37.5 74.5t14 80.5t3 91v1060h207v-1081q-1 -54 -7 -101t-23 -101
t-44.5 -97t-74 -84.5t-108 -69t-150.5 -44.5t-198 -17zM438 1671q-3 108 51 177t148 69q56 0 133 -53q57 -37 94 -37q41 0 68 26t24 64h101q3 -109 -48.5 -179.5t-134.5 -70.5q-61 0 -137 49q-3 2 -19 10.5t-22 11t-18.5 7.5t-23.5 6.5t-23 1.5q-42 0 -68.5 -25t-23.5 -57
h-101z" />
    <glyph glyph-name="utilde" unicode="&#x169;" horiz-adv-x="1179" 
d="M1051 1137v-1147h-187v194h-10q-118 -221 -362 -221q-119 0 -211 55.5t-138 167.5q-30 74 -30 215v736h194v-721q0 -110 21 -164q20 -49 68 -80t118 -31q147 0 242 113q70 82 85 145t15 209v529h195zM266 1247q-3 108 51 177t148 69q56 0 133 -53q57 -37 94 -37
q41 0 68 26t24 64h101q3 -109 -48.5 -179.5t-134.5 -70.5q-61 0 -137 49q-3 2 -19 10.5t-22 11t-18.5 7.5t-23.5 6.5t-23 1.5q-42 0 -68.5 -25t-23.5 -57h-101z" />
    <glyph glyph-name="Umacron" unicode="&#x16a;" horiz-adv-x="1495" 
d="M741 -39q-113 0 -203.5 18.5t-151 47.5t-105.5 72.5t-69.5 86.5t-39 98t-18.5 97.5t-4 93.5v1081h206v-1060q0 -58 6 -101.5t29 -93t62 -81.5t110.5 -53.5t169.5 -21.5q96 0 167.5 12t114.5 39t69.5 54t37.5 74.5t14 80.5t3 91v1060h207v-1081q-1 -54 -7 -101t-23 -101
t-44.5 -97t-74 -84.5t-108 -69t-150.5 -44.5t-198 -17zM446 1704v168h603v-168h-603z" />
    <glyph glyph-name="umacron" unicode="&#x16b;" horiz-adv-x="1179" 
d="M1051 1137v-1147h-187v194h-10q-118 -221 -362 -221q-119 0 -211 55.5t-138 167.5q-30 74 -30 215v736h194v-721q0 -110 21 -164q20 -49 68 -80t118 -31q147 0 242 113q70 82 85 145t15 209v529h195zM274 1280v168h603v-168h-603z" />
    <glyph glyph-name="Ubreve" unicode="&#x16c;" horiz-adv-x="1495" 
d="M741 -39q-113 0 -203.5 18.5t-151 47.5t-105.5 72.5t-69.5 86.5t-39 98t-18.5 97.5t-4 93.5v1081h206v-1060q0 -58 6 -101.5t29 -93t62 -81.5t110.5 -53.5t169.5 -21.5q96 0 167.5 12t114.5 39t69.5 54t37.5 74.5t14 80.5t3 91v1060h207v-1081q-1 -54 -7 -101t-23 -101
t-44.5 -97t-74 -84.5t-108 -69t-150.5 -44.5t-198 -17zM438 1944h162q17 -152 145 -152q131 0 148 152h162q-13 -137 -95.5 -208t-211.5 -71q-130 0 -213.5 71t-96.5 208z" />
    <glyph glyph-name="ubreve" unicode="&#x16d;" horiz-adv-x="1179" 
d="M1051 1137v-1147h-187v194h-10q-118 -221 -362 -221q-119 0 -211 55.5t-138 167.5q-30 74 -30 215v736h194v-721q0 -110 21 -164q20 -49 68 -80t118 -31q147 0 242 113q70 82 85 145t15 209v529h195zM266 1520h162q17 -152 145 -152q131 0 148 152h162q-13 -137 -96 -208
t-212 -71q-130 0 -213 71t-96 208z" />
    <glyph glyph-name="Uring" unicode="&#x16e;" horiz-adv-x="1495" 
d="M741 -39q-113 0 -203.5 18.5t-151 47.5t-105.5 72.5t-69.5 86.5t-39 98t-18.5 97.5t-4 93.5v1081h206v-1060q0 -58 6 -101.5t29 -93t62 -81.5t110.5 -53.5t169.5 -21.5q96 0 167.5 12t114.5 39t69.5 54t37.5 74.5t14 80.5t3 91v1060h207v-1081q-1 -54 -7 -101t-23 -101
t-44.5 -97t-74 -84.5t-108 -69t-150.5 -44.5t-198 -17zM543 1860q0 87 62 149t147 62q80 0 140 -62t60 -149q0 -91 -59.5 -155.5t-140.5 -64.5q-85 0 -147 64t-62 156zM662 1858q0 -31 25.5 -54.5t62.5 -23.5q36 0 62 23.5t26 54.5q0 30 -26 53.5t-62 23.5q-38 0 -63 -23
t-25 -54z" />
    <glyph glyph-name="uring" unicode="&#x16f;" horiz-adv-x="1179" 
d="M1051 1137v-1147h-187v194h-10q-118 -221 -362 -221q-119 0 -211 55.5t-138 167.5q-30 74 -30 215v736h194v-721q0 -110 21 -164q20 -49 68 -80t118 -31q147 0 242 113q70 82 85 145t15 209v529h195zM371 1436q0 87 62 149t147 62q80 0 140 -62t60 -149q0 -91 -59.5 -155
t-140.5 -64q-86 0 -147.5 64t-61.5 155zM489 1434q0 -31 25.5 -54.5t63.5 -23.5q36 0 62 23.5t26 54.5q0 30 -26 53.5t-62 23.5q-38 0 -63.5 -23t-25.5 -54z" />
    <glyph glyph-name="Uhungarumlaut" unicode="&#x170;" horiz-adv-x="1495" 
d="M741 -39q-113 0 -203.5 18.5t-151 47.5t-105.5 72.5t-69.5 86.5t-39 98t-18.5 97.5t-4 93.5v1081h206v-1060q0 -58 6 -101.5t29 -93t62 -81.5t110.5 -53.5t169.5 -21.5q96 0 167.5 12t114.5 39t69.5 54t37.5 74.5t14 80.5t3 91v1060h207v-1081q-1 -54 -7 -101t-23 -101
t-44.5 -97t-74 -84.5t-108 -69t-150.5 -44.5t-198 -17zM553 1659l149 326h218l-254 -326h-113zM829 1659l150 326h217l-254 -326h-113z" />
    <glyph glyph-name="uhungarumlaut" unicode="&#x171;" horiz-adv-x="1179" 
d="M1051 1137v-1147h-187v194h-10q-118 -221 -362 -221q-119 0 -211 55.5t-138 167.5q-30 74 -30 215v736h194v-721q0 -110 21 -164q20 -49 68 -80t118 -31q147 0 242 113q70 82 85 145t15 209v529h195zM381 1235l149 326h218l-254 -326h-113zM657 1235l150 326h217
l-254 -326h-113z" />
    <glyph glyph-name="Uogonek" unicode="&#x172;" horiz-adv-x="1495" 
d="M639 -199q0 84 70 160q-106 2 -192 22t-143 49.5t-99.5 73t-66 86t-37 96.5t-17.5 95.5t-4 91.5v1081h206v-1060q0 -58 6 -101.5t29 -93t62 -81.5t110.5 -53.5t169.5 -21.5q96 0 167.5 12t114.5 39t69.5 54t37.5 74.5t14 80.5t3 91v1060h207v-1081q-1 -67 -10.5 -123
t-36.5 -120.5t-70.5 -112t-120 -87t-178.5 -57.5l-56 -38q-86 -59 -86 -119q0 -36 22.5 -56t61.5 -20q40 0 80 18v-112q-64 -37 -123 -37q-78 0 -134 52t-56 138z" />
    <glyph glyph-name="uogonek" unicode="&#x173;" horiz-adv-x="1179" 
d="M1051 1137v-1125l24 -8l-94 -67q-86 -59 -86 -119q0 -36 22.5 -56t61.5 -20t80 18v-112q-64 -37 -123 -37q-79 0 -135 52t-56 138q0 111 119 207v176h-10q-118 -221 -362 -221q-119 0 -211 55.5t-138 167.5q-30 74 -30 215v736h194v-721q0 -110 21 -164q20 -49 68 -80
t118 -31q147 0 242 113q70 82 85 145t15 209v529h195z" />
    <glyph glyph-name="Wcircumflex" unicode="&#x174;" horiz-adv-x="2017" 
d="M449 -10l-406 1571h201l231 -883q73 -282 98 -457h13q19 172 80 422l227 918h229l242 -975q66 -265 82 -367h14q28 218 109 535l207 807h198l-399 -1571h-246l-244 989q-52 214 -71 387h-10q-17 -161 -82 -424l-240 -952h-233zM735 1659l197 326h160l196 -326h-133
l-141 180l-146 -180h-133z" />
    <glyph glyph-name="wcircumflex" unicode="&#x175;" horiz-adv-x="1689" 
d="M371 -10l-328 1147h197l151 -543q48 -169 98 -410h17q24 158 76 357l157 596h217l146 -559q54 -211 90 -394h16q25 126 58 244l196 709h185l-326 -1147h-225l-187 702q-31 127 -53 254h-14q-18 -106 -80 -346l-162 -610h-229zM571 1235l197 326h160l196 -326h-133
l-141 180l-145 -180h-134z" />
    <glyph glyph-name="Ycircumflex" unicode="&#x176;" horiz-adv-x="1308" 
d="M6 1538v23h232l323 -639q29 -56 58 -115.5t38 -77.5h11q79 168 108 225l305 607h222v-23l-545 -1016v-532h-207v532zM379 1659l196 326h160l197 -326h-133l-142 180l-145 -180h-133z" />
    <glyph glyph-name="ycircumflex" unicode="&#x177;" horiz-adv-x="1110" 
d="M35 1116v21h201l337 -861l301 861h195v-23l-549 -1483h-190v23l139 389zM272 1235l197 326h160l196 -326h-133l-141 180l-145 -180h-134z" />
    <glyph glyph-name="Ydieresis" unicode="&#x178;" horiz-adv-x="1308" 
d="M6 1538v23h232l323 -639q29 -56 58 -115.5t38 -77.5h11q79 168 108 225l305 607h222v-23l-545 -1016v-532h-207v532zM397 1704v235h189v-235h-189zM723 1704v235h188v-235h-188z" />
    <glyph glyph-name="Zacute" unicode="&#x179;" horiz-adv-x="1251" 
d="M47 -10v182l895 1202h-829v187h1091v-183l-897 -1202h889v-186h-1149zM582 1659l149 326h232l-261 -326h-120z" />
    <glyph glyph-name="zacute" unicode="&#x17a;" horiz-adv-x="997" 
d="M51 -10v153l647 832h-616v162h840v-170l-635 -815h659v-162h-895zM434 1235l150 326h231l-260 -326h-121z" />
    <glyph glyph-name="Zdotaccent" unicode="&#x17b;" horiz-adv-x="1251" 
d="M47 -10v182l895 1202h-829v187h1091v-183l-897 -1202h889v-186h-1149zM543 1704v235h207v-235h-207z" />
    <glyph glyph-name="zdotaccent" unicode="&#x17c;" horiz-adv-x="997" 
d="M51 -10v153l647 832h-616v162h840v-170l-635 -815h659v-162h-895zM395 1280v236h207v-236h-207z" />
    <glyph glyph-name="Zcaron" unicode="&#x17d;" horiz-adv-x="1251" 
d="M47 -10v182l895 1202h-829v187h1091v-183l-897 -1202h889v-186h-1149zM371 1985h133l145 -181l142 181h133l-197 -326h-160z" />
    <glyph glyph-name="zcaron" unicode="&#x17e;" horiz-adv-x="997" 
d="M51 -10v153l647 832h-616v162h840v-170l-635 -815h659v-162h-895zM223 1561h133l146 -181l141 181h133l-196 -326h-160z" />
    <glyph glyph-name="uni018F" unicode="&#x18f;" horiz-adv-x="1712" 
d="M109 768v53h1275q-6 123 -39 225t-95 183t-162.5 126.5t-231.5 45.5q-214 0 -339.5 -114.5t-168.5 -307.5h-221q37 201 143.5 340t255 203.5t330.5 64.5q126 0 237 -31.5t205 -97.5t162 -161.5t106 -230.5t38 -298q0 -160 -38 -292.5t-106 -226.5t-162 -159t-205 -96
t-237 -31q-157 0 -291 50t-236.5 147t-161 253t-58.5 355zM336 651q12 -108 48 -197t98 -158t156 -107.5t214 -38.5q121 0 216.5 38t158 107t99.5 158t50 198h-1040z" />
    <glyph glyph-name="florin" unicode="&#x192;" horiz-adv-x="1355" 
d="M256 903h358l23 205q23 214 150.5 346.5t336.5 132.5q111 0 195 -43v-178q-91 31 -174 31q-134 0 -218.5 -81t-101.5 -231l-18 -182h373v-178h-394l-67 -641q-22 -214 -150.5 -346.5t-337.5 -132.5q-110 0 -194 43v178q91 -31 174 -31q134 0 218 80.5t101 230.5l66 619
h-340v178z" />
    <glyph glyph-name="Gcaron" unicode="&#x1e6;" horiz-adv-x="1669" 
d="M109 768q0 163 38.5 298t107.5 230.5t165.5 161.5t211.5 97.5t247 31.5q265 0 430 -118.5t204 -356.5h-213q-28 146 -140.5 219.5t-285.5 73.5q-115 0 -208 -33.5t-155.5 -91.5t-104 -139.5t-60 -174t-18.5 -198.5q0 -129 31 -240t92.5 -198t163 -137t233.5 -50
q228 0 362 123t144 344l2 31h-510v190h694v-841h-170v211h-14q-87 -127 -212 -182.5t-288 -55.5q-157 0 -291 50t-236.5 147t-161 253t-58.5 355zM602 1985h133l146 -181l141 181h133l-197 -326h-159z" />
    <glyph glyph-name="gcaron" unicode="&#x1e7;" horiz-adv-x="1228" 
d="M1100 68q0 -463 -504 -463q-433 0 -475 338h194q10 -84 84.5 -127t200.5 -43q83 0 140 16t99.5 56t62.5 110.5t20 175.5v55h-11q-32 -82 -118.5 -127t-206.5 -45q-118 0 -215.5 46.5t-160.5 126t-97.5 183t-34.5 218.5q0 116 34.5 219.5t97.5 183t160.5 126t215.5 46.5
q116 0 199.5 -43t117.5 -119h12v136h185v-1069zM281 588q0 -183 88.5 -296.5t246.5 -113.5q248 0 295 242q13 68 13 168q0 96 -13 168q-48 245 -295 245q-158 0 -246.5 -113.5t-88.5 -299.5zM336 1561h133l145 -181l142 181h133l-197 -326h-160z" />
    <glyph glyph-name="AEacute" unicode="&#x1fc;" horiz-adv-x="1998" 
d="M23 -10v35l765 1536h1119v-191h-783l62 -457h700v-184h-672l72 -549h641v-190h-811l-67 473h-584l-232 -473h-210zM553 645h471l-100 739h-11zM866 1659l150 326h231l-260 -326h-121z" />
    <glyph glyph-name="aeacute" unicode="&#x1fd;" horiz-adv-x="1966" 
d="M90 301q0 74 19 130.5t52 94t87 64.5t113 43t141 29q27 4 54.5 8t55.5 8t41 6q6 1 133 23q47 8 61.5 19.5t14.5 31.5v22q0 99 -66 155t-198 56q-142 0 -210.5 -49.5t-92.5 -159.5h-176q19 190 142.5 285.5t342.5 95.5q145 0 237.5 -46.5t143.5 -143.5q150 190 404 190
q239 0 369 -164t126 -462h-842q2 -84 24.5 -157t64.5 -131t109 -91t153 -33q127 0 211.5 74t99.5 190h184q-21 -193 -152.5 -310.5t-342.5 -117.5q-156 0 -270.5 66.5t-168.5 187.5h-10q-75 -123 -183 -186.5t-284 -63.5q-170 0 -278.5 91t-108.5 245zM283 309
q0 -83 64.5 -132.5t172.5 -49.5q151 0 247.5 90.5t96.5 231.5v135q-6 -5 -13 -9t-12.5 -7t-15.5 -6t-15 -5t-17.5 -5t-16 -3.5t-18.5 -4t-17 -3.5l-237 -45q-219 -42 -219 -187zM913 1235l150 326h231l-260 -326h-121zM1053 696h651q-20 148 -103 226.5t-204 78.5
q-138 0 -228 -77.5t-116 -227.5z" />
    <glyph glyph-name="Oslashacute" unicode="&#x1fe;" horiz-adv-x="1728" 
d="M307 190q-190 209 -190 578q0 202 58.5 361t161 257.5t236.5 149.5t291 51q241 0 430 -121l125 166l133 -100l-133 -174q92 -99 142.5 -249.5t50.5 -340.5q0 -160 -38 -292.5t-106 -226.5t-162 -159t-205 -96t-237 -31q-243 0 -432 121l-127 -166l-127 100zM328 768
q0 -235 110 -412l736 955q-130 94 -310 94q-112 0 -202.5 -33.5t-152 -91.5t-103 -139.5t-60 -174t-18.5 -198.5zM553 238q130 -93 307 -93q110 0 200.5 32.5t153 89t105 135.5t62.5 170.5t20 195.5q0 239 -113 424zM799 1659l149 326h232l-260 -326h-121z" />
    <glyph glyph-name="oslashacute" unicode="&#x1ff;" horiz-adv-x="1261" 
d="M215 154q-131 159 -131 409q0 172 66.5 308t191.5 214t289 78q169 0 311 -92l107 135l116 -92l-116 -145q129 -164 129 -406q0 -172 -66.5 -308t-191.5 -214t-289 -78q-175 0 -309 90l-105 -135l-123 88zM287 563q0 -148 53 -254l491 621q-79 63 -200 63
q-165 0 -254.5 -119t-89.5 -311zM434 193q79 -62 197 -62q165 0 254.5 119.5t89.5 312.5q0 144 -51 246zM555 1235l150 326h231l-260 -326h-121z" />
    <glyph glyph-name="uni0218" unicode="&#x218;" horiz-adv-x="1443" 
d="M735 -39q-313 0 -481.5 141.5t-185.5 423.5h211q26 -204 137.5 -294.5t341.5 -90.5q201 0 305 76.5t104 222.5q0 98 -74.5 154.5t-244.5 85.5l-270 47q-244 43 -348.5 139.5t-104.5 278.5q0 204 167.5 326t448.5 122q275 0 432.5 -121t169.5 -346h-202q-20 141 -124 215
t-288 74q-178 0 -283.5 -69t-105.5 -179q0 -93 58 -143t198 -76l330 -61q242 -44 346 -145t104 -291q0 -234 -166 -362t-475 -128zM614 -569l66 219v211h154v-217l-119 -213h-101z" />
    <glyph glyph-name="uni0219" unicode="&#x219;" horiz-adv-x="1150" 
d="M1063 348q0 -176 -124 -280.5t-349 -104.5q-217 0 -348 101t-152 294h191q44 -221 309 -221q132 0 206 52t74 139q0 132 -188 149l-205 21q-187 19 -275.5 93t-88.5 206q0 163 132 264.5t347 101.5q202 0 324 -97.5t139 -283.5h-183q-35 209 -288 209
q-126 0 -201.5 -49.5t-75.5 -128.5q0 -54 42 -83t138 -38l215 -22q186 -20 273.5 -100t87.5 -222zM446 -569l66 219v211h154v-217l-119 -213h-101z" />
    <glyph glyph-name="uni021A" unicode="&#x21a;" horiz-adv-x="1251" 
d="M522 -10v1374h-465v197h1137v-197h-465v-1374h-207zM483 -569l66 219v211h153v-217l-118 -213h-101z" />
    <glyph glyph-name="uni021B" unicode="&#x21b;" horiz-adv-x="694" 
d="M197 199v772h-150v166h150v276h192v-276h248v-166h-248v-723q0 -76 44.5 -102.5t131.5 -26.5q36 0 72 4v-148q-78 -16 -158 -16q-282 0 -282 240zM268 -569l66 219v211h153v-217l-118 -213h-101z" />
    <glyph glyph-name="uni0232" unicode="&#x232;" horiz-adv-x="1308" 
d="M6 1538v23h232l323 -639q29 -56 58 -115.5t38 -77.5h11q79 168 108 225l305 607h222v-23l-545 -1016v-532h-207v532zM354 1704v168h602v-168h-602z" />
    <glyph glyph-name="uni0233" unicode="&#x233;" horiz-adv-x="1110" 
d="M35 1116v21h201l337 -861l301 861h195v-23l-549 -1483h-190v23l139 389zM248 1280v168h602v-168h-602z" />
    <glyph glyph-name="uni0237" unicode="&#x237;" horiz-adv-x="454" 
d="M131 -369v1506h193v-1506h-193z" />
    <glyph glyph-name="uni0259" unicode="&#x259;" horiz-adv-x="1218" 
d="M1141 565q0 -126 -36 -235t-103.5 -191t-172.5 -129t-235 -47q-249 0 -388.5 165t-135.5 462h872q-3 113 -42 204t-119.5 149t-190.5 58q-131 0 -219.5 -73.5t-114.5 -190.5h-190q30 195 168 311.5t364 116.5q131 0 236 -47t171 -129t101 -190t35 -234zM268 430
q20 -148 106 -226.5t212 -78.5q137 0 228 77.5t118 227.5h-664z" />
    <glyph glyph-name="uni02BC" unicode="&#x2bc;" horiz-adv-x="468" 
d="M84 1036l78 277v248h198v-254l-137 -271h-139z" />
    <glyph glyph-name="circumflex" unicode="&#x2c6;" horiz-adv-x="667" 
d="M57 1235l197 326h160l196 -326h-133l-141 180l-146 -180h-133z" />
    <glyph glyph-name="caron" unicode="&#x2c7;" horiz-adv-x="667" 
d="M57 1561h133l146 -181l141 181h133l-196 -326h-160z" />
    <glyph glyph-name="breve" unicode="&#x2d8;" horiz-adv-x="731" 
d="M367 1241q-130 0 -213.5 71t-96.5 208h162q17 -152 146 -152q130 0 147 152h162q-13 -137 -95.5 -208t-211.5 -71z" />
    <glyph glyph-name="dotaccent" unicode="&#x2d9;" horiz-adv-x="342" 
d="M68 1280v236h206v-236h-206z" />
    <glyph glyph-name="ring" unicode="&#x2da;" horiz-adv-x="544" 
d="M276 1217q-85 0 -146.5 63.5t-61.5 155.5q0 87 61.5 149t146.5 62q80 0 140.5 -62t60.5 -149q0 -91 -60 -155t-141 -64zM186 1434q0 -31 25.5 -54.5t62.5 -23.5q36 0 62 23.5t26 54.5q0 30 -26 53.5t-62 23.5q-38 0 -63 -23t-25 -54z" />
    <glyph glyph-name="ogonek" unicode="&#x2db;" horiz-adv-x="448" 
d="M68 -199q0 111 118 207v68l211 -72l-94 -67q-86 -59 -86 -119q0 -36 22.5 -56t61.5 -20t80 18v-112q-64 -37 -123 -37q-78 0 -134 52t-56 138z" />
    <glyph glyph-name="tilde" unicode="&#x2dc;" horiz-adv-x="753" 
d="M504 1243q-61 0 -137 49q-4 2 -16.5 8.5t-17.5 9t-16 7.5t-18.5 7t-18 3.5t-20.5 1.5q-42 0 -68.5 -25t-23.5 -57h-100q-3 108 50.5 177t147.5 69q56 0 133 -53q57 -37 95 -37q41 0 68 26t24 64h100q3 -109 -48 -179.5t-134 -70.5z" />
    <glyph glyph-name="hungarumlaut" unicode="&#x2dd;" horiz-adv-x="765" 
d="M174 1235h-113l150 326h217zM338 1235l149 326h218l-254 -326h-113z" />
    <glyph glyph-name="uni0326" unicode="&#x326;" horiz-adv-x="0" 
d="M115 -569l65 219v211h154v-217l-119 -213h-100z" />
    <glyph glyph-name="anoteleia" unicode="&#x387;" horiz-adv-x="575" 
d="M180 420v260h215v-260h-215z" />
    <glyph glyph-name="uni03A9" unicode="&#x3a9;" horiz-adv-x="1724" 
d="M115 -10v182h274q-138 115 -206 276.5t-68 348.5q0 195 58 348t160.5 248.5t236.5 144.5t292 49q126 0 237 -30.5t205 -94t162 -156t106 -222.5t38 -287q0 -186 -68.5 -348t-206.5 -277h275v-182h-639v174q219 63 319.5 219.5t100.5 413.5q0 125 -30 231t-91 191
t-165.5 133.5t-242.5 48.5q-111 0 -201 -32t-150 -87.5t-100.5 -133t-58.5 -165t-18 -186.5q0 -257 100.5 -413.5t319.5 -219.5v-174h-639z" />
    <glyph glyph-name="uni03BC" unicode="&#x3bc;" horiz-adv-x="1196" 
d="M129 1137h195v-721q0 -113 20 -164q20 -49 68 -80t118 -31q147 0 242 113q70 82 85 145t15 209v529h195v-1147h-186v194h-11q-118 -221 -362 -221q-110 0 -193 45v-377h-186v1506z" />
    <glyph glyph-name="pi" unicode="&#x3c0;" horiz-adv-x="1169" 
d="M47 956v181h1073v-181h-149v-714q0 -29 6.5 -47.5t22 -25.5t28.5 -9t37 -2h57v-168h-161q-82 0 -129.5 52t-47.5 144v770h-399v-966h-186v966h-152z" />
    <glyph glyph-name="uni0400" unicode="&#x400;" horiz-adv-x="1228" 
d="M150 -10v1571h987v-197h-781v-451h760v-190l-760 2v-539h801v-196h-1007zM350 1985h232l149 -326h-121z" />
    <glyph glyph-name="uni0401" unicode="&#x401;" horiz-adv-x="1228" 
d="M150 -10v1571h987v-197h-781v-451h760v-190l-760 2v-539h801v-196h-1007zM393 1704v235h189v-235h-189zM719 1704v235h188v-235h-188z" />
    <glyph glyph-name="uni0402" unicode="&#x402;" horiz-adv-x="1779" 
d="M1452 549q0 358 -326 358q-216 0 -352.5 -140t-136.5 -372v-405h-207v1374h-383v197h1157v-197h-567v-551h6q159 291 504 291q237 0 365 -140.5t128 -408.5v-205q0 -188 -105 -281.5t-271 -93.5q-84 0 -191 17v162q101 -11 139 -11q240 0 240 203v203z" />
    <glyph glyph-name="uni0403" unicode="&#x403;" horiz-adv-x="1085" 
d="M150 -10v1571h909v-197h-703v-1374h-206zM539 1659l149 326h232l-261 -326h-120z" />
    <glyph glyph-name="uni0404" unicode="&#x404;" horiz-adv-x="1611" 
d="M109 768q0 202 60 361t163.5 257.5t236.5 149.5t285 51q133 0 233 -28t195 -95q96 -68 160.5 -178t85.5 -254h-217q-24 165 -144 273q-63 57 -139 78.5t-176 21.5q-118 -1 -213 -39.5t-157.5 -106t-99.5 -155.5t-48 -193l768 2v-190l-778 2q3 -121 36.5 -224.5t97 -184.5
t164.5 -127t230 -46q208 0 329.5 114t145.5 300h215q-15 -147 -75.5 -262t-154.5 -186.5t-211.5 -108.5t-252.5 -37q-234 0 -402 101.5t-252.5 281.5t-84.5 422z" />
    <glyph glyph-name="uni0405" unicode="&#x405;" horiz-adv-x="1443" 
d="M735 -39q-313 0 -481.5 141.5t-185.5 423.5h211q26 -204 137.5 -294.5t341.5 -90.5q201 0 305 76.5t104 222.5q0 98 -74.5 154.5t-244.5 85.5l-270 47q-244 43 -348.5 139.5t-104.5 278.5q0 204 167.5 326t448.5 122q275 0 432.5 -121t169.5 -346h-202q-20 141 -124 215
t-288 74q-178 0 -283.5 -69t-105.5 -179q0 -93 58 -143t198 -76l330 -61q242 -44 346 -145t104 -291q0 -234 -166 -362t-475 -128z" />
    <glyph glyph-name="uni0406" unicode="&#x406;" horiz-adv-x="505" 
d="M150 -10v1571h206v-1571h-206z" />
    <glyph glyph-name="uni0407" unicode="&#x407;" horiz-adv-x="505" 
d="M319 1704v235h168v-235h-168zM18 1704v235h168v-235h-168zM150 -10v1571h206v-1571h-206z" />
    <glyph glyph-name="uni0408" unicode="&#x408;" horiz-adv-x="1136" 
d="M506 -37q-237 0 -360.5 161t-125.5 433h207q13 -405 287 -405q78 0 131 27t82 80t41 119.5t12 158.5v1024h207v-1020q0 -578 -481 -578z" />
    <glyph glyph-name="uni0409" unicode="&#x409;" horiz-adv-x="2201" 
d="M1047 -10v1378h-510l-9 -244q-12 -388 -77.5 -680.5t-171.5 -453.5h-238v39q103 130 166.5 320.5t90 402t36.5 505.5l10 304h909v-652h297q207 0 318 -41q122 -48 189 -154t67 -263q0 -155 -66.5 -263.5t-185.5 -154.5q-115 -43 -342 -43h-483zM1253 174h289
q131 0 201 19q170 45 170 253q0 216 -176 263q-59 16 -215 16h-269v-551z" />
    <glyph glyph-name="uni040A" unicode="&#x40a;" horiz-adv-x="2265" 
d="M150 -10v1571h206v-648h754v648h207v-650h297q206 0 317 -41q122 -48 189 -154.5t67 -264.5q0 -155 -66.5 -263.5t-185.5 -154.5q-115 -43 -342 -43h-483v733h-754v-733h-206zM1317 172h289q134 0 200 18q170 45 170 256q0 216 -176 263q-59 16 -215 16h-268v-553z" />
    <glyph glyph-name="uni040B" unicode="&#x40b;" horiz-adv-x="1779" 
d="M47 1364v197h1157v-197h-567v-551h10q149 289 500 289q234 0 363.5 -140.5t129.5 -406.5v-565h-202v557q0 170 -73 261t-239 91q-217 0 -353 -136.5t-136 -361.5v-411h-203v1374h-387z" />
    <glyph glyph-name="uni040C" unicode="&#x40c;" horiz-adv-x="1318" 
d="M150 -10v1571h206v-783l650 783h233v-23l-539 -635l615 -885v-28h-230l-530 770l-199 -238v-532h-206zM571 1659l150 326h231l-260 -326h-121z" />
    <glyph glyph-name="uni040D" unicode="&#x40d;" horiz-adv-x="1576" 
d="M150 -10v1571h202v-959q0 -80 -4 -256q-1 -15 -2 -44.5t-2 -45.5h12l838 1305h233v-1571h-202v831q0 193 16 479h-12l-848 -1310h-231zM473 1985h232l149 -326h-121z" />
    <glyph glyph-name="uni040E" unicode="&#x40e;" horiz-adv-x="1265" 
d="M6 1536v25h223l306 -637q21 -45 43 -86q57 -118 88 -195h10q38 111 119 307l256 611h202l9 -19l-684 -1567h-213v23l194 432zM254 1935h184q34 -157 195 -157q80 0 129 37t67 120h185q-17 -151 -118.5 -229t-260.5 -78q-160 0 -262 78t-119 229z" />
    <glyph glyph-name="uni040F" unicode="&#x40f;" horiz-adv-x="1490" 
d="M1341 -10h-497v-359h-195v359h-499v1571h206v-1381h779v1381h206v-1571z" />
    <glyph glyph-name="uni0410" unicode="&#x410;" horiz-adv-x="1449" 
d="M23 -10l571 1571h262l571 -1571h-210l-168 465h-648l-168 -465h-210zM469 645h512l-195 539q-36 99 -55 166h-12q-19 -67 -55 -166z" />
    <glyph glyph-name="uni0411" unicode="&#x411;" horiz-adv-x="1388" 
d="M150 -10v1571h1044v-197h-838v-455h357q116 0 186.5 -7.5t130.5 -29.5q122 -48 189 -154.5t67 -260.5q0 -159 -70 -269.5t-198 -160.5q-97 -37 -326 -37h-542zM356 174h344q128 0 195 19q176 46 176 260q0 211 -176 258q-59 16 -215 16h-324v-553z" />
    <glyph glyph-name="uni0412" unicode="&#x412;" horiz-adv-x="1431" 
d="M150 -10v1571h538q135 0 205 -6.5t137 -28.5q114 -39 180 -131t66 -215q0 -127 -69 -220.5t-183 -121.5q135 -32 217 -131t82 -250q0 -159 -74 -268.5t-209 -159.5q-108 -39 -356 -39h-534zM356 176h322q149 0 229 19q199 47 199 249q0 210 -186 254q-86 21 -201 21h-363
v-543zM356 905h295q149 0 223 17q189 44 189 227q0 167 -156 209q-66 18 -256 18h-295v-471z" />
    <glyph glyph-name="uni0413" unicode="&#x413;" horiz-adv-x="1085" 
d="M150 -10v1571h909v-197h-703v-1374h-206z" />
    <glyph glyph-name="uni0414" unicode="&#x414;" horiz-adv-x="1536" 
d="M1321 1561v-1362h188v-512h-194v305h-1094v-305h-194v512h141q61 110 102.5 251.5t62.5 311t30 322.5t12 356l2 121h944zM369 184h751v1194h-555q-9 -401 -50.5 -698.5t-145.5 -495.5z" />
    <glyph glyph-name="uni0415" unicode="&#x415;" horiz-adv-x="1228" 
d="M150 -10v1571h987v-197h-781v-451h760v-190l-760 2v-539h801v-196h-1007z" />
    <glyph glyph-name="uni0416" unicode="&#x416;" horiz-adv-x="2109" 
d="M4 -10v26l584 940l-502 568v37h229l646 -777v777h188v-777l645 777h229v-37l-501 -568l583 -940v-26h-221l-500 835l-235 -274v-561h-188v561l-236 274l-500 -835h-221z" />
    <glyph glyph-name="uni0417" unicode="&#x417;" horiz-adv-x="1460" 
d="M735 -37q-322 0 -481 135.5t-184 411.5h215q18 -179 125 -274t327 -95q197 0 302.5 91.5t105.5 226.5q0 125 -86.5 191.5t-245.5 66.5h-313v184h282q158 0 238 54t80 173q0 130 -92.5 206.5t-280.5 76.5q-106 0 -182.5 -21t-124.5 -63t-74.5 -96t-38.5 -129h-211
q39 485 633 485q288 0 432 -119t144 -315q0 -118 -67 -203.5t-181 -124.5q133 -23 214 -124t81 -240q0 -221 -166.5 -359.5t-450.5 -138.5z" />
    <glyph glyph-name="uni0418" unicode="&#x418;" horiz-adv-x="1576" 
d="M150 -10v1571h202v-959q0 -80 -4 -256q-1 -15 -2 -44.5t-2 -45.5h12l838 1305h233v-1571h-202v831q0 193 16 479h-12l-848 -1310h-231z" />
    <glyph glyph-name="uni0419" unicode="&#x419;" horiz-adv-x="1576" 
d="M150 -10v1571h202v-959q0 -80 -4 -256q-1 -15 -2 -44.5t-2 -45.5h12l838 1305h233v-1571h-202v831q0 193 16 479h-12l-848 -1310h-231zM410 1935h184q34 -157 194 -157q163 0 197 157h184q-17 -151 -118 -229t-260 -78q-160 0 -262 78t-119 229z" />
    <glyph glyph-name="uni041A" unicode="&#x41a;" horiz-adv-x="1318" 
d="M150 -10v1571h206v-783l650 783h233v-23l-539 -635l615 -885v-28h-230l-530 770l-199 -238v-532h-206z" />
    <glyph glyph-name="uni041B" unicode="&#x41b;" horiz-adv-x="1458" 
d="M1102 -10v1378h-565l-9 -244q-12 -388 -77.5 -680.5t-171.5 -453.5h-238v39q103 130 166.5 320.5t90 402t36.5 505.5l10 304h965v-1571h-207z" />
    <glyph glyph-name="uni041C" unicode="&#x41c;" horiz-adv-x="1923" 
d="M150 -10v1571h311l416 -1065q63 -166 81 -226h15q16 61 94 258l403 1033h304v-1571h-199v1325h-8l-518 -1325h-175l-518 1325h-8v-1325h-198z" />
    <glyph glyph-name="uni041D" unicode="&#x41d;" horiz-adv-x="1531" 
d="M150 -10v1571h206v-648h820v648h206v-1571h-206v733h-820v-733h-206z" />
    <glyph glyph-name="uni041E" unicode="&#x41e;" horiz-adv-x="1712" 
d="M856 -37q-157 0 -291 50t-236.5 147t-161 253t-58.5 355q0 202 58.5 361t161 257.5t236.5 149.5t291 51q126 0 237 -31.5t205 -97.5t162 -161.5t106 -230.5t38 -298q0 -160 -38 -292.5t-106 -226.5t-162 -159t-205 -96t-237 -31zM328 768q0 -102 18.5 -192.5t59.5 -169
t101 -135t148.5 -89t196.5 -32.5q136 0 240.5 48.5t167 134.5t93.5 195.5t31 239.5q0 105 -18 197t-58.5 173t-101 139t-150 91t-200.5 33t-200.5 -33t-150 -91t-101 -139t-58.5 -173t-18 -197z" />
    <glyph glyph-name="uni041F" unicode="&#x41f;" horiz-adv-x="1527" 
d="M150 -10v1571h1228v-1571h-207v1380h-815v-1380h-206z" />
    <glyph glyph-name="uni0420" unicode="&#x420;" horiz-adv-x="1341" 
d="M150 -10v1571h520q212 0 327 -43q125 -50 196 -164.5t71 -272.5q0 -161 -70.5 -274.5t-192.5 -161.5q-118 -45 -352 -45h-293v-610h-206zM356 782h301q135 0 209 21q87 24 135 92.5t48 181.5q0 226 -189 279q-70 20 -182 20h-322v-594z" />
    <glyph glyph-name="uni0421" unicode="&#x421;" horiz-adv-x="1615" 
d="M852 -37q-343 0 -543 215q-95 99 -147.5 249.5t-52.5 340.5q0 202 60.5 361t165 257.5t237.5 149.5t286 51q133 0 233 -28t195 -95q96 -68 160.5 -178t85.5 -254h-215q-27 166 -146 273q-63 57 -139 78.5t-176 21.5q-110 -1 -199 -34.5t-150 -91.5t-101.5 -139
t-59 -173.5t-18.5 -198.5q0 -130 31.5 -240.5t93.5 -197t165.5 -136t237.5 -49.5q208 0 328.5 112.5t148.5 299.5h213q-15 -147 -75.5 -262t-154.5 -186.5t-211.5 -108.5t-252.5 -37z" />
    <glyph glyph-name="uni0422" unicode="&#x422;" horiz-adv-x="1251" 
d="M522 -10v1374h-465v197h1137v-197h-465v-1374h-207z" />
    <glyph glyph-name="uni0423" unicode="&#x423;" horiz-adv-x="1265" 
d="M6 1536v25h223l306 -637q21 -45 43 -86q57 -118 88 -195h10q38 111 119 307l256 611h202l9 -19l-684 -1567h-213v23l194 432z" />
    <glyph glyph-name="uni0424" unicode="&#x424;" horiz-adv-x="1814" 
d="M109 791q0 123 33.5 221.5t91 164t140.5 110t176.5 66t203.5 25.5l53 2v207h203v-207l61 -2q110 -4 202.5 -25t173.5 -65t137.5 -110t89 -164.5t32.5 -222.5q0 -558 -651 -586l-45 -2v-240h-203v240l-45 2q-97 4 -179.5 19.5t-157 45t-131.5 75.5t-99 108.5t-64 148
t-22 189.5zM328 791q0 -426 469 -426h12v854h-16q-232 0 -348.5 -105t-116.5 -323zM1008 365h14q233 0 349 104t116 322q0 428 -469 428h-10v-854z" />
    <glyph glyph-name="uni0425" unicode="&#x425;" horiz-adv-x="1316" 
d="M16 -10v30l525 789l-484 725v27h234l377 -603l379 603h221v-25l-486 -727l518 -793v-26h-227l-414 665l-417 -665h-226z" />
    <glyph glyph-name="uni0426" unicode="&#x426;" horiz-adv-x="1533" 
d="M150 -10v1571h206v-1381h756v1381h207v-1362h188v-512h-194v303h-1163z" />
    <glyph glyph-name="uni0427" unicode="&#x427;" horiz-adv-x="1400" 
d="M113 1092v469h198v-469q0 -119 31 -201q75 -186 373 -186q222 0 329 90v766h207v-1571h-207v614q-151 -84 -366 -84q-394 0 -514 277q-51 109 -51 295z" />
    <glyph glyph-name="uni0428" unicode="&#x428;" horiz-adv-x="2230" 
d="M150 -10v1571h206v-1381h658l-2 1381h207l-2 -1381h657v1381h207v-1571h-1931z" />
    <glyph glyph-name="uni0429" unicode="&#x429;" horiz-adv-x="2211" 
d="M150 -10v1571h206v-1381h617l-2 1381h207l-2 -1381h616v1381h207v-1362h186v-512h-194v303h-1841z" />
    <glyph glyph-name="uni042A" unicode="&#x42a;" horiz-adv-x="1691" 
d="M47 1364v197h658v-652h342q215 0 315 -37q121 -48 186.5 -154.5t65.5 -260.5q0 -159 -67 -268.5t-187 -155.5q-112 -43 -340 -43h-522v1374h-451zM705 174h327q131 0 201 19q170 45 170 264q0 205 -176 252q-59 16 -215 16h-307v-551z" />
    <glyph glyph-name="uni042B" unicode="&#x42b;" horiz-adv-x="1808" 
d="M1452 -10v1571h207v-1571h-207zM150 -10v1571h206v-652h306q215 0 315 -37q121 -48 186.5 -154.5t65.5 -260.5q0 -159 -67 -268.5t-187 -155.5q-112 -43 -336 -43h-489zM356 174h291q131 0 201 19q170 45 170 264q0 205 -176 252q-59 16 -215 16h-271v-551z" />
    <glyph glyph-name="uni042C" unicode="&#x42c;" horiz-adv-x="1359" 
d="M700 174q131 0 201 19q170 45 170 264q0 205 -176 252q-59 16 -215 16h-324v-551h344zM150 -10v1571h206v-652h359q215 0 315 -37q121 -48 186.5 -154.5t65.5 -260.5q0 -159 -67 -268.5t-187 -155.5q-112 -43 -340 -43h-538z" />
    <glyph glyph-name="uni042D" unicode="&#x42d;" horiz-adv-x="1599" 
d="M768 -37q-133 0 -250 37t-211.5 108.5t-157 186.5t-79.5 262h209q31 -186 156 -300t331 -114q129 0 227.5 45.5t159 126.5t92.5 184t37 226l-766 -2v190l758 -2q-14 108 -50 195.5t-95 155.5t-148.5 105.5t-202.5 37.5q-191 0 -311 -98t-156 -275h-209q41 265 222.5 410
t455.5 145q143 0 269.5 -51t226 -149.5t157.5 -257.5t58 -361q0 -370 -190 -587.5t-533 -217.5z" />
    <glyph glyph-name="uni042E" unicode="&#x42e;" horiz-adv-x="2193" 
d="M1358 -37q-148 0 -275.5 47.5t-226.5 139.5t-158.5 239.5t-66.5 335.5h-275v-735h-206v1571h206v-648h283q19 167 83 297.5t161 211.5t217 123t258 42q122 0 230 -31.5t199.5 -97.5t157.5 -161.5t103 -230.5t37 -298q0 -199 -57 -355t-156.5 -253t-230 -147t-283.5 -50z
M844 768q0 -129 30 -238t89.5 -195.5t159.5 -135.5t231 -49q133 0 234.5 48.5t162 134.5t91 195.5t30.5 239.5q0 133 -29 244t-88.5 200t-160.5 139t-236 50t-236 -50t-160.5 -139t-88.5 -200t-29 -244z" />
    <glyph glyph-name="uni042F" unicode="&#x42f;" horiz-adv-x="1476" 
d="M82 -10v26l407 666q-165 36 -257.5 146t-92.5 284q0 149 72.5 258.5t200.5 153.5q110 37 342 37h573v-1571h-209v669h-407l-406 -669h-223zM348 1100q0 -100 50 -160.5t139 -81.5q82 -20 219 -20h362v534h-364q-136 0 -201 -16q-205 -52 -205 -256z" />
    <glyph glyph-name="uni0430" unicode="&#x430;" horiz-adv-x="1157" 
d="M90 317q0 81 29.5 142t87 101t129.5 65t170 41q202 33 358 53l-2 41q-5 156 -139 209q-54 22 -127 22q-254 0 -295 -209h-188q9 79 42 146.5t90 120.5t146 83.5t201 30.5q216 0 334 -101t118 -304v-768h-180v151h-8q-57 -90 -153.5 -134t-206.5 -44q-77 0 -148.5 22
t-129.5 64.5t-93 111.5t-35 156zM295 317q0 -86 61.5 -140t169.5 -54q100 0 196.5 60t129.5 161q16 61 14 133l-2 94q-143 -21 -346 -65q-128 -26 -175.5 -73.5t-47.5 -115.5z" />
    <glyph glyph-name="uni0431" unicode="&#x431;" horiz-adv-x="1253" 
d="M629 -37q-164 0 -288 76.5t-189.5 210t-65.5 303.5v268q0 145 28 249.5t93.5 188.5t173.5 142t270 100l402 103v-185l-385 -98q-212 -55 -300 -143t-102 -234l-2 -37q50 99 152.5 151t234.5 52q237 0 381 -148.5t144 -406.5q0 -170 -66.5 -304t-191.5 -211t-289 -77z
M287 555q0 -191 88.5 -306.5t253.5 -115.5t253.5 115.5t88.5 306.5q0 160 -90 270.5t-252 110.5t-252 -110.5t-90 -270.5z" />
    <glyph glyph-name="uni0432" unicode="&#x432;" horiz-adv-x="1138" 
d="M129 -10v1147h520q134 0 211 -21q170 -56 170 -250q0 -183 -184 -256q106 -28 163.5 -99.5t57.5 -178.5q0 -114 -58.5 -193.5t-166.5 -118.5q-86 -30 -285 -30h-428zM315 152h301q244 0 244 188q0 125 -110 174q-54 25 -213 25h-222v-387zM315 686h240q129 0 182 21
q50 18 72 49.5t22 81.5q0 84 -73 116q-47 23 -164 23h-279v-291z" />
    <glyph glyph-name="uni0433" unicode="&#x433;" horiz-adv-x="874" 
d="M129 -10v1147h698v-174h-503v-973h-195z" />
    <glyph glyph-name="uni0434" unicode="&#x434;" horiz-adv-x="1273" 
d="M874 147v828h-430l-10 -535q-6 -224 -102 -293h542zM51 -315v462q85 0 141.5 62.5t59.5 163.5l22 764h789v-981h151v-471h-174v307h-802h-13v-307h-174z" />
    <glyph glyph-name="uni0435" unicode="&#x435;" horiz-adv-x="1222" 
d="M1143 397q-27 -209 -164 -321.5t-352 -112.5q-248 0 -398.5 169t-150.5 431q0 178 73 320t201 213q119 67 271 67q88 0 127 -6q94 -17 190 -84q97 -70 152.5 -205t52.5 -331h-871q-3 -17 0 -43q6 -70 27 -132q39 -105 125.5 -165t210.5 -60q189 0 268 135q32 51 49 125
h189zM285 702h663q-12 124 -82 203t-184 92q-23 2 -53 2q-127 0 -215 -69t-121 -185q-4 -20 -4 -26z" />
    <glyph glyph-name="uni0436" unicode="&#x436;" horiz-adv-x="1609" 
d="M719 -10v409l-137 144l-359 -553h-203v26l431 650l-410 444v27h213l465 -533v533h172v-533l465 533h213v-27l-410 -444l430 -650v-26h-203l-358 553l-137 -144v-409h-172z" />
    <glyph glyph-name="uni0437" unicode="&#x437;" horiz-adv-x="1120" 
d="M571 -39q-244 0 -369.5 123.5t-131.5 327.5h188q8 -129 88 -208t236 -79q132 0 205 57.5t73 155.5q0 55 -19.5 91.5t-58.5 56t-86 27t-112 7.5h-172v158h163q244 0 244 151q0 81 -59 124.5t-176 43.5q-81 0 -139 -17.5t-92 -50.5t-52 -71.5t-25 -89.5h-184
q12 196 138 295.5t354 99.5q192 0 307 -81t115 -232q0 -82 -39.5 -145t-110.5 -99q193 -67 193 -274q0 -167 -131.5 -269t-346.5 -102z" />
    <glyph glyph-name="uni0438" unicode="&#x438;" horiz-adv-x="1173" 
d="M129 -10v1147h174v-934l502 934h239v-1147h-174v934l-501 -934h-240z" />
    <glyph glyph-name="uni0439" unicode="&#x439;" horiz-adv-x="1173" 
d="M129 -10v1147h174v-934l502 934h239v-1147h-174v934l-501 -934h-240zM209 1511h184q34 -157 195 -157q80 0 129 37t67 120h185q-17 -151 -118.5 -229t-260.5 -78q-160 0 -262 78t-119 229z" />
    <glyph glyph-name="uni043A" unicode="&#x43a;" horiz-adv-x="1062" 
d="M129 -10v1147h193v-498l479 498h221v-29l-424 -430l444 -662v-26h-208l-369 565l-143 -145v-420h-193z" />
    <glyph glyph-name="uni043B" unicode="&#x43b;" horiz-adv-x="1212" 
d="M469 975l-27 -678q-7 -167 -89.5 -240t-241.5 -73h-50v170h52q74 0 107 35.5t36 121.5l33 826h794v-1147h-188v985h-426z" />
    <glyph glyph-name="uni043C" unicode="&#x43c;" horiz-adv-x="1529" 
d="M129 -10v1147h279l266 -676q58 -147 90 -264h10q26 107 72 227l270 713h285v-1147h-187v788q0 121 5 180h-9l-366 -968h-164l-375 968h-6q10 -105 10 -313v-655h-180z" />
    <glyph glyph-name="uni043D" unicode="&#x43d;" horiz-adv-x="1173" 
d="M129 -10v1147h190v-447h535v447h190v-1147h-190v528h-535v-528h-190z" />
    <glyph glyph-name="uni043E" unicode="&#x43e;" horiz-adv-x="1249" 
d="M625 -37q-164 0 -289 78t-191.5 214t-66.5 308t66.5 308t191.5 214t289 78t289 -78.5t191 -214t66 -307.5t-66 -307.5t-191 -214t-289 -78.5zM283 563q0 -193 88.5 -310.5t253.5 -117.5t253.5 117.5t88.5 310.5q0 192 -88.5 310t-253.5 118t-253.5 -118t-88.5 -310z" />
    <glyph glyph-name="uni043F" unicode="&#x43f;" horiz-adv-x="1144" 
d="M129 -10v1147h887v-1147h-195v975h-497v-975h-195z" />
    <glyph glyph-name="uni0440" unicode="&#x440;" horiz-adv-x="1251" 
d="M129 1137h184v-142h11q37 80 123 124t204 44q122 0 222 -49t165 -132t100.5 -191t35.5 -228t-35.5 -228t-100.5 -191t-165 -132t-222 -49q-110 0 -192.5 38.5t-122.5 107.5h-12v-478h-195v1506zM305 563q0 -110 12 -176q23 -124 101.5 -188t204.5 -64q161 0 254.5 118.5
t93.5 309.5t-93.5 309.5t-254.5 118.5q-126 0 -204.5 -64t-101.5 -188q-12 -66 -12 -176z" />
    <glyph glyph-name="uni0441" unicode="&#x441;" horiz-adv-x="1185" 
d="M1116 397q-28 -209 -158.5 -321.5t-341.5 -112.5q-163 0 -286 78t-187.5 213.5t-64.5 308.5q0 269 151 434.5t398 165.5q69 0 125 -10q147 -29 237.5 -132t110.5 -269h-191q-37 189 -207 233q-27 6 -81 6q-164 0 -254.5 -118t-90.5 -310t92.5 -310t258.5 -118
q125 0 200 69t97 193h192z" />
    <glyph glyph-name="uni0442" unicode="&#x442;" horiz-adv-x="933" 
d="M47 963v174h840v-174h-324v-973h-192v973h-324z" />
    <glyph glyph-name="uni0443" unicode="&#x443;" horiz-adv-x="1110" 
d="M35 1116v21h201l337 -861l301 861h195v-23l-549 -1483h-190v23l139 389z" />
    <glyph glyph-name="uni0444" unicode="&#x444;" horiz-adv-x="1822" 
d="M272 565q0 -198 73 -314t218 -116q150 0 221 160q43 115 43 270q0 149 -43 264q-71 162 -231 162q-138 0 -209.5 -116t-71.5 -310zM78 563q0 262 117.5 424t316.5 162q103 0 179 -43.5t126 -147.5h6l-2 512h180l-2 -512h7q34 71 89 115.5t107 60t109 15.5
q199 0 316.5 -162t117.5 -424q0 -263 -118.5 -424.5t-321.5 -161.5q-180 0 -306 203h-6l4 -135l4 -414h-180l4 414l4 135h-6q-112 -203 -305 -203q-203 0 -321.5 161.5t-118.5 424.5zM995 559q0 -149 43 -264q71 -160 222 -160q145 0 217.5 116t72.5 314q0 195 -72 310.5
t-216 115.5q-76 0 -134 -40t-90 -115q-43 -107 -43 -277z" />
    <glyph glyph-name="uni0445" unicode="&#x445;" horiz-adv-x="1120" 
d="M12 -10l426 592l-397 555h233l283 -437l281 437h223l-387 -541l434 -606h-234l-319 489l-319 -489h-224z" />
    <glyph glyph-name="uni0446" unicode="&#x446;" horiz-adv-x="1191" 
d="M129 -10v1147h190v-979h506v979h191v-979h117v-473h-175v305h-829z" />
    <glyph glyph-name="uni0447" unicode="&#x447;" horiz-adv-x="1130" 
d="M94 831v306h195v-316q0 -122 77 -192t224 -70q152 0 217 59v519h194v-1147h-194v463q-104 -58 -252 -58q-97 0 -179.5 26t-146 78t-99.5 137t-36 195z" />
    <glyph glyph-name="uni0448" unicode="&#x448;" horiz-adv-x="1615" 
d="M129 -10v1147h195v-979h387v979h194v-979h387v979h195v-1147h-1358z" />
    <glyph glyph-name="uni0449" unicode="&#x449;" horiz-adv-x="1662" 
d="M1489 158h115v-473h-174v305h-1301v1147h195v-979h387v979h194v-979h387v979h195v-985z" />
    <glyph glyph-name="uni044A" unicode="&#x44a;" horiz-adv-x="1251" 
d="M43 975v162h434v-396h338q108 0 174 -24q99 -37 157 -126.5t58 -211.5q0 -132 -57 -223.5t-158 -130.5q-87 -35 -237 -35h-465v985h-244zM477 166h283q99 0 147 22q97 50 97 183q0 134 -101 182q-40 18 -121 18h-305v-405z" />
    <glyph glyph-name="uni044B" unicode="&#x44b;" horiz-adv-x="1495" 
d="M129 -10v1147h195v-432h321q100 0 170 -23q96 -36 152.5 -121t56.5 -201q0 -126 -55.5 -212.5t-153.5 -124.5q-86 -33 -231 -33h-455zM324 158h258q95 0 143 22q94 47 94 172q0 127 -98 172q-42 19 -119 19h-278v-385zM1171 -10v1147h195v-1147h-195z" />
    <glyph glyph-name="uni044C" unicode="&#x44c;" horiz-adv-x="1118" 
d="M129 -10v1147h190v-396h363q108 0 174 -24q99 -37 157 -126.5t58 -211.5q0 -132 -57 -223.5t-158 -130.5q-87 -35 -238 -35h-489zM319 166h308q99 0 147 22q96 49 96 183q0 135 -100 182q-40 18 -121 18h-330v-405z" />
    <glyph glyph-name="uni044D" unicode="&#x44d;" horiz-adv-x="1204" 
d="M266 399q24 -123 104.5 -196.5t213.5 -73.5q109 0 188 53t115.5 136t36.5 184h-523v174h514q-14 151 -97 235t-234 84q-240 0 -301 -241h-195q32 195 164.5 302t335.5 107q254 0 396 -163t142 -439q0 -175 -60 -308.5t-185 -212.5t-301 -79q-214 0 -351.5 121t-158.5 317
h196z" />
    <glyph glyph-name="uni044E" unicode="&#x44e;" horiz-adv-x="1607" 
d="M129 -10v1147h195v-453h182q30 222 167.5 346.5t340.5 124.5q229 0 372.5 -158t143.5 -434t-143.5 -434t-372.5 -158q-221 0 -362.5 146.5t-153.5 404.5h-174v-532h-195zM694 563q0 -89 16.5 -162t52.5 -132.5t99.5 -92.5t149.5 -33t150 33t100.5 92.5t53.5 132.5t17 162
t-17 162t-53.5 132.5t-100.5 92.5t-150 33t-149.5 -33t-99.5 -92.5t-52.5 -132.5t-16.5 -162z" />
    <glyph glyph-name="uni044F" unicode="&#x44f;" horiz-adv-x="1155" 
d="M61 -10v33l254 456q-104 40 -163.5 115.5t-59.5 185.5q0 123 62.5 209t167.5 121q94 27 221 27h483v-1147h-195v448h-329l-240 -448h-201zM293 778q0 -117 115 -160q55 -24 163 -24h260v383h-264q-101 0 -151 -21q-123 -45 -123 -178z" />
    <glyph glyph-name="uni0450" unicode="&#x450;" horiz-adv-x="1222" 
d="M1143 397q-27 -209 -164 -321.5t-352 -112.5q-248 0 -398.5 169t-150.5 431q0 178 73 320t201 213q119 67 271 67q88 0 127 -6q94 -17 190 -84q97 -70 152.5 -205t52.5 -331h-871q-3 -17 0 -43q6 -70 27 -132q39 -105 125.5 -165t210.5 -60q189 0 268 135q32 51 49 125
h189zM285 702h663q-12 124 -82 203t-184 92q-23 2 -53 2q-127 0 -215 -69t-121 -185q-4 -20 -4 -26zM311 1561h232l149 -326h-121z" />
    <glyph glyph-name="uni0451" unicode="&#x451;" horiz-adv-x="1222" 
d="M1143 397q-27 -209 -164 -321.5t-352 -112.5q-248 0 -398.5 169t-150.5 431q0 178 73 320t201 213q119 67 271 67q88 0 127 -6q94 -17 190 -84q97 -70 152.5 -205t52.5 -331h-871q-3 -17 0 -43q6 -70 27 -132q39 -105 125.5 -165t210.5 -60q189 0 268 135q32 51 49 125
h189zM285 702h663q-12 124 -82 203t-184 92q-23 2 -53 2q-127 0 -215 -69t-121 -185q-4 -20 -4 -26zM369 1280v236h188v-236h-188zM694 1280v236h189v-236h-189z" />
    <glyph glyph-name="uni0452" unicode="&#x452;" horiz-adv-x="1222" 
d="M172 -10v1265h-115v138h115v168h195v-168h282v-138h-282v-297h10q119 205 354 205q119 0 210.5 -55.5t137.5 -167.5q31 -76 31 -215v-768q0 -87 -23 -153t-64.5 -104.5t-93 -57.5t-112.5 -19q-74 0 -143 10v154q46 -4 92 -4q79 0 114 40.5t35 129.5v758q0 112 -20 163
q-20 49 -68 80t-118 31q-147 0 -242 -113q-70 -82 -85 -145t-15 -209v-528h-195z" />
    <glyph glyph-name="uni0453" unicode="&#x453;" horiz-adv-x="874" 
d="M129 -10v1147h698v-174h-503v-973h-195zM420 1235l149 326h232l-260 -326h-121z" />
    <glyph glyph-name="uni0454" unicode="&#x454;" horiz-adv-x="1204" 
d="M803 520h-520q5 -81 27.5 -150t63 -123.5t105 -86t146.5 -31.5q133 0 212.5 73.5t100.5 196.5h197q-21 -197 -156.5 -317.5t-349.5 -120.5q-132 0 -238 47t-173.5 129t-103.5 190t-36 234t36.5 235t105.5 191t175 129t238 47q103 0 174 -20q134 -38 215.5 -142.5
t93.5 -246.5h-194q-19 117 -91.5 179t-195.5 62q-143 0 -228.5 -83t-113.5 -218h510v-174z" />
    <glyph glyph-name="uni0455" unicode="&#x455;" horiz-adv-x="1150" 
d="M1063 348q0 -176 -124 -280.5t-349 -104.5q-217 0 -348 101t-152 294h191q44 -221 309 -221q132 0 206 52t74 139q0 132 -188 149l-205 21q-187 19 -275.5 93t-88.5 206q0 163 132 264.5t347 101.5q202 0 324 -97.5t139 -283.5h-183q-35 209 -288 209
q-126 0 -201.5 -49.5t-75.5 -128.5q0 -54 42 -83t138 -38l215 -22q186 -20 273.5 -100t87.5 -222z" />
    <glyph glyph-name="uni0456" unicode="&#x456;" horiz-adv-x="468" 
d="M137 -10v1147h195v-1147h-195zM131 1280v236h207v-236h-207z" />
    <glyph glyph-name="uni0457" unicode="&#x457;" horiz-adv-x="509" 
d="M158 -10v1147h194v-1147h-194zM10 1280v236h178v-236h-178zM322 1280v236h178v-236h-178z" />
    <glyph glyph-name="uni0458" unicode="&#x458;" horiz-adv-x="468" 
 />
    <glyph glyph-name="uni0459" unicode="&#x459;" horiz-adv-x="1738" 
d="M61 29q50 56 101.5 166.5t73.5 207.5q37 161 65 592l8 142h688v-432h316q100 0 170 -23q96 -36 152.5 -121t56.5 -201q0 -126 -55.5 -212.5t-153.5 -124.5q-86 -33 -232 -33h-331v2h-107v983h-328q-33 -404 -63 -576q-21 -122 -63.5 -247t-73.5 -162h-224v39zM997 158
h252q96 0 144 22q94 47 94 172q0 127 -98 172q-42 19 -119 19h-273v-385z" />
    <glyph glyph-name="uni045A" unicode="&#x45a;" horiz-adv-x="1742" 
d="M817 1137h184v-445h295q124 0 191 -22q96 -34 152.5 -118t56.5 -200q0 -123 -55.5 -208t-153.5 -121q-86 -33 -232 -33h-438v536h-498v-536h-190v1147h190v-443h498v443zM1001 156h252q100 0 144 20q94 47 94 166q0 127 -98 168q-40 18 -119 18h-273v-372z" />
    <glyph glyph-name="uni045B" unicode="&#x45b;" horiz-adv-x="1230" 
d="M57 1255v138h123v168h195v-168h274v-138h-274v-297h10q119 205 354 205q119 0 210.5 -55.5t137.5 -167.5q31 -76 31 -215v-735h-194v721q0 109 -21 163q-20 49 -68 80t-118 31q-147 0 -242 -113q-70 -82 -85 -145t-15 -209v-528h-195v1265h-123z" />
    <glyph glyph-name="uni045C" unicode="&#x45c;" horiz-adv-x="1062" 
d="M129 -10v1147h193v-498l479 498h221v-29l-424 -430l444 -662v-26h-208l-369 565l-143 -145v-420h-193zM446 1235l150 326h231l-260 -326h-121z" />
    <glyph glyph-name="uni045D" unicode="&#x45d;" horiz-adv-x="1202" 
d="M129 -10v1147h174v-934l502 934h239v-1147h-174v934l-501 -934h-240zM295 1561h231l150 -326h-121z" />
    <glyph glyph-name="uni045E" unicode="&#x45e;" horiz-adv-x="1110" 
d="M35 1116v21h201l337 -861l301 861h195v-23l-549 -1483h-190v23l139 389zM170 1511h184q34 -157 195 -157q80 0 129 37t67 120h185q-17 -151 -118.5 -229t-260.5 -78q-160 0 -262 78t-119 229z" />
    <glyph glyph-name="uni045F" unicode="&#x45f;" horiz-adv-x="1120" 
d="M129 -10v1147h190v-979h482v979h190v-1147h-352v-359h-170v359h-340z" />
    <glyph glyph-name="uni0490" unicode="&#x490;" horiz-adv-x="1062" 
d="M150 -10v1571h694v307h192v-504h-680v-1374h-206z" />
    <glyph glyph-name="uni0491" unicode="&#x491;" horiz-adv-x="845" 
d="M129 -10v1147h506v305h164v-469h-480v-983h-190z" />
    <glyph glyph-name="uni0492" unicode="&#x492;" horiz-adv-x="1144" 
d="M27 903h182v658h909v-197h-702v-461h342v-170h-342v-743h-207v743h-182v170z" />
    <glyph glyph-name="uni0493" unicode="&#x493;" horiz-adv-x="882" 
d="M16 690h121v447h699v-174h-504v-273h311v-158h-311v-542h-195v542h-121v158z" />
    <glyph glyph-name="uni0496" unicode="&#x496;" horiz-adv-x="2185" 
d="M4 -10v26l578 947l-496 563v37h238l637 -768v766h194v-766l637 766h238v-37l-496 -561l467 -764h158v-512h-179v303h-96l-493 835l-236 -274v-561h-194v561l-236 274l-494 -835h-227z" />
    <glyph glyph-name="uni0497" unicode="&#x497;" horiz-adv-x="1722" 
d="M20 -10v33l445 622l-426 461v31h223l455 -531h10v531h174v-531h10l457 531h221v-31l-426 -461l348 -487h152v-473h-164v305h-90l-379 542l-129 -135v-407h-174v407l-129 135l-379 -542h-199z" />
    <glyph glyph-name="uni049A" unicode="&#x49a;" horiz-adv-x="1372" 
d="M150 -10v1571h206v-770h11l628 770h242v-27l-524 -623l479 -712h154v-512h-179v303h-98l-504 784l-209 -237v-547h-206z" />
    <glyph glyph-name="uni049B" unicode="&#x49b;" horiz-adv-x="1165" 
d="M129 -10v1147h190v-566h7l487 566h213v-31l-420 -453l350 -495h150v-473h-164v305h-96l-363 536l-164 -166v-370h-190z" />
    <glyph glyph-name="uni04A2" unicode="&#x4a2;" horiz-adv-x="1597" 
d="M150 -10v1571h206v-648h820v648h206v-1362h189v-512h-178v303h-217v733h-820v-733h-206z" />
    <glyph glyph-name="uni04A3" unicode="&#x4a3;" horiz-adv-x="1206" 
d="M129 -10v1147h190v-453h521v453h190v-979h117v-473h-164v305h-143v532h-521v-532h-190z" />
    <glyph glyph-name="uni04AE" unicode="&#x4ae;" horiz-adv-x="1308" 
d="M6 1538v23h232l323 -639q29 -56 58 -115.5t38 -77.5h11q79 168 108 225l305 607h222v-23l-545 -1016v-532h-207v532z" />
    <glyph glyph-name="uni04AF" unicode="&#x4af;" horiz-adv-x="1114" 
d="M35 1118v19h194l322 -852h14l326 852h182v-21l-428 -1075v-410h-180v410z" />
    <glyph glyph-name="uni04B0" unicode="&#x4b0;" horiz-adv-x="1308" 
d="M248 516h303v6l-545 1016v23h232l323 -639q29 -56 58 -115.5t38 -77.5h11q79 168 108 225l305 607h222v-23l-545 -1016v-6h303v-170h-303v-356h-207v356h-303v170z" />
    <glyph glyph-name="uni04B1" unicode="&#x4b1;" horiz-adv-x="1114" 
d="M35 1118v19h194l322 -856h14l326 856h182v-21l-418 -1050h234v-154h-246v-281h-176v281h-248v154h238z" />
    <glyph glyph-name="uni04B2" unicode="&#x4b2;" horiz-adv-x="1366" 
d="M1161 -313v303h-88l-414 665l-417 -665h-226v30l525 789l-484 725v27h234l377 -603l379 603h221v-25l-486 -727l400 -610h157v-512h-178z" />
    <glyph glyph-name="uni04B3" unicode="&#x4b3;" horiz-adv-x="1169" 
d="M946 -315v305h-72l-319 489l-319 -489h-224l426 592l-397 555h233l283 -437l281 437h223l-387 -541l313 -438h123v-473h-164z" />
    <glyph glyph-name="uni04B6" unicode="&#x4b6;" horiz-adv-x="1466" 
d="M1044 604q-155 -84 -360 -84q-95 0 -177.5 17t-156 57t-125.5 100.5t-82 153t-30 209.5v504h198v-488q0 -94 31.5 -166t88.5 -115.5t131 -65t165 -21.5q210 0 317 90v766h207v-1371l2 9h187v-512h-178v303h-218v614z" />
    <glyph glyph-name="uni04B7" unicode="&#x4b7;" horiz-adv-x="1177" 
d="M94 831v306h195v-316q0 -122 77 -192t224 -70q152 0 217 59v519h194v-979h117v-473h-164v305h-147v463q-104 -58 -252 -58q-97 0 -179.5 26t-146 78t-99.5 137t-36 195z" />
    <glyph glyph-name="uni04BA" unicode="&#x4ba;" horiz-adv-x="1495" 
d="M150 1561h202v-748h6q154 289 508 289q233 0 361.5 -140t128.5 -407v-565h-203v557q0 352 -322 352q-215 0 -347 -136t-132 -362v-411h-202v1571z" />
    <glyph glyph-name="uni04BB" unicode="&#x4bb;" horiz-adv-x="1181" 
d="M131 -10v1571h195v-603h10q119 205 354 205q119 0 210.5 -55.5t137.5 -167.5q31 -76 31 -215v-735h-195v721q0 112 -20 163q-20 49 -68 80t-118 31q-147 0 -242 -113q-70 -82 -85 -145t-15 -209v-528h-195z" />
    <glyph glyph-name="uni04C0" unicode="&#x4c0;" horiz-adv-x="505" 
d="M150 -10v1571h206v-1571h-206z" />
    <glyph glyph-name="uni04CF" unicode="&#x4cf;" horiz-adv-x="454" 
d="M131 -10v1571h193v-1571h-193z" />
    <glyph glyph-name="uni04D8" unicode="&#x4d8;" horiz-adv-x="1712" 
d="M109 768v53h1275q-6 123 -39 225t-95 183t-162.5 126.5t-231.5 45.5q-214 0 -339.5 -114.5t-168.5 -307.5h-221q37 201 143.5 340t255 203.5t330.5 64.5q126 0 237 -31.5t205 -97.5t162 -161.5t106 -230.5t38 -298q0 -160 -38 -292.5t-106 -226.5t-162 -159t-205 -96
t-237 -31q-157 0 -291 50t-236.5 147t-161 253t-58.5 355zM336 651q12 -108 48 -197t98 -158t156 -107.5t214 -38.5q121 0 216.5 38t158 107t99.5 158t50 198h-1040z" />
    <glyph glyph-name="uni04D9" unicode="&#x4d9;" horiz-adv-x="1218" 
d="M1141 565q0 -126 -36 -235t-103.5 -191t-172.5 -129t-235 -47q-249 0 -388.5 165t-135.5 462h872q-3 113 -42 204t-119.5 149t-190.5 58q-131 0 -219.5 -73.5t-114.5 -190.5h-190q30 195 168 311.5t364 116.5q131 0 236 -47t171 -129t101 -190t35 -234zM268 430
q20 -148 106 -226.5t212 -78.5q137 0 228 77.5t118 227.5h-664z" />
    <glyph glyph-name="uni04E2" unicode="&#x4e2;" horiz-adv-x="1576" 
d="M150 -10v1571h202v-959q0 -80 -4 -256q-1 -15 -2 -44.5t-2 -45.5h12l838 1305h233v-1571h-202v831q0 193 16 479h-12l-848 -1310h-231zM487 1704v168h603v-168h-603z" />
    <glyph glyph-name="uni04E3" unicode="&#x4e3;" horiz-adv-x="1173" 
d="M129 -10v1147h174v-934l502 934h239v-1147h-174v934l-501 -934h-240zM287 1280v168h602v-168h-602z" />
    <glyph glyph-name="uni04E8" unicode="&#x4e8;" horiz-adv-x="1712" 
d="M109 768q0 202 58.5 361t161 257.5t236.5 149.5t291 51q126 0 237 -31.5t205 -97.5t162 -161.5t106 -230.5t38 -298q0 -160 -38 -292.5t-106 -226.5t-162 -159t-205 -96t-237 -31q-157 0 -291 50t-236.5 147t-161 253t-58.5 355zM322 735q4 -125 36 -229t94 -186
t164.5 -128.5t235.5 -46.5q135 0 238.5 46t167 128t96.5 186.5t37 229.5h-1069zM330 901h1052q-14 110 -50.5 199t-99 158.5t-158.5 108t-218 38.5t-218 -38.5t-158.5 -108t-99 -158.5t-50.5 -199z" />
    <glyph glyph-name="uni04E9" unicode="&#x4e9;" 
d="M78 563q0 172 65.5 307.5t189.5 214t288 78.5t288 -78.5t189 -214t65 -307.5t-65 -307.5t-189 -214t-288 -78.5t-288 78.5t-189.5 214t-65.5 307.5zM268 500q11 -168 103 -269.5t250 -101.5t249.5 101.5t102.5 269.5h-705zM272 657h697q-15 154 -106 246t-242 92
t-242.5 -92t-106.5 -246z" />
    <glyph glyph-name="uni04EE" unicode="&#x4ee;" horiz-adv-x="1265" 
d="M6 1536v25h223l306 -637q21 -45 43 -86q57 -118 88 -195h10q38 111 119 307l256 611h202l9 -19l-684 -1567h-213v23l194 432zM332 1704v168h602v-168h-602z" />
    <glyph glyph-name="uni04EF" unicode="&#x4ef;" horiz-adv-x="1110" 
d="M35 1116v21h201l337 -861l301 861h195v-23l-549 -1483h-190v23l139 389zM248 1280v168h602v-168h-602z" />
    <glyph glyph-name="Wgrave" unicode="&#x1e80;" horiz-adv-x="2017" 
d="M449 -10l-406 1571h201l231 -883q73 -282 98 -457h13q19 172 80 422l227 918h229l242 -975q66 -265 82 -367h14q28 218 109 535l207 807h198l-399 -1571h-246l-244 989q-52 214 -71 387h-10q-17 -161 -82 -424l-240 -952h-233zM696 1985h232l149 -326h-121z" />
    <glyph glyph-name="wgrave" unicode="&#x1e81;" horiz-adv-x="1689" 
d="M371 -10l-328 1147h197l151 -543q48 -169 98 -410h17q24 158 76 357l157 596h217l146 -559q54 -211 90 -394h16q25 126 58 244l196 709h185l-326 -1147h-225l-187 702q-31 127 -53 254h-14q-18 -106 -80 -346l-162 -610h-229zM532 1561h232l149 -326h-120z" />
    <glyph glyph-name="Wacute" unicode="&#x1e82;" horiz-adv-x="2017" 
d="M449 -10l-406 1571h201l231 -883q73 -282 98 -457h13q19 172 80 422l227 918h229l242 -975q66 -265 82 -367h14q28 218 109 535l207 807h198l-399 -1571h-246l-244 989q-52 214 -71 387h-10q-17 -161 -82 -424l-240 -952h-233zM946 1659l150 326h231l-260 -326h-121z" />
    <glyph glyph-name="wacute" unicode="&#x1e83;" horiz-adv-x="1689" 
d="M371 -10l-328 1147h197l151 -543q48 -169 98 -410h17q24 158 76 357l157 596h217l146 -559q54 -211 90 -394h16q25 126 58 244l196 709h185l-326 -1147h-225l-187 702q-31 127 -53 254h-14q-18 -106 -80 -346l-162 -610h-229zM782 1235l150 326h231l-260 -326h-121z" />
    <glyph glyph-name="Wdieresis" unicode="&#x1e84;" horiz-adv-x="2017" 
d="M449 -10l-406 1571h201l231 -883q73 -282 98 -457h13q19 172 80 422l227 918h229l242 -975q66 -265 82 -367h14q28 218 109 535l207 807h198l-399 -1571h-246l-244 989q-52 214 -71 387h-10q-17 -161 -82 -424l-240 -952h-233zM754 1704v235h188v-235h-188zM1079 1704
v235h189v-235h-189z" />
    <glyph glyph-name="wdieresis" unicode="&#x1e85;" horiz-adv-x="1689" 
d="M371 -10l-328 1147h197l151 -543q48 -169 98 -410h17q24 158 76 357l157 596h217l146 -559q54 -211 90 -394h16q25 126 58 244l196 709h185l-326 -1147h-225l-187 702q-31 127 -53 254h-14q-18 -106 -80 -346l-162 -610h-229zM590 1280v236h188v-236h-188zM915 1280v236
h189v-236h-189z" />
    <glyph glyph-name="uni1E9E" unicode="&#x1e9e;" 
 />
    <glyph glyph-name="Ygrave" unicode="&#x1ef2;" horiz-adv-x="1308" 
d="M6 1538v23h232l323 -639q29 -56 58 -115.5t38 -77.5h11q79 168 108 225l305 607h222v-23l-545 -1016v-532h-207v532zM340 1985h231l150 -326h-121z" />
    <glyph glyph-name="ygrave" unicode="&#x1ef3;" horiz-adv-x="1110" 
d="M35 1116v21h201l337 -861l301 861h195v-23l-549 -1483h-190v23l139 389zM233 1561h232l149 -326h-120z" />
    <glyph glyph-name="uni2000" unicode="&#x2000;" horiz-adv-x="1036" 
 />
    <glyph glyph-name="uni2001" unicode="&#x2001;" horiz-adv-x="2060" 
 />
    <glyph glyph-name="uni2002" unicode="&#x2002;" horiz-adv-x="1036" 
 />
    <glyph glyph-name="uni2003" unicode="&#x2003;" horiz-adv-x="2060" 
 />
    <glyph glyph-name="uni2004" unicode="&#x2004;" horiz-adv-x="694" 
 />
    <glyph glyph-name="uni2005" unicode="&#x2005;" horiz-adv-x="524" 
 />
    <glyph glyph-name="uni2006" unicode="&#x2006;" horiz-adv-x="354" 
 />
    <glyph glyph-name="uni2007" unicode="&#x2007;" horiz-adv-x="1361" 
 />
    <glyph glyph-name="uni2008" unicode="&#x2008;" horiz-adv-x="575" 
 />
    <glyph glyph-name="uni2009" unicode="&#x2009;" horiz-adv-x="421" 
 />
    <glyph glyph-name="uni200A" unicode="&#x200a;" horiz-adv-x="299" 
 />
    <glyph glyph-name="uni200B" unicode="&#x200b;" horiz-adv-x="12" 
 />
    <glyph glyph-name="endash" unicode="&#x2013;" horiz-adv-x="1189" 
d="M109 528v201h972v-201h-972z" />
    <glyph glyph-name="emdash" unicode="&#x2014;" horiz-adv-x="1579" 
d="M109 528v201h1361v-201h-1361z" />
    <glyph glyph-name="quoteleft" unicode="&#x2018;" horiz-adv-x="571" 
d="M457 1561l-78 -277v-248h-199v254l137 271h140z" />
    <glyph glyph-name="quoteright" unicode="&#x2019;" horiz-adv-x="571" 
d="M115 1036l78 277v248h198v-254l-137 -271h-139z" />
    <glyph glyph-name="quotesinglbase" unicode="&#x201a;" horiz-adv-x="571" 
d="M115 -274l78 276v248h198v-254l-137 -270h-139z" />
    <glyph glyph-name="quotedblleft" unicode="&#x201c;" horiz-adv-x="876" 
d="M762 1561l-78 -277v-248h-186v254l141 271h123zM180 1036v254l142 271h122l-77 -277v-248h-187z" />
    <glyph glyph-name="quotedblright" unicode="&#x201d;" horiz-adv-x="876" 
d="M115 1036l78 277v248h186v-254l-141 -271h-123zM432 1036l78 277v248h186v-254l-141 -271h-123z" />
    <glyph glyph-name="quotedblbase" unicode="&#x201e;" horiz-adv-x="876" 
d="M115 -274l78 276v248h186v-254l-141 -270h-123zM432 -274l78 276v248h186v-254l-141 -270h-123z" />
    <glyph glyph-name="dagger" unicode="&#x2020;" horiz-adv-x="1118" 
d="M109 967v170h362v422h176v-422h363v-170h-363v-977h-176v977h-362z" />
    <glyph glyph-name="daggerdbl" unicode="&#x2021;" horiz-adv-x="1036" 
d="M109 412v170h321v385h-321v170h321v422h176v-422h322v-170h-322v-385h322v-170h-322v-422h-176v422h-321z" />
    <glyph glyph-name="bullet" unicode="&#x2022;" horiz-adv-x="847" 
d="M424 322q-101 0 -172.5 73.5t-71.5 179.5t71.5 180t172.5 74t172.5 -74t71.5 -180t-71.5 -179.5t-172.5 -73.5z" />
    <glyph glyph-name="ellipsis" unicode="&#x2026;" horiz-adv-x="1394" 
d="M180 -10v260h215v-260h-215zM590 -10v260h215v-260h-215zM999 -10v260h215v-260h-215z" />
    <glyph glyph-name="perthousand" unicode="&#x2030;" horiz-adv-x="2451" 
d="M444 803q-159 0 -247 106t-88 275q0 168 88 273.5t247 105.5q162 0 250 -105t88 -274q0 -167 -89.5 -274t-248.5 -107zM283 1184q0 -46 8 -84.5t25.5 -71.5t50.5 -51.5t79 -18.5q45 0 77.5 18.5t50.5 51.5t26 71.5t8 84.5q0 223 -164 223q-86 0 -123.5 -61.5
t-37.5 -161.5zM385 -10l745 1571h187l-744 -1569zM930 365q0 168 88 273t248 105q162 0 250 -104.5t88 -273.5q0 -167 -89.5 -274t-248.5 -107t-247.5 106t-88.5 275zM1104 365q0 -98 38 -162t126 -64q45 0 77.5 18.5t50.5 51.5t26 71.5t8 84.5q0 223 -164 223
q-86 0 -124 -62t-38 -161zM1669 365q0 168 88 273t248 105q162 0 250 -104.5t88 -273.5q0 -167 -89.5 -274t-248.5 -107t-247.5 106t-88.5 275zM1843 365q0 -98 38 -162t126 -64q45 0 77.5 18.5t50.5 51.5t26 71.5t8 84.5q0 223 -164 223q-86 0 -124 -62t-38 -161z" />
    <glyph glyph-name="minute" unicode="&#x2032;" horiz-adv-x="497" 
d="M231 1622h211l-223 -569h-162z" />
    <glyph glyph-name="second" unicode="&#x2033;" horiz-adv-x="851" 
d="M231 1622h211l-223 -569h-162zM412 1053l174 569h211l-224 -569h-161z" />
    <glyph glyph-name="guilsinglleft" unicode="&#x2039;" horiz-adv-x="653" 
d="M362 61l-266 502l266 500h201l-274 -500l274 -502h-201z" />
    <glyph glyph-name="guilsinglright" unicode="&#x203a;" horiz-adv-x="653" 
d="M291 61h-201l275 502l-275 500h201l266 -500z" />
    <glyph glyph-name="uni2042" unicode="&#x2042;" horiz-adv-x="1687" 
d="M772 846l23 287l-232 -162l-76 129l246 117l-246 116l76 129l232 -162l-23 287h135l-22 -287l231 162l76 -129l-246 -116l246 -117l-76 -129l-231 162l22 -287h-135zM61 356l246 117l-246 117l76 129l232 -162l-23 287h135l-22 -287l231 162l76 -129l-246 -117l246 -117
l-76 -129l-231 162l22 -287h-135l23 287l-232 -162zM922 348l245 117l-245 117l75 129l232 -162l-23 287h135l-22 -287l231 162l76 -129l-246 -117l246 -117l-76 -129l-231 162l22 -287h-135l23 287l-232 -162z" />
    <glyph glyph-name="fraction" unicode="&#x2044;" horiz-adv-x="96" 
d="M-406 -10l746 1571h162l-744 -1569z" />
    <glyph glyph-name="uni2051" unicode="&#x2051;" horiz-adv-x="827" 
d="M346 846l23 287l-232 -162l-76 129l246 117l-246 116l76 129l232 -162l-23 287h135l-22 -287l231 162l76 -129l-246 -116l246 -117l-76 -129l-231 162l22 -287h-135zM61 244l246 116l-246 117l76 129l232 -162l-23 287h135l-22 -287l231 162l76 -129l-246 -117l246 -116
l-76 -129l-231 161l22 -286h-135l23 286l-232 -161z" />
    <glyph glyph-name="uni2070" unicode="&#x2070;" horiz-adv-x="823" 
d="M412 743q-81 0 -141 33t-94.5 92.5t-51 132.5t-16.5 162t16.5 162.5t51.5 132t95 91t140 32.5q81 0 141 -33t94.5 -91.5t51 -131.5t16.5 -162q0 -90 -16.5 -163.5t-51.5 -132.5t-95 -91.5t-140 -32.5zM242 1163q0 -280 170 -280t170 280q0 137 -43.5 208t-126.5 71
t-126.5 -71t-43.5 -208z" />
    <glyph glyph-name="uni2074" unicode="&#x2074;" horiz-adv-x="792" 
d="M455 764l2 192h-381v119l342 486h164v-469h135v-136h-135v-192h-127zM242 1092h217v157q0 88 4 154h-8q-65 -112 -105 -166z" />
    <glyph glyph-name="uni2075" unicode="&#x2075;" horiz-adv-x="749" 
d="M227 989q6 -52 43.5 -82t98.5 -30q73 0 113 51t40 125q0 77 -38 115t-105 38q-53 0 -92 -28.5t-45 -67.5l-125 4l37 447h448v-142h-342l-14 -141q51 57 157 57q113 0 181.5 -78t68.5 -198q0 -143 -77.5 -229.5t-208.5 -86.5q-120 0 -191.5 65t-79.5 181h131z" />
    <glyph glyph-name="uni2076" unicode="&#x2076;" horiz-adv-x="778" 
d="M109 1141q0 210 79.5 325t237.5 115q109 0 174.5 -64.5t65.5 -170.5h-121q-3 44 -37.5 69t-83.5 25q-169 0 -184 -219q64 92 188 92q104 0 176 -76.5t72 -194.5q0 -134 -76 -216.5t-194 -82.5q-140 0 -218.5 103.5t-78.5 294.5zM256 1038q0 -73 40 -116t110 -43
q62 0 99.5 44.5t37.5 114.5q0 62 -37 103t-98 41q-71 0 -111.5 -40t-40.5 -104z" />
    <glyph glyph-name="uni2077" unicode="&#x2077;" horiz-adv-x="655" 
d="M188 764q11 178 78.5 362.5t145.5 288.5h-340v146h520v-101q-237 -314 -264 -696h-140z" />
    <glyph glyph-name="uni2078" unicode="&#x2078;" horiz-adv-x="780" 
d="M389 743q-122 0 -201 63.5t-79 176.5q0 72 33.5 126.5t95.5 80.5q-45 26 -74 72t-29 102q0 100 74.5 158.5t179.5 58.5h2q105 0 179.5 -58.5t74.5 -158.5q0 -56 -28.5 -102t-73.5 -72q62 -26 95.5 -80.5t33.5 -126.5q0 -114 -80 -177t-203 -63zM246 997q0 -55 42 -89
t103 -34q59 0 101.5 34t42.5 89q0 58 -41.5 89.5t-104.5 31.5q-62 0 -102.5 -31.5t-40.5 -89.5zM270 1358q0 -51 35.5 -76t85.5 -25t84.5 24.5t34.5 76.5q0 41 -36 68.5t-83 27.5q-49 0 -85 -26.5t-36 -69.5z" />
    <glyph glyph-name="uni2079" unicode="&#x2079;" horiz-adv-x="778" 
d="M670 1184q0 -210 -80 -325.5t-238 -115.5q-108 0 -173.5 65t-65.5 171h120q3 -44 37.5 -69t83.5 -25q170 0 185 219q-64 -92 -189 -92q-105 0 -176.5 76t-71.5 194q0 134 76.5 216.5t194.5 82.5q141 0 219 -103t78 -294zM236 1286q0 -62 37 -102.5t98 -40.5
q71 0 111 39.5t40 103.5q0 73 -39.5 116.5t-109.5 43.5q-62 0 -99.5 -45t-37.5 -115z" />
    <glyph glyph-name="uni2080" unicode="&#x2080;" horiz-adv-x="823" 
d="M412 -43q-81 0 -141 33t-94.5 92.5t-51 132.5t-16.5 162t16.5 162.5t51.5 132t95 91t140 32.5q81 0 141 -33t94.5 -91.5t51 -131.5t16.5 -162q0 -90 -16.5 -163.5t-51.5 -132.5t-95 -91.5t-140 -32.5zM242 377q0 -132 41.5 -206.5t128.5 -74.5t128.5 74.5t41.5 206.5
q0 136 -43.5 207t-126.5 71t-126.5 -71t-43.5 -207z" />
    <glyph glyph-name="uni2081" unicode="&#x2081;" horiz-adv-x="497" 
d="M219 426q0 98 2 141h-10q-57 -47 -143 -71v161q112 42 161 129h119v-796h-129v436z" />
    <glyph glyph-name="uni2082" unicode="&#x2082;" horiz-adv-x="727" 
d="M90 510q3 132 77 214.5t208 82.5q115 0 183.5 -64t68.5 -176q0 -85 -37.5 -143.5t-126.5 -110.5l-53 -30q-75 -44 -111 -75.5t-53 -70.5h389v-147h-543q-3 153 52 248.5t180 162.5l67 37q61 33 84 61t23 66q0 48 -31 76.5t-90 28.5q-78 0 -115 -38t-43 -122h-129z" />
    <glyph glyph-name="uni2083" unicode="&#x2083;" horiz-adv-x="765" 
d="M229 264q4 -85 43 -123.5t117 -38.5q64 0 100.5 34.5t36.5 90.5q0 58 -44 94.5t-120 36.5h-59v134h55q70 0 107 21t37 71q0 40 -32.5 65t-92.5 25q-143 0 -146 -139h-135q2 129 75 199.5t210 70.5q115 0 182.5 -56.5t67.5 -152.5q0 -115 -101 -166q60 -26 93.5 -83.5
t33.5 -133.5q0 -117 -76 -181.5t-198 -64.5q-139 0 -214 77.5t-75 219.5h135z" />
    <glyph glyph-name="uni2084" unicode="&#x2084;" horiz-adv-x="792" 
d="M455 -10l2 192h-381v119l342 485h164v-469h135v-135h-135v-192h-127zM242 317h217v158q0 88 4 154h-8q-65 -112 -105 -166z" />
    <glyph glyph-name="uni2085" unicode="&#x2085;" horiz-adv-x="749" 
d="M227 213q6 -52 43.5 -82.5t98.5 -30.5q73 0 113 51t40 125q0 77 -38 115.5t-105 38.5q-53 0 -92 -28.5t-45 -67.5l-125 4l37 446h448v-141h-342l-14 -141q51 57 157 57q113 0 181.5 -78t68.5 -198q0 -143 -77.5 -229.5t-208.5 -86.5q-120 0 -191.5 65t-79.5 181h131z" />
    <glyph glyph-name="uni2086" unicode="&#x2086;" horiz-adv-x="778" 
d="M109 358q0 210 79.5 325.5t237.5 115.5q108 0 174 -65t66 -171h-121q-3 44 -37.5 69t-83.5 25q-169 0 -184 -219q64 92 188 92q105 0 176.5 -76t71.5 -194q0 -134 -76 -216.5t-194 -82.5q-141 0 -219 103t-78 294zM256 256q0 -73 40 -116.5t110 -43.5q62 0 99.5 45
t37.5 115q0 62 -37 102.5t-98 40.5q-71 0 -111.5 -39.5t-40.5 -103.5z" />
    <glyph glyph-name="uni2087" unicode="&#x2087;" horiz-adv-x="655" 
d="M188 -10q11 178 78.5 362.5t145.5 288.5h-340v145h520v-100q-237 -314 -264 -696h-140z" />
    <glyph glyph-name="uni2088" unicode="&#x2088;" horiz-adv-x="780" 
d="M389 -41q-122 0 -201 63.5t-79 176.5q0 72 33.5 126.5t95.5 80.5q-45 26 -74 72t-29 102q0 100 74.5 158.5t179.5 58.5h2q105 0 179.5 -58.5t74.5 -158.5q0 -56 -28.5 -102t-73.5 -72q62 -26 95.5 -80.5t33.5 -126.5q0 -114 -80 -177t-203 -63zM246 213q0 -55 42 -89
t103 -34q59 0 101.5 34t42.5 89q0 58 -41.5 89.5t-104.5 31.5q-62 0 -102.5 -31.5t-40.5 -89.5zM270 573q0 -51 35.5 -75.5t85.5 -24.5t84.5 24.5t34.5 75.5q0 42 -36 69.5t-83 27.5q-49 0 -85 -27t-36 -70z" />
    <glyph glyph-name="uni2089" unicode="&#x2089;" horiz-adv-x="778" 
d="M670 399q0 -210 -80 -325t-238 -115q-108 0 -173.5 65t-65.5 171h120q3 -44 37.5 -69.5t83.5 -25.5q170 0 185 219q-64 -92 -189 -92q-104 0 -176 76.5t-72 194.5q0 134 76.5 216.5t194.5 82.5q140 0 218.5 -103.5t78.5 -294.5zM236 502q0 -62 37 -103t98 -41
q71 0 111 40t40 104q0 73 -39.5 116.5t-109.5 43.5q-62 0 -99.5 -45t-37.5 -115z" />
    <glyph glyph-name="Euro" unicode="&#x20ac;" horiz-adv-x="1421" 
d="M57 535v165h222q-3 35 -3 68q0 52 7 117h-226v166h252q72 251 259.5 395.5t465.5 144.5q170 0 312 -57v-209q-129 78 -297 78q-216 0 -345 -93.5t-182 -258.5h608v-166h-643q-6 -59 -6 -117q0 -45 2 -68h647v-165h-618q45 -177 172.5 -281t335.5 -104q160 0 332 86v-209
q-183 -66 -353 -66q-269 0 -453.5 155t-248.5 419h-240z" />
    <glyph glyph-name="uni20BD" unicode="&#x20bd;" horiz-adv-x="1468" 
d="M57 289v160h219v151h-219v182h219v779h521q212 0 327 -43q125 -50 196 -164.5t71 -272.5q0 -161 -70.5 -274.5t-192.5 -161.5q-118 -45 -352 -45h-297v-151h412v-160h-412v-299h-203v299h-219zM479 782l316 -2q135 0 209 21q182 51 182 276q0 228 -189 281
q-70 20 -182 20h-336v-596z" />
    <glyph glyph-name="uni20BF" unicode="&#x20bf;" horiz-adv-x="1431" 
d="M455 -233l-2 223h-303v1571h305l-2 227h145l2 -227h88h86l-2 227h146l2 -238q53 -5 110 -24q114 -39 180 -131t66 -215q0 -127 -69 -220.5t-183 -121.5q135 -32 217 -131t82 -250q0 -159 -74 -268.5t-209 -159.5q-68 -22 -122 -29l2 -233h-146l-2 225q-27 -2 -88 -2h-86
l2 -223h-145zM356 176h322q149 0 229 19q199 47 199 249q0 210 -186 254q-86 21 -201 21h-363v-543zM356 905h295q149 0 223 17q189 44 189 227q0 167 -156 209q-66 18 -256 18h-295v-471z" />
    <glyph glyph-name="uni2113" unicode="&#x2113;" horiz-adv-x="1150" 
d="M522 -37q-154 0 -234 110.5t-91 303.5q-89 -11 -156 -8v170q83 0 156 12q10 197 55.5 384.5t118 337.5t177 241.5t222.5 91.5q76 0 132 -28.5t87 -77t45.5 -104t14.5 -118.5q0 -300 -189.5 -537.5t-488.5 -328.5q6 -156 46.5 -218t119.5 -65q89 -3 150.5 71.5t94.5 217.5
h176q-16 -91 -52.5 -171.5t-90.5 -144.5t-129.5 -101.5t-163.5 -37.5zM377 598q232 86 369 271.5t137 398.5q0 82 -26 127t-93 45q-71 0 -139 -79.5t-117.5 -204.5t-83.5 -271t-47 -287z" />
    <glyph glyph-name="uni2116" unicode="&#x2116;" horiz-adv-x="2596" 
d="M1640 168h828v-178h-828v178zM150 -10v1571h239l840 -1274h12q-14 158 -14 471v803h205v-1571h-236l-844 1278h-12q14 -264 14 -615v-663h-204zM1620 723q0 207 119 341t315 134q195 0 314.5 -134t119.5 -341t-119.5 -341t-314.5 -134q-196 0 -315 134t-119 341z
M1796 723q0 -137 67 -221t191 -84q125 0 191.5 84t66.5 221q0 136 -66.5 219.5t-191.5 83.5q-124 0 -191 -84t-67 -219z" />
    <glyph glyph-name="uni2117" unicode="&#x2117;" horiz-adv-x="1812" 
d="M625 305v942h336q127 0 198 -26q73 -30 115.5 -97t42.5 -155q0 -277 -350 -277h-197v-387h-145zM109 776q0 169 63.5 320.5t170.5 258.5t254 169.5t308 62.5q162 0 309 -62.5t255 -169.5t171.5 -258.5t63.5 -320.5q0 -170 -63.5 -321.5t-171.5 -259t-255 -170t-309 -62.5
q-161 0 -308 62.5t-254 170t-170.5 259t-63.5 321.5zM242 776q0 -130 49 -251.5t134 -214t211 -148.5t271 -56t271 56t211.5 148.5t134.5 214t49 251.5t-49 251t-134.5 213.5t-211.5 148t-271 55.5t-271 -55.5t-211 -148t-134 -213.5t-49 -251zM770 834l139 -3
q132 -2 196 25.5t64 106.5q0 77 -51 110t-151 33h-197v-272z" />
    <glyph glyph-name="trademark" unicode="&#x2122;" horiz-adv-x="1505" 
d="M68 1442v119h532v-119h-209v-627h-115v627h-208zM666 815v746h165l224 -564h8l219 564h156v-746h-109v596h-6l-225 -592h-82l-234 598h-6v-602h-110z" />
    <glyph glyph-name="uni2126" unicode="&#x2126;" horiz-adv-x="1724" 
d="M115 -10v182h274q-138 115 -206 276.5t-68 348.5q0 195 58 348t160.5 248.5t236.5 144.5t292 49q126 0 237 -30.5t205 -94t162 -156t106 -222.5t38 -287q0 -186 -68.5 -348t-206.5 -277h275v-182h-639v174q219 63 319.5 219.5t100.5 413.5q0 125 -30 231t-91 191
t-165.5 133.5t-242.5 48.5q-111 0 -201 -32t-150 -87.5t-100.5 -133t-58.5 -165t-18 -186.5q0 -257 100.5 -413.5t319.5 -219.5v-174h-639z" />
    <glyph glyph-name="estimated" unicode="&#x212e;" horiz-adv-x="1769" 
d="M109 670q0 216 103.5 393t281 277t391.5 100t392 -100t281 -277t103 -393v-54h-1299v-393q92 -104 225 -161.5t298 -57.5q227 0 398 103t253 274h109q-91 -224 -290.5 -353.5t-469.5 -129.5q-173 0 -318.5 58.5t-245.5 161.5t-156 245t-56 307zM362 723h1035v387
q-94 105 -227 164t-285 59q-156 0 -292.5 -62.5t-230.5 -172.5v-375z" />
    <glyph glyph-name="uni2154" unicode="&#x2154;" horiz-adv-x="1708" 
d="M350 -10l746 1571h161l-743 -1569zM88 1282q3 132 77 214.5t208 82.5q115 0 183.5 -64t68.5 -176q0 -85 -37.5 -143.5t-126.5 -110.5l-53 -30q-75 -44 -111 -75.5t-53 -70.5h389v-147h-543q-3 153 52 249t180 163l67 36q61 33 84 61t23 66q0 48 -31 76.5t-90 28.5
q-78 0 -115 -38t-43 -122h-129zM1034 264h135q4 -85 43 -123.5t117 -38.5q64 0 100.5 34.5t36.5 90.5q0 58 -43.5 94.5t-119.5 36.5h-60v134h55q70 0 107 21t37 71q0 40 -32.5 65t-92.5 25q-143 0 -146 -139h-135q2 129 75 199.5t210 70.5q115 0 182.5 -56.5t67.5 -152.5
q0 -115 -101 -166q60 -26 93.5 -83.5t33.5 -133.5q0 -117 -76 -181.5t-198 -64.5q-139 0 -214 77.5t-75 219.5z" />
    <glyph glyph-name="oneeighth" unicode="&#x215b;" horiz-adv-x="1486" 
d="M172 -10l746 1571h161l-743 -1569zM68 1270v162q112 42 161 129h119v-797h-129v436q0 98 2 141h-10q-57 -47 -143 -71zM815 199q0 72 33.5 126.5t95.5 80.5q-45 26 -73.5 72t-28.5 102q0 100 74.5 158.5t179.5 58.5h2q105 0 179.5 -58.5t74.5 -158.5q0 -56 -29 -102
t-74 -72q62 -26 95.5 -80.5t33.5 -126.5q0 -114 -79.5 -177t-202.5 -63q-122 0 -201.5 63.5t-79.5 176.5zM952 213q0 -55 42.5 -89t103.5 -34q59 0 101 34t42 89q0 58 -41 89.5t-104 31.5q-62 0 -103 -31.5t-41 -89.5zM977 573q0 -51 35.5 -75.5t85.5 -24.5t84.5 24.5
t34.5 75.5q0 42 -36 69.5t-83 27.5q-49 0 -85 -27t-36 -70z" />
    <glyph glyph-name="threeeighths" unicode="&#x215c;" horiz-adv-x="1613" 
d="M1223 -41q-122 0 -201.5 63.5t-79.5 176.5q0 72 33.5 126.5t95.5 80.5q-45 26 -73.5 72t-28.5 102q0 100 74.5 158.5t179.5 58.5h2q105 0 179.5 -58.5t74.5 -158.5q0 -56 -29 -102t-74 -72q62 -26 95.5 -80.5t33.5 -126.5q0 -114 -79.5 -177t-202.5 -63zM92 1040h135
q4 -85 43 -123t117 -38q64 0 100.5 34.5t36.5 90.5q0 58 -44 94.5t-120 36.5h-59v133h55q70 0 107 21t37 71q0 40 -32.5 65t-92.5 25q-143 0 -146 -139h-135q2 129 75 199.5t210 70.5q115 0 182.5 -56.5t67.5 -152.5q0 -115 -101 -166q60 -26 93.5 -83.5t33.5 -133.5
q0 -117 -76 -181.5t-198 -64.5q-139 0 -214 77.5t-75 219.5zM299 -10l745 1571h162l-743 -1569zM1079 213q0 -55 42.5 -89t103.5 -34q59 0 101 34t42 89q0 58 -41 89.5t-104 31.5q-62 0 -103 -31.5t-41 -89.5zM1104 573q0 -51 35.5 -75.5t85.5 -24.5t84 24.5t34 75.5
q0 42 -35.5 69.5t-82.5 27.5q-49 0 -85 -27t-36 -70z" />
    <glyph glyph-name="fiveeighths" unicode="&#x215d;" horiz-adv-x="1626" 
d="M1235 -41q-122 0 -201.5 63.5t-79.5 176.5q0 72 33.5 126.5t95.5 80.5q-45 26 -73.5 72t-28.5 102q0 100 74.5 158.5t179.5 58.5h2q105 0 179.5 -58.5t74.5 -158.5q0 -56 -28.5 -102t-73.5 -72q62 -26 95.5 -80.5t33.5 -126.5q0 -114 -80 -177t-203 -63zM96 989h131
q6 -52 43.5 -82t98.5 -30q73 0 113 51t40 125q0 77 -38 115t-105 38q-53 0 -92 -28.5t-45 -67.5l-125 4l37 447h448v-142h-342l-14 -141q51 57 157 57q113 0 181.5 -78t68.5 -198q0 -143 -77.5 -229.5t-208.5 -86.5q-120 0 -191.5 65t-79.5 181zM311 -10l746 1571h162
l-744 -1569zM1092 213q0 -55 42 -89t103 -34q59 0 101 34t42 89q0 58 -41 89.5t-104 31.5q-62 0 -102.5 -31.5t-40.5 -89.5zM1116 573q0 -51 35.5 -75.5t85.5 -24.5t84.5 24.5t34.5 75.5q0 42 -36 69.5t-83 27.5q-49 0 -85 -27t-36 -70z" />
    <glyph glyph-name="seveneighths" unicode="&#x215e;" horiz-adv-x="1544" 
d="M1153 -41q-122 0 -201.5 63.5t-79.5 176.5q0 72 33.5 126.5t95.5 80.5q-45 26 -73.5 72t-28.5 102q0 100 74.5 158.5t179.5 58.5h2q105 0 179.5 -58.5t74.5 -158.5q0 -56 -28.5 -102t-73.5 -72q62 -26 95.5 -80.5t33.5 -126.5q0 -114 -80 -177t-203 -63zM72 1415v146h520
v-101q-237 -314 -264 -696h-140q11 178 78.5 362.5t145.5 288.5h-340zM229 -10l746 1571h162l-744 -1569zM1010 213q0 -55 42 -89t103 -34q59 0 101 34t42 89q0 58 -41 89.5t-104 31.5q-62 0 -102.5 -31.5t-40.5 -89.5zM1034 573q0 -51 35.5 -75.5t85.5 -24.5t84.5 24.5
t34.5 75.5q0 42 -36 69.5t-83 27.5q-49 0 -85 -27t-36 -70z" />
    <glyph glyph-name="arrowleft" unicode="&#x2190;" horiz-adv-x="1986" 
d="M1878 569h-1438l289 -282l-121 -121l-499 500l499 499l121 -121l-289 -282h1438v-193z" />
    <glyph glyph-name="arrowup" unicode="&#x2191;" horiz-adv-x="1179" 
d="M676 -154h-172v1461l-293 -301l-121 120l500 500l500 -500l-121 -120l-293 301v-1461z" />
    <glyph glyph-name="arrowright" unicode="&#x2192;" horiz-adv-x="1986" 
d="M109 569v193h1437l-289 282l121 121l500 -499l-500 -500l-121 121l289 282h-1437z" />
    <glyph glyph-name="arrowdown" unicode="&#x2193;" horiz-adv-x="1179" 
d="M676 1628v-1460l293 301l121 -121l-500 -500l-500 500l121 121l293 -301v1460h172z" />
    <glyph glyph-name="uni2196" unicode="&#x2196;" horiz-adv-x="1828" 
d="M1597 -8l-1271 1274l4 -420h-160v715h694v-181l-399 4l1264 -1261z" />
    <glyph glyph-name="uni2197" unicode="&#x2197;" horiz-adv-x="1828" 
d="M231 -8l-131 131l1264 1261l-399 -4v181h694v-715h-160l4 420z" />
    <glyph glyph-name="uni2198" unicode="&#x2198;" horiz-adv-x="1828" 
d="M231 1559l1272 -1274l-4 420h160v-715h-694v180l399 -4l-1264 1261z" />
    <glyph glyph-name="uni2199" unicode="&#x2199;" horiz-adv-x="1828" 
d="M1597 1559l132 -132l-1264 -1261l399 4v-180h-694v715h160l-4 -420z" />
    <glyph glyph-name="uni2206" unicode="&#x2206;" horiz-adv-x="1458" 
d="M76 -10v184l518 1387h270l518 -1387v-184h-1306zM281 180h897l-387 1016q-42 118 -56 170h-12q-18 -65 -55 -170z" />
    <glyph glyph-name="product" unicode="&#x220f;" horiz-adv-x="1527" 
d="M150 -369v1930h1228v-1930h-207v1739h-815v-1739h-206z" />
    <glyph glyph-name="summation" unicode="&#x2211;" horiz-adv-x="1202" 
d="M123 -10v190l467 621l-447 553v207h967v-199h-721l455 -563l-467 -611h753v-198h-1007z" />
    <glyph glyph-name="minus" unicode="&#x2212;" 
d="M109 516v176h1024v-176h-1024z" />
    <glyph glyph-name="uni2219" unicode="&#x2219;" horiz-adv-x="671" 
d="M180 403v345h312v-345h-312z" />
    <glyph glyph-name="infinity" unicode="&#x221e;" horiz-adv-x="1683" 
d="M127 567q0 180 103.5 291t267.5 111q99 0 189 -61t155 -177q65 116 154 177t190 61q164 0 267 -111t103 -291t-103 -290.5t-267 -110.5q-103 0 -191 60.5t-153 174.5q-63 -114 -152 -174.5t-192 -60.5q-164 0 -267.5 110.5t-103.5 290.5zM297 567q0 -100 54.5 -160.5
t146.5 -60.5q149 0 258 221q-112 221 -258 221q-92 0 -146.5 -60.5t-54.5 -160.5zM928 567q55 -114 118 -167.5t140 -53.5q92 0 146 60.5t54 160.5t-54 160.5t-146 60.5q-148 0 -258 -221z" />
    <glyph glyph-name="integral" unicode="&#x222b;" horiz-adv-x="692" 
d="M47 -369v193h98q58 0 78.5 16t20.5 60v1415q0 97 47.5 151t126.5 54h227v-193h-102q-59 0 -79 -22t-20 -86v-1383q0 -96 -47.5 -150.5t-126.5 -54.5h-223z" />
    <glyph glyph-name="approxequal" unicode="&#x2248;" horiz-adv-x="1161" 
d="M784 637q-79 0 -215 70q-44 21 -66.5 30.5t-56.5 19t-63 9.5q-33 0 -62.5 -14t-45.5 -28t-44 -44l-26 -29l-113 99q51 73 88.5 114t86.5 66.5t108 25.5q81 0 215 -69q47 -22 67 -31t56 -19t65 -10q20 0 39 6t31 10.5t31 21.5t24 22t26.5 28.5t24.5 26.5l115 -106
q-52 -70 -89 -109t-87 -64.5t-109 -25.5zM92 358q76 110 137 158.5t146 48.5q81 0 215 -69q47 -22 67 -31t56 -19t65 -10q20 0 39 6t31 10.5t31 21.5t24 22t26.5 28.5t24.5 26.5l115 -107q-77 -105 -138 -151.5t-147 -46.5q-81 0 -215 69q-47 22 -67 31t-55.5 19t-63.5 10
q-33 0 -62.5 -14t-45.5 -28t-44 -44l-26 -29z" />
    <glyph glyph-name="notequal" unicode="&#x2260;" 
d="M109 313v166h348l135 250h-483v166h573l123 229h166l-123 -229h285v-166h-375l-135 -250h510v-166h-598l-119 -219h-166l119 219h-260z" />
    <glyph glyph-name="lessequal" unicode="&#x2264;" horiz-adv-x="1118" 
d="M1030 156v-166h-942v166h942zM88 637v176l942 428v-192l-737 -322l737 -332v-190z" />
    <glyph glyph-name="greaterequal" unicode="&#x2265;" horiz-adv-x="1118" 
d="M88 156h942v-166h-942v166zM88 205v190l737 332l-737 322v192l942 -428v-176z" />
    <glyph glyph-name="dotmath" unicode="&#x22c5;" horiz-adv-x="888" 
d="M444 463q-55 0 -96 43t-41 104t41 104.5t96 43.5t96.5 -43.5t41.5 -104.5t-41.5 -104t-96.5 -43z" />
    <glyph glyph-name="filledbox" unicode="&#x25a0;" horiz-adv-x="1650" 
d="M49 1561h1553v-1571h-1553v1571z" />
    <glyph glyph-name="uni25A1" unicode="&#x25a1;" horiz-adv-x="1650" 
d="M49 -10v1571h1553v-1571h-1553zM180 141h1290v1268h-1290v-1268z" />
    <glyph glyph-name="triagup" unicode="&#x25b2;" horiz-adv-x="2002" 
d="M39 -10l962 1622l963 -1622h-1925z" />
    <glyph glyph-name="uni25B3" unicode="&#x25b3;" horiz-adv-x="2002" 
d="M39 -10l962 1622l963 -1622h-1925zM287 143h1429l-715 1205z" />
    <glyph glyph-name="triagdn" unicode="&#x25bc;" horiz-adv-x="2002" 
d="M1001 -61l-962 1622h1925z" />
    <glyph glyph-name="uni25BD" unicode="&#x25bd;" horiz-adv-x="2002" 
d="M39 1561h1925l-963 -1622zM287 1407l714 -1204l715 1204h-1429z" />
    <glyph glyph-name="lozenge" unicode="&#x25ca;" horiz-adv-x="1138" 
d="M78 649v135l426 660h131l426 -660v-135l-426 -659h-131zM258 717l311 -486l312 486l-312 485z" />
    <glyph glyph-name="circle" unicode="&#x25cb;" horiz-adv-x="1923" 
d="M963 -88q-139 0 -269 43t-235.5 123t-184.5 186t-122 238t-43 274q0 176 67.5 336t182 275t272.5 183t332 68q173 0 330.5 -68t272 -183t182 -275t67.5 -336q0 -177 -67.5 -337.5t-182 -275.5t-272 -183t-330.5 -68zM246 776q0 -143 56.5 -274t152 -226t228.5 -151.5
t280 -56.5q146 0 278.5 56.5t228 151.5t151.5 226t56 274q0 191 -95 353.5t-259.5 258t-359.5 95.5q-147 0 -280 -56.5t-228.5 -151.5t-152 -225.5t-56.5 -273.5z" />
    <glyph glyph-name="uni25CF" unicode="&#x25cf;" horiz-adv-x="1923" 
d="M963 -68q174 0 332 67t272 180t181 269.5t67 327.5t-67 326.5t-181 268.5t-272 180t-332 67q-175 0 -333.5 -67t-272.5 -180t-181 -268.5t-67 -326.5q0 -137 43 -266t121.5 -232.5t183.5 -182t235.5 -121t270.5 -42.5z" />
    <glyph glyph-name="uni2780" unicode="&#x2780;" horiz-adv-x="1923" 
d="M963 -88q-139 0 -269 43t-235.5 123t-184.5 186t-122 238t-43 274q0 176 67.5 336t182 275t272.5 183t332 68q173 0 330.5 -68t272 -183t182 -275t67.5 -336q0 -177 -67.5 -337.5t-182 -275.5t-272 -183t-330.5 -68zM246 776q0 -143 56.5 -274t152 -226t228.5 -151.5
t280 -56.5q146 0 278.5 56.5t228 151.5t151.5 226t56 274q0 191 -95 353.5t-259.5 258t-359.5 95.5q-147 0 -280 -56.5t-228.5 -151.5t-152 -225.5t-56.5 -273.5zM766 883v161q54 20 96.5 54.5t65.5 75.5h119v-797h-129v436q0 98 2 141h-11q-57 -47 -143 -71z" />
    <glyph glyph-name="uni2781" unicode="&#x2781;" horiz-adv-x="1923" 
d="M963 -88q-139 0 -269 43t-235.5 123t-184.5 186t-122 238t-43 274q0 176 67.5 336t182 275t272.5 183t332 68q173 0 330.5 -68t272 -183t182 -275t67.5 -336q0 -177 -67.5 -337.5t-182 -275.5t-272 -183t-330.5 -68zM246 776q0 -143 56.5 -274t152 -226t228.5 -151.5
t280 -56.5q146 0 278.5 56.5t228 151.5t151.5 226t56 274q0 191 -95 353.5t-259.5 258t-359.5 95.5q-147 0 -280 -56.5t-228.5 -151.5t-152 -225.5t-56.5 -273.5zM688 897q3 132 77 214.5t208 82.5q115 0 183.5 -64t68.5 -176q0 -85 -37.5 -143.5t-126.5 -110.5l-53 -30
q-75 -44 -111 -75.5t-53 -70.5h389v-147h-543q-3 153 52 248.5t180 162.5l67 37q61 33 84 61t23 66q0 48 -31 76.5t-90 28.5q-78 0 -115 -38t-43 -122h-129z" />
    <glyph glyph-name="uni2782" unicode="&#x2782;" horiz-adv-x="1923" 
d="M963 -88q-139 0 -269 43t-235.5 123t-184.5 186t-122 238t-43 274q0 176 67.5 336t182 275t272.5 183t332 68q173 0 330.5 -68t272 -183t182 -275t67.5 -336q0 -177 -67.5 -337.5t-182 -275.5t-272 -183t-330.5 -68zM246 776q0 -143 56.5 -274t152 -226t228.5 -151.5
t280 -56.5q146 0 278.5 56.5t228 151.5t151.5 226t56 274q0 191 -95 353.5t-259.5 258t-359.5 95.5q-147 0 -280 -56.5t-228.5 -151.5t-152 -225.5t-56.5 -273.5zM680 653h135q4 -85 43 -123t117 -38q64 0 100.5 34t36.5 90q0 58 -44 95t-120 37h-59v133h55q70 0 106.5 21
t36.5 71q0 40 -32.5 65t-91.5 25q-143 0 -146 -139h-135q2 129 75 199.5t210 70.5q115 0 182.5 -56.5t67.5 -152.5q0 -115 -101 -166q60 -26 93.5 -83.5t33.5 -133.5q0 -117 -76 -181.5t-198 -64.5q-139 0 -214 77.5t-75 219.5z" />
    <glyph glyph-name="uni2783" unicode="&#x2783;" horiz-adv-x="1923" 
d="M963 -88q-139 0 -269 43t-235.5 123t-184.5 186t-122 238t-43 274q0 176 67.5 336t182 275t272.5 183t332 68q173 0 330.5 -68t272 -183t182 -275t67.5 -336q0 -177 -67.5 -337.5t-182 -275.5t-272 -183t-330.5 -68zM246 776q0 -143 56.5 -274t152 -226t228.5 -151.5
t280 -56.5q146 0 278.5 56.5t228 151.5t151.5 226t56 274q0 191 -95 353.5t-259.5 258t-359.5 95.5q-147 0 -280 -56.5t-228.5 -151.5t-152 -225.5t-56.5 -273.5zM602 569v119l342 486h164v-469h135v-136h-135v-192h-127l2 192h-381zM768 705h217v157q0 88 4 154h-8
q-68 -118 -104 -166z" />
    <glyph glyph-name="uni2784" unicode="&#x2784;" horiz-adv-x="1923" 
d="M963 -88q-139 0 -269 43t-235.5 123t-184.5 186t-122 238t-43 274q0 176 67.5 336t182 275t272.5 183t332 68q173 0 330.5 -68t272 -183t182 -275t67.5 -336q0 -177 -67.5 -337.5t-182 -275.5t-272 -183t-330.5 -68zM246 776q0 -143 56.5 -274t152 -226t228.5 -151.5
t280 -56.5q146 0 278.5 56.5t228 151.5t151.5 226t56 274q0 191 -95 353.5t-259.5 258t-359.5 95.5q-147 0 -280 -56.5t-228.5 -151.5t-152 -225.5t-56.5 -273.5zM696 602h131q6 -52 43.5 -82.5t98.5 -30.5q73 0 113 51.5t40 125.5q0 77 -38 115t-105 38q-53 0 -92 -28.5
t-45 -67.5l-125 4l37 447h448v-142h-342l-14 -141q51 57 158 57q113 0 181 -78t68 -198q0 -143 -77.5 -229.5t-208.5 -86.5q-120 0 -191.5 65t-79.5 181z" />
    <glyph glyph-name="uni2785" unicode="&#x2785;" horiz-adv-x="1923" 
d="M963 -88q-139 0 -269 43t-235.5 123t-184.5 186t-122 238t-43 274q0 176 67.5 336t182 275t272.5 183t332 68q173 0 330.5 -68t272 -183t182 -275t67.5 -336q0 -177 -67.5 -337.5t-182 -275.5t-272 -183t-330.5 -68zM246 776q0 -143 56.5 -274t152 -226t228.5 -151.5
t280 -56.5q146 0 278.5 56.5t228 151.5t151.5 226t56 274q0 191 -95 353.5t-259.5 258t-359.5 95.5q-147 0 -280 -56.5t-228.5 -151.5t-152 -225.5t-56.5 -273.5zM678 754q0 210 79.5 325t237.5 115q108 0 174 -65t66 -171h-121q-3 44 -37.5 69.5t-83.5 25.5
q-169 0 -184 -219q64 92 188 92q104 0 176 -76.5t72 -194.5q0 -134 -76 -216.5t-194 -82.5q-140 0 -218.5 103.5t-78.5 294.5zM825 651q0 -73 40 -116t110 -43q62 0 99.5 44.5t37.5 114.5q0 62 -37 103t-98 41q-71 0 -111.5 -40t-40.5 -104z" />
    <glyph glyph-name="uni2786" unicode="&#x2786;" horiz-adv-x="1923" 
d="M963 -88q-139 0 -269 43t-235.5 123t-184.5 186t-122 238t-43 274q0 176 67.5 336t182 275t272.5 183t332 68q173 0 330.5 -68t272 -183t182 -275t67.5 -336q0 -177 -67.5 -337.5t-182 -275.5t-272 -183t-330.5 -68zM246 776q0 -143 56.5 -274t152 -226t228.5 -151.5
t280 -56.5q146 0 278.5 56.5t228 151.5t151.5 226t56 274q0 191 -95 353.5t-259.5 258t-359.5 95.5q-147 0 -280 -56.5t-228.5 -151.5t-152 -225.5t-56.5 -273.5zM713 1028v146h520v-101q-237 -314 -264 -696h-140q11 178 78.5 362.5t145.5 288.5h-340z" />
    <glyph glyph-name="uni2787" unicode="&#x2787;" horiz-adv-x="1923" 
d="M963 -88q-139 0 -269 43t-235.5 123t-184.5 186t-122 238t-43 274q0 176 67.5 336t182 275t272.5 183t332 68q173 0 330.5 -68t272 -183t182 -275t67.5 -336q0 -177 -67.5 -337.5t-182 -275.5t-272 -183t-330.5 -68zM246 776q0 -143 56.5 -274t152 -226t228.5 -151.5
t280 -56.5q146 0 278.5 56.5t228 151.5t151.5 226t56 274q0 191 -95 353.5t-259.5 258t-359.5 95.5q-147 0 -280 -56.5t-228.5 -151.5t-152 -225.5t-56.5 -273.5zM680 596q0 72 33.5 126.5t95.5 80.5q-45 26 -73.5 72t-28.5 102q0 100 74.5 158.5t179.5 58.5h2
q105 0 179.5 -58.5t74.5 -158.5q0 -56 -29 -102t-74 -72q62 -26 95.5 -80.5t33.5 -126.5q0 -114 -79.5 -177t-202.5 -63q-122 0 -201.5 63.5t-79.5 176.5zM817 610q0 -55 42.5 -89t103.5 -34q59 0 101 34t42 89q0 58 -41 89.5t-104 31.5q-62 0 -103 -31.5t-41 -89.5z
M842 971q0 -51 35.5 -76t85.5 -25t84 24.5t34 76.5q0 42 -35.5 69t-82.5 27q-49 0 -85 -26.5t-36 -69.5z" />
    <glyph glyph-name="uni2788" unicode="&#x2788;" horiz-adv-x="1923" 
d="M963 -88q-139 0 -269 43t-235.5 123t-184.5 186t-122 238t-43 274q0 176 67.5 336t182 275t272.5 183t332 68q173 0 330.5 -68t272 -183t182 -275t67.5 -336q0 -177 -67.5 -337.5t-182 -275.5t-272 -183t-330.5 -68zM246 776q0 -143 56.5 -274t152 -226t228.5 -151.5
t280 -56.5q146 0 278.5 56.5t228 151.5t151.5 226t56 274q0 191 -95 353.5t-259.5 258t-359.5 95.5q-147 0 -280 -56.5t-228.5 -151.5t-152 -225.5t-56.5 -273.5zM686 895q0 134 76 216.5t194 82.5q141 0 219 -103t78 -294q0 -210 -79.5 -325.5t-237.5 -115.5
q-108 0 -174 65t-66 171h121q3 -44 37.5 -69t83.5 -25q169 0 184 219q-64 -92 -188 -92q-105 0 -176.5 76t-71.5 194zM819 899q0 -62 37 -102.5t98 -40.5q71 0 111.5 39.5t40.5 103.5q0 73 -40 116.5t-110 43.5q-62 0 -99.5 -45t-37.5 -115z" />
    <glyph glyph-name="uni278A" unicode="&#x278a;" horiz-adv-x="1923" 
d="M963 -68q174 0 332 67t272 180t181 269.5t67 327.5t-67 326.5t-181 268.5t-272 180t-332 67q-175 0 -333.5 -67t-272.5 -180t-181 -268.5t-67 -326.5q0 -137 43 -266t121.5 -232.5t183.5 -182t235.5 -121t270.5 -42.5zM766 883v161q54 20 96.5 54.5t65.5 75.5h119v-797
h-129v436q0 98 2 141h-11q-57 -47 -143 -71z" />
    <glyph glyph-name="uni278B" unicode="&#x278b;" horiz-adv-x="1923" 
d="M963 -68q174 0 332 67t272 180t181 269.5t67 327.5t-67 326.5t-181 268.5t-272 180t-332 67q-175 0 -333.5 -67t-272.5 -180t-181 -268.5t-67 -326.5q0 -137 43 -266t121.5 -232.5t183.5 -182t235.5 -121t270.5 -42.5zM688 897q3 132 77 214.5t208 82.5q115 0 183.5 -64
t68.5 -176q0 -85 -37.5 -143.5t-126.5 -110.5l-53 -30q-75 -44 -111 -75.5t-53 -70.5h389v-147h-543q-3 153 52 248.5t180 162.5l67 37q61 33 84 61t23 66q0 48 -31 76.5t-90 28.5q-78 0 -115 -38t-43 -122h-129z" />
    <glyph glyph-name="uni278C" unicode="&#x278c;" horiz-adv-x="1923" 
d="M963 -68q174 0 332 67t272 180t181 269.5t67 327.5t-67 326.5t-181 268.5t-272 180t-332 67q-175 0 -333.5 -67t-272.5 -180t-181 -268.5t-67 -326.5q0 -137 43 -266t121.5 -232.5t183.5 -182t235.5 -121t270.5 -42.5zM680 653h135q4 -85 43 -123t117 -38q64 0 100.5 34
t36.5 90q0 58 -44 95t-120 37h-59v133h55q70 0 106.5 21t36.5 71q0 40 -32.5 65t-91.5 25q-143 0 -146 -139h-135q2 129 75 199.5t210 70.5q115 0 182.5 -56.5t67.5 -152.5q0 -115 -101 -166q60 -26 93.5 -83.5t33.5 -133.5q0 -117 -76 -181.5t-198 -64.5q-139 0 -214 77.5
t-75 219.5zM1087 797v34h11v-34h-11z" />
    <glyph glyph-name="uni278D" unicode="&#x278d;" horiz-adv-x="1923" 
d="M963 -68q174 0 332 67t272 180t181 269.5t67 327.5t-67 326.5t-181 268.5t-272 180t-332 67q-175 0 -333.5 -67t-272.5 -180t-181 -268.5t-67 -326.5q0 -137 43 -266t121.5 -232.5t183.5 -182t235.5 -121t270.5 -42.5zM602 569v119l342 486h164v-469h135v-136h-135v-192
h-127l2 192h-381zM768 705h217v157q0 88 4 154h-8q-68 -118 -104 -166z" />
    <glyph glyph-name="uni278E" unicode="&#x278e;" horiz-adv-x="1923" 
d="M963 -68q174 0 332 67t272 180t181 269.5t67 327.5t-67 326.5t-181 268.5t-272 180t-332 67q-175 0 -333.5 -67t-272.5 -180t-181 -268.5t-67 -326.5q0 -137 43 -266t121.5 -232.5t183.5 -182t235.5 -121t270.5 -42.5zM696 602h131q6 -52 43.5 -82.5t98.5 -30.5
q73 0 113 51.5t40 125.5q0 77 -38 115t-105 38q-53 0 -92 -28.5t-45 -67.5l-125 4l37 447h448v-142h-342l-14 -141q51 57 158 57q113 0 181 -78t68 -198q0 -143 -77.5 -229.5t-208.5 -86.5q-120 0 -191.5 65t-79.5 181z" />
    <glyph glyph-name="uni278F" unicode="&#x278f;" horiz-adv-x="1923" 
d="M963 -68q174 0 332 67t272 180t181 269.5t67 327.5t-67 326.5t-181 268.5t-272 180t-332 67q-175 0 -333.5 -67t-272.5 -180t-181 -268.5t-67 -326.5q0 -137 43 -266t121.5 -232.5t183.5 -182t235.5 -121t270.5 -42.5zM678 754q0 210 79.5 325t237.5 115q108 0 174 -65
t66 -171h-121q-3 44 -37.5 69.5t-83.5 25.5q-169 0 -184 -219q64 92 188 92q104 0 176 -76.5t72 -194.5q0 -134 -76 -216.5t-194 -82.5q-140 0 -218.5 103.5t-78.5 294.5zM825 651q0 -73 40 -116t110 -43q62 0 99.5 44.5t37.5 114.5q0 62 -37 103t-98 41q-71 0 -111.5 -40
t-40.5 -104z" />
    <glyph glyph-name="uni2790" unicode="&#x2790;" horiz-adv-x="1923" 
d="M963 -68q174 0 332 67t272 180t181 269.5t67 327.5t-67 326.5t-181 268.5t-272 180t-332 67q-175 0 -333.5 -67t-272.5 -180t-181 -268.5t-67 -326.5q0 -137 43 -266t121.5 -232.5t183.5 -182t235.5 -121t270.5 -42.5zM713 1028v146h520v-101q-237 -314 -264 -696h-140
q11 178 78.5 362.5t145.5 288.5h-340z" />
    <glyph glyph-name="uni2791" unicode="&#x2791;" horiz-adv-x="1923" 
d="M963 -68q174 0 332 67t272 180t181 269.5t67 327.5t-67 326.5t-181 268.5t-272 180t-332 67q-175 0 -333.5 -67t-272.5 -180t-181 -268.5t-67 -326.5q0 -137 43 -266t121.5 -232.5t183.5 -182t235.5 -121t270.5 -42.5zM680 596q0 72 33.5 126.5t95.5 80.5
q-45 26 -73.5 72t-28.5 102q0 100 74.5 158.5t179.5 58.5h2q105 0 179.5 -58.5t74.5 -158.5q0 -56 -29 -102t-74 -72q62 -26 95.5 -80.5t33.5 -126.5q0 -114 -79.5 -177t-202.5 -63q-122 0 -201.5 63.5t-79.5 176.5zM809 803l20 6v-16q-3 1 -6 2.5t-7 4t-7 3.5zM817 610
q0 -55 42.5 -89t103.5 -34q59 0 101 34t42 89q0 58 -41 89.5t-104 31.5q-62 0 -103 -31.5t-41 -89.5zM842 971q0 -51 35.5 -76t85.5 -25t84 24.5t34 76.5q0 42 -35.5 69t-82.5 27q-49 0 -85 -26.5t-36 -69.5zM1094 793v16l20 -6z" />
    <glyph glyph-name="uni2792" unicode="&#x2792;" horiz-adv-x="1923" 
d="M963 -68q174 0 332 67t272 180t181 269.5t67 327.5t-67 326.5t-181 268.5t-272 180t-332 67q-175 0 -333.5 -67t-272.5 -180t-181 -268.5t-67 -326.5q0 -137 43 -266t121.5 -232.5t183.5 -182t235.5 -121t270.5 -42.5zM686 895q0 134 76 216.5t194 82.5q141 0 219 -103
t78 -294q0 -210 -79.5 -325.5t-237.5 -115.5q-108 0 -174 65t-66 171h121q3 -44 37.5 -69t83.5 -25q169 0 184 219q-64 -92 -188 -92q-105 0 -176.5 76t-71.5 194zM819 899q0 -62 37 -102.5t98 -40.5q71 0 111.5 39.5t40.5 103.5q0 73 -40 116.5t-110 43.5q-62 0 -99.5 -45
t-37.5 -115z" />
    <glyph glyph-name="a.ss01" horiz-adv-x="1251" 
d="M600 -37q-122 0 -222 48.5t-165 132t-100 191t-35 228.5t35 228.5t100 191t165 132t222 48.5q118 0 204.5 -44t123.5 -124h10v142h184v-1147h-184v141h-10q-37 -80 -123.5 -124t-204.5 -44zM281 563q0 -191 93.5 -309.5t254.5 -118.5q126 0 204 64t101 188q12 66 12 176
t-12 176q-23 124 -101 188t-204 64q-161 0 -254.5 -118.5t-93.5 -309.5z" />
    <glyph glyph-name="aacute.ss01" horiz-adv-x="1251" 
d="M600 -37q-122 0 -222 48.5t-165 132t-100 191t-35 228.5t35 228.5t100 191t165 132t222 48.5q118 0 204.5 -44t123.5 -124h10v142h184v-1147h-184v141h-10q-37 -80 -123.5 -124t-204.5 -44zM281 563q0 -191 93.5 -309.5t254.5 -118.5q126 0 204 64t101 188q12 66 12 176
t-12 176q-23 124 -101 188t-204 64q-161 0 -254.5 -118.5t-93.5 -309.5zM561 1235l150 326h231l-260 -326h-121z" />
    <glyph glyph-name="abreve.ss01" horiz-adv-x="1251" 
d="M600 -37q-122 0 -222 48.5t-165 132t-100 191t-35 228.5t35 228.5t100 191t165 132t222 48.5q118 0 204.5 -44t123.5 -124h10v142h184v-1147h-184v141h-10q-37 -80 -123.5 -124t-204.5 -44zM281 563q0 -191 93.5 -309.5t254.5 -118.5q126 0 204 64t101 188q12 66 12 176
t-12 176q-23 124 -101 188t-204 64q-161 0 -254.5 -118.5t-93.5 -309.5zM317 1520h162q17 -152 146 -152q130 0 147 152h162q-13 -137 -95.5 -208t-211.5 -71q-130 0 -213.5 71t-96.5 208z" />
    <glyph glyph-name="acircumflex.ss01" horiz-adv-x="1251" 
d="M600 -37q-122 0 -222 48.5t-165 132t-100 191t-35 228.5t35 228.5t100 191t165 132t222 48.5q118 0 204.5 -44t123.5 -124h10v142h184v-1147h-184v141h-10q-37 -80 -123.5 -124t-204.5 -44zM281 563q0 -191 93.5 -309.5t254.5 -118.5q126 0 204 64t101 188q12 66 12 176
t-12 176q-23 124 -101 188t-204 64q-161 0 -254.5 -118.5t-93.5 -309.5zM350 1235l197 326h160l196 -326h-133l-141 180l-146 -180h-133z" />
    <glyph glyph-name="adieresis.ss01" horiz-adv-x="1251" 
d="M600 -37q-122 0 -222 48.5t-165 132t-100 191t-35 228.5t35 228.5t100 191t165 132t222 48.5q118 0 204.5 -44t123.5 -124h10v142h184v-1147h-184v141h-10q-37 -80 -123.5 -124t-204.5 -44zM281 563q0 -191 93.5 -309.5t254.5 -118.5q126 0 204 64t101 188q12 66 12 176
t-12 176q-23 124 -101 188t-204 64q-161 0 -254.5 -118.5t-93.5 -309.5zM369 1280v236h188v-236h-188zM694 1280v236h189v-236h-189z" />
    <glyph glyph-name="agrave.ss01" horiz-adv-x="1251" 
d="M600 -37q-122 0 -222 48.5t-165 132t-100 191t-35 228.5t35 228.5t100 191t165 132t222 48.5q118 0 204.5 -44t123.5 -124h10v142h184v-1147h-184v141h-10q-37 -80 -123.5 -124t-204.5 -44zM281 563q0 -191 93.5 -309.5t254.5 -118.5q126 0 204 64t101 188q12 66 12 176
t-12 176q-23 124 -101 188t-204 64q-161 0 -254.5 -118.5t-93.5 -309.5zM311 1561h232l149 -326h-121z" />
    <glyph glyph-name="amacron.ss01" horiz-adv-x="1251" 
d="M600 -37q-122 0 -222 48.5t-165 132t-100 191t-35 228.5t35 228.5t100 191t165 132t222 48.5q118 0 204.5 -44t123.5 -124h10v142h184v-1147h-184v141h-10q-37 -80 -123.5 -124t-204.5 -44zM281 563q0 -191 93.5 -309.5t254.5 -118.5q126 0 204 64t101 188q12 66 12 176
t-12 176q-23 124 -101 188t-204 64q-161 0 -254.5 -118.5t-93.5 -309.5zM326 1280v168h602v-168h-602z" />
    <glyph glyph-name="aring.ss01" horiz-adv-x="1251" 
d="M600 -37q-122 0 -222 48.5t-165 132t-100 191t-35 228.5t35 228.5t100 191t165 132t222 48.5q118 0 204.5 -44t123.5 -124h10v142h184v-1147h-184v141h-10q-37 -80 -123.5 -124t-204.5 -44zM281 563q0 -191 93.5 -309.5t254.5 -118.5q126 0 204 64t101 188q12 66 12 176
t-12 176q-23 124 -101 188t-204 64q-161 0 -254.5 -118.5t-93.5 -309.5zM422 1436q0 87 62 149t147 62q80 0 140 -62t60 -149q0 -91 -59.5 -155t-140.5 -64q-86 0 -147.5 64t-61.5 155zM541 1434q0 -31 25.5 -54.5t62.5 -23.5q36 0 62 23.5t26 54.5q0 30 -26 53.5t-62 23.5
q-38 0 -63 -23t-25 -54z" />
    <glyph glyph-name="atilde.ss01" horiz-adv-x="1251" 
d="M600 -37q-122 0 -222 48.5t-165 132t-100 191t-35 228.5t35 228.5t100 191t165 132t222 48.5q118 0 204.5 -44t123.5 -124h10v142h184v-1147h-184v141h-10q-37 -80 -123.5 -124t-204.5 -44zM281 563q0 -191 93.5 -309.5t254.5 -118.5q126 0 204 64t101 188q12 66 12 176
t-12 176q-23 124 -101 188t-204 64q-161 0 -254.5 -118.5t-93.5 -309.5zM317 1247q-3 108 51 177t148 69q56 0 133 -53q57 -37 94 -37q42 0 69 26t24 64h100q3 -109 -48 -179.5t-134 -70.5q-62 0 -138 49q-3 2 -19 10.5t-22 11t-18.5 7.5t-23.5 6.5t-23 1.5q-42 0 -68.5 -25
t-23.5 -57h-101z" />
    <glyph glyph-name="aeacute.ss01" horiz-adv-x="1966" 
 />
    <glyph glyph-name="uni041D.001" horiz-adv-x="1531" 
d="M150 -10v1571h206v-648h820v648h206v-1571h-206v733h-820v-733h-206z" />
    <glyph glyph-name="uni0414.loclBGR" 
 />
    <glyph glyph-name="uni041B.loclBGR" 
 />
    <glyph glyph-name="uni0424.loclBGR" 
 />
    <glyph glyph-name="uni04070407" horiz-adv-x="1011" 
d="M289 1704v235h168v-235h-168zM35 1704v235h168v-235h-168zM150 -10v1571h206v-1571h-206zM553 1704v235h168v-235h-168zM655 -10v1571h207v-1571h-207zM807 1704v235h168v-235h-168z" />
    <glyph glyph-name="uni0432.loclBGR" 
 />
    <glyph glyph-name="uni0433.loclBGR" 
 />
    <glyph glyph-name="uni0434.loclBGR" 
 />
    <glyph glyph-name="uni0436.loclBGR" 
 />
    <glyph glyph-name="uni0437.loclBGR" 
 />
    <glyph glyph-name="uni0438.loclBGR" 
 />
    <glyph glyph-name="uni0439.loclBGR" horiz-adv-x="1173" 
d="M129 -10v1147h174v-934l502 934h239v-1147h-174v934l-501 -934h-240zM209 1511h184q34 -157 195 -157q80 0 129 37t67 120h185q-17 -151 -118.5 -229t-260.5 -78q-160 0 -262 78t-119 229z" />
    <glyph glyph-name="uni045D.loclBGR" horiz-adv-x="1173" 
d="M129 -10v1147h174v-934l502 934h239v-1147h-174v934l-501 -934h-240zM272 1561h232l149 -326h-121z" />
    <glyph glyph-name="uni043A.loclBGR" 
 />
    <glyph glyph-name="uni043B.loclBGR" 
 />
    <glyph glyph-name="uni043F.loclBGR" 
 />
    <glyph glyph-name="uni0442.loclBGR" 
 />
    <glyph glyph-name="uni0446.loclBGR" 
 />
    <glyph glyph-name="uni0448.loclBGR" 
 />
    <glyph glyph-name="uni0449.loclBGR" 
 />
    <glyph glyph-name="uni044C.loclBGR" 
 />
    <glyph glyph-name="uni044A.loclBGR" 
 />
    <glyph glyph-name="uni044E.loclBGR" 
 />
    <glyph glyph-name="uni0430.ss01" horiz-adv-x="1251" 
d="M600 -37q-122 0 -222 48.5t-165 132t-100 191t-35 228.5t35 228.5t100 191t165 132t222 48.5q118 0 204.5 -44t123.5 -124h10v142h184v-1147h-184v141h-10q-37 -80 -123.5 -124t-204.5 -44zM281 563q0 -191 93.5 -309.5t254.5 -118.5q126 0 204 64t101 188q12 66 12 176
t-12 176q-23 124 -101 188t-204 64q-161 0 -254.5 -118.5t-93.5 -309.5z" />
    <glyph glyph-name="uni04570457" horiz-adv-x="937" 
d="M137 -10v1147h195v-1147h-195zM10 1280v236h160v-236h-160zM258 1280v236h160v-236h-160zM520 1280v236h160v-236h-160zM606 -10v1147h195v-1147h-195zM768 1280v236h160v-236h-160z" />
    <glyph glyph-name="zero.tf" horiz-adv-x="1361" 
d="M682 -37q-143 0 -255 66t-180 180t-103 258t-35 309q0 132 21.5 251t67 222t112 177.5t161.5 117.5t209 43h2q115 0 210 -43.5t161 -119t111.5 -178.5t67 -221t21.5 -249q0 -133 -21.5 -252t-67 -222.5t-112 -178t-161.5 -117.5t-209 -43zM319 776q0 -302 96.5 -465.5
t266.5 -163.5q169 0 265.5 163.5t96.5 465.5q0 301 -96.5 464t-265.5 163t-266 -163t-97 -464z" />
    <glyph glyph-name="one.tf" horiz-adv-x="1361" 
d="M424 1337q93 41 170 100t123 124h176v-1571h-191v1290h-10q-123 -102 -268 -154v211z" />
    <glyph glyph-name="two.tf" horiz-adv-x="1361" 
d="M174 1044q26 295 188 426q145 117 351 117q232 0 368 -121.5t136 -335.5q0 -158 -75.5 -264.5t-246.5 -195.5l-123 -64q-184 -96 -271 -191.5t-106 -224.5h838v-200h-1055q-1 196 47 337.5t145.5 242t258.5 182.5l139 71q132 67 184 136t52 165q0 129 -76 204t-201 75
q-151 0 -238.5 -92t-111.5 -267h-203z" />
    <glyph glyph-name="three.tf" horiz-adv-x="1361" 
d="M764 -37q-524 0 -574 547h205q10 -178 103.5 -270.5t261.5 -92.5q152 0 236.5 83t84.5 221q0 98 -52 171t-144 105q-59 23 -180 23h-101v184h92q128 0 185 24q145 55 145 203q0 111 -74.5 177.5t-199.5 66.5q-150 0 -236.5 -80t-95.5 -223h-203q17 226 157.5 355.5
t373.5 129.5q120 0 214.5 -31.5t152.5 -86.5t88 -125t30 -150q0 -125 -66 -216t-200 -128q159 -36 240 -145t81 -273q0 -200 -143.5 -334.5t-380.5 -134.5z" />
    <glyph glyph-name="four.tf" horiz-adv-x="1361" 
d="M885 -10l4 432h-731v184l651 955h276v-957h179v-182h-179v-432h-200zM379 604h510v383q0 211 10 381h-14q-120 -211 -254 -403z" />
    <glyph glyph-name="five.tf" horiz-adv-x="1361" 
d="M670 -35q-206 0 -342.5 126t-145.5 339h215q5 -124 85 -203.5t208 -79.5q68 0 124.5 23t96 62.5t67 92.5t40 112t12.5 122q0 174 -81 272.5t-230 98.5q-119 0 -201.5 -65.5t-107.5 -170.5h-179l70 867h852v-197h-690l-33 -383q116 131 318 131q115 0 209 -44.5
t154.5 -119.5t93 -172t32.5 -205q0 -268 -159.5 -437t-407.5 -169z" />
    <glyph glyph-name="six.tf" horiz-adv-x="1361" 
d="M702 -35q-145 0 -253.5 58.5t-173.5 163t-96.5 239t-31.5 297.5q0 147 21 275t67.5 237.5t115 187.5t168.5 122t224 44q196 0 316 -116.5t133 -325.5h-191q-22 131 -87 193.5t-189 62.5t-213 -81.5t-132 -214t-46 -300.5h12q118 235 383 235q96 0 183.5 -36.5t155 -102.5
t107 -166t39.5 -219q0 -245 -145.5 -399t-366.5 -154zM389 510q0 -162 86 -265.5t227 -103.5q133 0 221.5 104.5t88.5 266.5q0 84 -26 153t-69.5 112t-97 66t-110.5 23q-133 0 -226.5 -94t-93.5 -262z" />
    <glyph glyph-name="seven.tf" horiz-adv-x="1361" 
d="M545 -16q21 446 147 804.5t328 579.5h-768v193h999v-187q-157 -180 -258 -364.5t-165 -441t-78 -584.5h-205z" />
    <glyph glyph-name="eight.tf" horiz-adv-x="1361" 
d="M692 -37q-155 0 -278.5 51.5t-197 154.5t-73.5 243q0 145 78 253t232 152q-120 46 -187 137.5t-67 210.5q0 130 69 228t179.5 146t244.5 48q133 0 243.5 -48t179.5 -146t69 -228q0 -119 -67 -210.5t-187 -137.5q154 -44 231.5 -151.5t77.5 -253.5q0 -140 -75 -243.5
t-197.5 -154.5t-274.5 -51zM348 424q0 -131 101 -212t243 -81q141 0 242.5 81.5t101.5 211.5q0 141 -94.5 217t-251.5 76q-155 0 -248.5 -76t-93.5 -217zM401 1153q0 -67 25.5 -118t68.5 -79.5t92.5 -42.5t104.5 -14q54 0 103.5 14t92 42.5t68 79.5t25.5 118
q0 123 -83 189.5t-206 66.5q-128 0 -209.5 -65t-81.5 -191z" />
    <glyph glyph-name="nine.tf" horiz-adv-x="1361" 
d="M674 1587q145 0 253.5 -58.5t173.5 -163t96.5 -239t31.5 -297.5q0 -147 -21 -275t-67.5 -237.5t-115 -187.5t-168.5 -122t-224 -44q-196 0 -316 117t-133 326h191q22 -131 87 -193.5t189 -62.5t213 81.5t132 213.5t46 300h-12q-118 -235 -383 -235q-96 0 -183.5 36.5
t-155 102.5t-107 166t-39.5 219q0 245 145.5 399t366.5 154zM365 1040q0 -84 26 -153t69.5 -112t97 -66t110.5 -23q133 0 226 94t93 262q0 162 -86 265.5t-227 103.5q-133 0 -221 -104.5t-88 -266.5z" />
    <glyph glyph-name="space.tf" horiz-adv-x="1361" 
 />
    <glyph glyph-name="uni0306.cy" horiz-adv-x="0" 
d="M446 1204q-160 0 -261.5 78t-118.5 229h184q34 -157 194 -157q163 0 197 157h184q-17 -151 -118.5 -229t-260.5 -78z" />
    <glyph glyph-name="uni030C.alt" horiz-adv-x="0" 
d="M115 -569l65 219v211h154v-217l-119 -213h-100z" />
    </font>
</defs>
</svg>
